<?xml version="1.0" encoding="UTF-8"?>
<svg version="1.1" xmlns="http://www.w3.org/2000/svg" width="500" height="500">
<path d="M0 0 C3.05436758 0.01291487 6.0751171 0.10816294 9.125 0.25 C10.14400391 0.29374756 11.16300781 0.33749512 12.21289062 0.38256836 C19.885882 0.73918659 27.5472693 1.22258913 35.2109375 1.73828125 C69.78494031 4.30230092 69.78494031 4.30230092 104.38671875 3.234375 C122.19701531 2.07911252 140.43944609 2.60510165 158 6 C159.79181584 7.79181584 159.16806135 10.39411601 159.1796875 12.81640625 C159.11729219 21.33766867 158.27669206 29.7405501 157.40444946 38.21124268 C155.59464448 55.86736568 154.34204865 73.49424027 153.59619141 91.22631836 C153.56177444 92.01516922 153.52735748 92.80402008 153.49189758 93.61677551 C153.42857385 95.09052844 153.36972666 96.56448287 153.31608582 98.03862 C153.11103586 102.88896414 153.11103586 102.88896414 152 104 C145.40989339 104.44860517 138.86134384 103.79481227 132.32421875 103.01171875 C130.44674913 102.79860339 128.56922378 102.5859785 126.69165039 102.3737793 C125.71342316 102.26158051 124.73519592 102.14938171 123.72732544 102.03378296 C106.03047987 100.01783955 88.33519009 98.36180425 70.5625 97.1875 C69.17410416 97.09316177 69.17410416 97.09316177 67.75765991 96.99691772 C51.36329691 95.89524787 35.4935791 95.55469777 19.125 97.5 C1.54220241 99.5500951 1.54220241 99.5500951 -5 99 C-6 98 -6 98 -6.00415039 95.91333008 C-5.04648508 82.9853822 -2.88859774 70.20401785 -0.93579102 57.3972168 C-0.45101263 54.20693151 0.0267147 51.01564628 0.50390625 47.82421875 C0.65388565 46.85634933 0.80386505 45.88847992 0.95838928 44.89128113 C1.97332348 38.08318572 2.66705536 31.46140745 1.34375 24.6328125 C1.20807617 23.89667725 1.07240234 23.16054199 0.93261719 22.40209961 C0.78985352 21.65065674 0.64708984 20.89921387 0.5 20.125 C-0.65648739 13.65465246 -1.4188372 7.59668587 -1 1 C-0.67 0.67 -0.34 0.34 0 0 Z " fill="#313131" transform="translate(149,180)"/>
<path d="M0 0 C3.05436758 0.01291487 6.0751171 0.10816294 9.125 0.25 C10.14400391 0.29374756 11.16300781 0.33749512 12.21289062 0.38256836 C19.885882 0.73918659 27.5472693 1.22258913 35.2109375 1.73828125 C69.78494031 4.30230092 69.78494031 4.30230092 104.38671875 3.234375 C122.19701531 2.07911252 140.43944609 2.60510165 158 6 C159.79181584 7.79181584 159.16806135 10.39411601 159.1796875 12.81640625 C159.11729219 21.33766867 158.27669206 29.7405501 157.40444946 38.21124268 C155.59464448 55.86736568 154.34204865 73.49424027 153.59619141 91.22631836 C153.56177444 92.01516922 153.52735748 92.80402008 153.49189758 93.61677551 C153.42857385 95.09052844 153.36972666 96.56448287 153.31608582 98.03862 C153.11103586 102.88896414 153.11103586 102.88896414 152 104 C145.40989339 104.44860517 138.86134384 103.79481227 132.32421875 103.01171875 C130.44674913 102.79860339 128.56922378 102.5859785 126.69165039 102.3737793 C125.71342316 102.26158051 124.73519592 102.14938171 123.72732544 102.03378296 C106.03047987 100.01783955 88.33519009 98.36180425 70.5625 97.1875 C69.17410416 97.09316177 69.17410416 97.09316177 67.75765991 96.99691772 C51.36329691 95.89524787 35.4935791 95.55469777 19.125 97.5 C1.54220241 99.5500951 1.54220241 99.5500951 -5 99 C-6 98 -6 98 -6.00415039 95.91333008 C-5.04648508 82.9853822 -2.88859774 70.20401785 -0.93579102 57.3972168 C-0.45101263 54.20693151 0.0267147 51.01564628 0.50390625 47.82421875 C0.65388565 46.85634933 0.80386505 45.88847992 0.95838928 44.89128113 C1.97332348 38.08318572 2.66705536 31.46140745 1.34375 24.6328125 C1.20807617 23.89667725 1.07240234 23.16054199 0.93261719 22.40209961 C0.78985352 21.65065674 0.64708984 20.89921387 0.5 20.125 C-0.65648739 13.65465246 -1.4188372 7.59668587 -1 1 C-0.67 0.67 -0.34 0.34 0 0 Z M3 4 C3.52543926 10.89984713 4.36979602 17.65726261 5.59765625 24.46875 C6.65535934 33.75189173 5.68799383 42.62805105 4.25 51.81640625 C4.07243164 52.99468491 3.89486328 54.17296356 3.71191406 55.38694763 C3.14886458 59.11333145 2.57483042 62.83791713 2 66.5625 C1.42749881 70.31953903 0.85724681 74.07691098 0.28808594 77.8344574 C-0.06558609 80.1641455 -0.42163535 82.49347417 -0.78027344 84.82240295 C-1.02052246 86.39060036 -1.02052246 86.39060036 -1.265625 87.99047852 C-1.40774414 88.91216324 -1.54986328 89.83384796 -1.69628906 90.78346252 C-2.04525067 92.95737295 -2.04525067 92.95737295 -2 95 C7.26021375 94.51463707 16.44853336 93.84648751 25.64770508 92.66064453 C40.52342404 90.91094907 55.67234069 92.22510963 70.5625 93.1875 C71.56159393 93.25047272 72.56068787 93.31344543 73.59005737 93.37832642 C91.8314857 94.54218984 109.98405589 96.31657016 128.14477539 98.3737793 C129.57533264 98.5350531 129.57533264 98.5350531 131.03479004 98.69958496 C132.80847966 98.9008776 134.58179159 99.10554074 136.35461426 99.31433105 C140.59773432 99.80015479 144.71957379 100.10906917 149 100 C149.02870178 99.44767197 149.05740356 98.89534393 149.0869751 98.32627869 C150.63185448 68.78583768 152.61014964 39.38992495 156 10 C139.27309633 7.43436022 123.05555139 5.10960863 106.12573242 7.08544922 C84.46948105 9.56507651 62.55729627 7.67195457 40.89227295 6.14575195 C36.00686424 5.80337907 31.12054926 5.4741427 26.23429871 5.14404297 C23.65313671 4.96888932 21.07216027 4.79097227 18.4914093 4.60986328 C17.33126816 4.52978027 16.17112701 4.44969727 14.97583008 4.3671875 C13.96313553 4.29612793 12.95044098 4.22506836 11.90705872 4.15185547 C8.93252059 3.99647509 5.97802636 3.9739794 3 4 Z " fill="#444444" transform="translate(149,180)"/>
<path d="M0 0 C2.788041 2.64506453 3.85461332 4.14585326 4.5 7.9375 C3.87923287 11.73969864 2.31353637 13.96348352 0 17 C0.49371094 17.40992188 0.98742187 17.81984375 1.49609375 18.2421875 C2.13675781 18.78101563 2.77742188 19.31984375 3.4375 19.875 C4.07558594 20.40867188 4.71367187 20.94234375 5.37109375 21.4921875 C7.47849649 23.44292481 7.95310642 24.52952668 8.23828125 27.390625 C8.35741989 31.98059778 8.33133676 35.25780565 6.4375 39.5 C2.19320487 43.85312321 -2.09014166 45.15852256 -8.0234375 45.328125 C-9.80745079 45.31761535 -11.59143382 45.2912982 -13.375 45.25 C-14.74591797 45.24226563 -14.74591797 45.24226563 -16.14453125 45.234375 C-22.84527726 45.15472274 -22.84527726 45.15472274 -24 44 C-24.15823112 42.64967333 -24.251221 41.29159599 -24.31640625 39.93359375 C-24.3793689 38.63252686 -24.3793689 38.63252686 -24.44360352 37.30517578 C-24.48283936 36.35884277 -24.5220752 35.41250977 -24.5625 34.4375 C-24.6049585 33.47054199 -24.64741699 32.50358398 -24.69116211 31.50732422 C-25.13537743 20.34026951 -25.09563893 9.17356981 -25 -2 C-16.63786285 -3.76622495 -7.50007564 -4.62770624 0 0 Z " fill="#F8F8F8" transform="translate(279,209)"/>
<path d="M0 0 C6.6 0 13.2 0 20 0 C22.01837277 5.38232739 23.80936741 10.55418223 25.26171875 16.078125 C25.45723831 16.81198425 25.65275787 17.54584351 25.85420227 18.30194092 C26.26202799 19.83747003 26.66778535 21.37354988 27.0715332 22.91015625 C27.69004194 25.25965595 28.31826334 27.60641559 28.94726562 29.953125 C29.3443347 31.45297033 29.74083924 32.95296525 30.13671875 34.453125 C30.3241716 35.15109192 30.51162445 35.84905884 30.70475769 36.56817627 C31.56499194 39.87070756 32 42.55418296 32 46 C27.71 46 23.42 46 19 46 C18.67 43.36 18.34 40.72 18 38 C14.7 38 11.4 38 8 38 C8 40.64 8 43.28 8 46 C2.06 46 -3.88 46 -10 46 C-7.00577121 30.57016569 -3.73690898 15.26794241 0 0 Z " fill="#F8F8F8" transform="translate(221,207)"/>
<path d="M0 0 C14.52 0 29.04 0 44 0 C44 5.61 44 11.22 44 17 C39.38 17 34.76 17 30 17 C30.01160156 18.59070313 30.02320313 20.18140625 30.03515625 21.8203125 C30.04453822 23.92187382 30.05363798 26.02343642 30.0625 28.125 C30.07087891 29.17171875 30.07925781 30.2184375 30.08789062 31.296875 C30.09272461 32.82441406 30.09272461 32.82441406 30.09765625 34.3828125 C30.10551147 35.78104248 30.10551147 35.78104248 30.11352539 37.20751953 C30 40 30 40 29 46 C23.72 46 18.44 46 13 46 C12.97314233 41.54162694 12.95323029 37.08341404 12.9375 32.625 C12.92912109 31.35398438 12.92074219 30.08296875 12.91210938 28.7734375 C12.90888672 27.56171875 12.90566406 26.35 12.90234375 25.1015625 C12.89710693 23.98088379 12.89187012 22.86020508 12.88647461 21.70556641 C13 19 13 19 14 17 C9.38 17 4.76 17 0 17 C0 11.39 0 5.78 0 0 Z " fill="#F6F6F6" transform="translate(166,207)"/>
<path d="M0 0 C1.65 0 3.3 0 5 0 C5.33 2.31 5.66 4.62 6 7 C3.69 7 1.38 7 -1 7 C-0.67 4.69 -0.34 2.38 0 0 Z " fill="#464646" transform="translate(231,229)"/>
<path d="M0 0 C2.475 0.99 2.475 0.99 5 2 C4.67 3.98 4.34 5.96 4 8 C2.68 8.33 1.36 8.66 0 9 C0 6.03 0 3.06 0 0 Z " fill="#535353" transform="translate(269,235)"/>
<path d="M0 0 C0.99 0.33 1.98 0.66 3 1 C3 2.65 3 4.3 3 6 C2.01 6 1.02 6 0 6 C0 4.02 0 2.04 0 0 Z " fill="#656565" transform="translate(269,214)"/>
</svg>
