<?xml version="1.0" encoding="UTF-8"?>
<svg version="1.1" xmlns="http://www.w3.org/2000/svg" width="500" height="500">
<path d="M0 0 C2.87070131 0.03037882 5.7121617 0.12741765 8.578125 0.26953125 C9.47672745 0.30991516 10.3753299 0.35029907 11.30116272 0.39190674 C14.28435996 0.5271259 17.2671565 0.6697054 20.25 0.8125 C22.31142101 0.90792649 24.37286341 1.00289191 26.43432617 1.09741211 C29.64821988 1.24498435 32.86208053 1.39312519 36.07585144 1.54335022 C43.72808716 1.90040335 51.38114691 2.23032627 59.03515625 2.546875 C62.1284729 2.67669649 65.22177138 2.80694222 68.31506348 2.93734741 C70.31475964 3.02084114 72.31451662 3.10289075 74.31433105 3.1835022 C77.10168518 3.29635301 79.88873121 3.41506203 82.67578125 3.53515625 C83.92561546 3.58352631 83.92561546 3.58352631 85.20069885 3.63287354 C90.88603964 3.88603964 90.88603964 3.88603964 92 5 C92.10056691 7.88606016 92.13615375 10.74822575 92.12939453 13.63476562 C92.13202301 14.99319832 92.13202301 14.99319832 92.13470459 16.3790741 C92.13912454 19.38815193 92.13618461 22.39717152 92.1328125 25.40625 C92.1334855 27.48750825 92.13445549 29.56876643 92.13571167 31.65002441 C92.13718884 36.01815538 92.13503348 40.38626593 92.13037109 44.75439453 C92.1246738 50.36714553 92.1279527 55.97984872 92.13394356 61.59259796 C92.13754866 65.89211389 92.13641082 70.19161838 92.13381577 74.49113464 C92.13314636 76.56129461 92.1339754 78.6314556 92.13629532 80.70161438 C92.13882102 83.58951586 92.13498242 86.47733878 92.12939453 89.36523438 C92.13141876 90.22968674 92.13344299 91.0941391 92.13552856 91.98478699 C92.11426237 97.88573763 92.11426237 97.88573763 91 99 C76.1339105 99.83841418 61.0886062 98.22714468 46.26855469 97.20629883 C34.02606094 96.37109506 22.02246441 95.73999711 9.77514648 96.71850586 C4.20248015 97.13403223 -1.41723316 97.3211744 -7 97 C-8 96 -8 96 -8.14256287 94.04580688 C-8.14202343 88.10673272 -7.65411679 82.44588544 -6.72265625 76.5859375 C-6.45258078 74.77267474 -6.18400813 72.95918767 -5.91674805 71.14550781 C-5.77667328 70.20404907 -5.63659851 69.26259033 -5.49227905 68.29260254 C-2.43176839 47.51598807 -1.04480774 27.05882239 -1.11257935 6.06271362 C-1.10642719 1.10642719 -1.10642719 1.10642719 0 0 Z " fill="#454545" transform="translate(207,310)"/>
<path d="M0 0 C7.92 0 15.84 0 24 0 C24.77923828 3.06087891 24.77923828 3.06087891 25.57421875 6.18359375 C26.27710038 8.9352925 26.98211077 11.68644308 27.6875 14.4375 C27.86885498 15.1454068 28.05020996 15.8533136 28.23706055 16.58267212 C30.68338547 26.11429995 33.24679812 35.58763477 36.1875 44.98046875 C37 48 37 48 37 52 C32.38 52 27.76 52 23 52 C21 46 21 46 21 42 C17.37 42 13.74 42 10 42 C10.020625 43.093125 10.04125 44.18625 10.0625 45.3125 C10 49 10 49 9 52 C2.4 52 -4.2 52 -11 52 C-7.60183008 34.60317437 -3.90917672 17.28903931 0 0 Z " fill="#FBFBFB" transform="translate(239,331)"/>
<path d="M0 0 C2.87070131 0.03037882 5.7121617 0.12741765 8.578125 0.26953125 C9.47672745 0.30991516 10.3753299 0.35029907 11.30116272 0.39190674 C14.28435996 0.5271259 17.2671565 0.6697054 20.25 0.8125 C22.31142101 0.90792649 24.37286341 1.00289191 26.43432617 1.09741211 C29.64821988 1.24498435 32.86208053 1.39312519 36.07585144 1.54335022 C43.72808716 1.90040335 51.38114691 2.23032627 59.03515625 2.546875 C62.1284729 2.67669649 65.22177138 2.80694222 68.31506348 2.93734741 C70.31475964 3.02084114 72.31451662 3.10289075 74.31433105 3.1835022 C77.10168518 3.29635301 79.88873121 3.41506203 82.67578125 3.53515625 C83.92561546 3.58352631 83.92561546 3.58352631 85.20069885 3.63287354 C90.88603964 3.88603964 90.88603964 3.88603964 92 5 C92.10056691 7.88606016 92.13615375 10.74822575 92.12939453 13.63476562 C92.13202301 14.99319832 92.13202301 14.99319832 92.13470459 16.3790741 C92.13912454 19.38815193 92.13618461 22.39717152 92.1328125 25.40625 C92.1334855 27.48750825 92.13445549 29.56876643 92.13571167 31.65002441 C92.13718884 36.01815538 92.13503348 40.38626593 92.13037109 44.75439453 C92.1246738 50.36714553 92.1279527 55.97984872 92.13394356 61.59259796 C92.13754866 65.89211389 92.13641082 70.19161838 92.13381577 74.49113464 C92.13314636 76.56129461 92.1339754 78.6314556 92.13629532 80.70161438 C92.13882102 83.58951586 92.13498242 86.47733878 92.12939453 89.36523438 C92.13141876 90.22968674 92.13344299 91.0941391 92.13552856 91.98478699 C92.11426237 97.88573763 92.11426237 97.88573763 91 99 C76.1339105 99.83841418 61.0886062 98.22714468 46.26855469 97.20629883 C34.02606094 96.37109506 22.02246441 95.73999711 9.77514648 96.71850586 C4.20248015 97.13403223 -1.41723316 97.3211744 -7 97 C-8 96 -8 96 -8.14256287 94.04580688 C-8.14202343 88.10673272 -7.65411679 82.44588544 -6.72265625 76.5859375 C-6.45258078 74.77267474 -6.18400813 72.95918767 -5.91674805 71.14550781 C-5.77667328 70.20404907 -5.63659851 69.26259033 -5.49227905 68.29260254 C-2.43176839 47.51598807 -1.04480774 27.05882239 -1.11257935 6.06271362 C-1.10642719 1.10642719 -1.10642719 1.10642719 0 0 Z M2 4 C1.938125 10.744375 1.87625 17.48875 1.8125 24.4375 C1.56054671 40.40286283 0.57476899 55.8629057 -2.2722168 71.57983398 C-2.49304932 72.80387939 -2.71388184 74.0279248 -2.94140625 75.2890625 C-3.14451416 76.32756348 -3.34762207 77.36606445 -3.55688477 78.43603516 C-4.16149058 83.29886471 -4.08391088 88.10660906 -4 93 C-3.42894531 92.99777939 -2.85789063 92.99555878 -2.26953125 92.99327087 C3.7006772 92.97106204 9.67087381 92.95602856 15.64111328 92.94506836 C17.86605303 92.94005505 20.09098951 92.93324272 22.31591797 92.92456055 C25.52312021 92.91236313 28.7302787 92.90674153 31.9375 92.90234375 C32.92427734 92.89718246 33.91105469 92.89202118 34.92773438 92.88670349 C40.39135449 92.88626465 45.59138324 93.23978181 51 94 C52.76013332 94.1198862 54.52212945 94.21660855 56.28515625 94.28125 C57.22939453 94.31863281 58.17363281 94.35601562 59.14648438 94.39453125 C60.10876953 94.42933594 61.07105469 94.46414063 62.0625 94.5 C71.0600894 94.83485171 80.00876238 95.40058416 89 96 C88.67 66.63 88.34 37.26 88 7 C59.62 6.01 31.24 5.02 2 4 Z " fill="#272727" transform="translate(207,310)"/>
<path d="M0 0 C2.31 0 4.62 0 7 0 C7.33 2.97 7.66 5.94 8 9 C5.36 9 2.72 9 0 9 C0 6.03 0 3.06 0 0 Z " fill="#5C5C5C" transform="translate(250,355)"/>
</svg>
