<?xml version="1.0" encoding="UTF-8"?>
<svg version="1.1" xmlns="http://www.w3.org/2000/svg" width="500" height="500">
<path d="M0 0 C9.55499479 0.09507458 19.08718042 1.43787211 28.57519531 2.47851562 C42.49502208 3.99479168 55.78569812 4.62172612 69.77734375 3.4140625 C75.89105655 3.00601262 82.05048604 2.90925505 88.171875 3.1875 C89.171875 4.1875 89.171875 4.1875 89.29234314 6.20626831 C89.2898909 7.10225739 89.28743866 7.99824646 89.28491211 8.92138672 C89.28399063 9.94958527 89.28306915 10.97778381 89.28211975 12.03713989 C89.27538742 13.1773056 89.26865509 14.31747131 89.26171875 15.4921875 C89.25603127 17.28376785 89.25603127 17.28376785 89.25022888 19.11154175 C89.18828387 33.62495159 89.00662639 48.13745072 88.79956055 62.64941406 C88.74336104 66.60450634 88.69362123 70.55965511 88.64515781 74.51484871 C88.60641194 77.59108366 88.56330401 80.66724589 88.51893425 83.74340439 C88.49858603 85.2050855 88.47986084 86.66679015 88.46280098 88.12851334 C88.43888149 90.14188802 88.40822415 92.15517933 88.37719727 94.16845703 C88.36165298 95.31057648 88.3461087 96.45269592 88.33009338 97.62942505 C88.171875 100.1875 88.171875 100.1875 87.171875 101.1875 C78.14601775 101.63741557 69.27749008 100.40848032 60.32284546 99.42028809 C44.64015326 97.71364995 29.66827868 96.85768054 13.90771484 98.02050781 C9.16410023 98.31005202 4.42293678 98.31760272 -0.328125 98.3125 C-1.17866455 98.31668945 -2.0292041 98.32087891 -2.90551758 98.32519531 C-8.70258414 98.31304086 -8.70258414 98.31304086 -9.828125 97.1875 C-10.40100162 88.75832179 -9.40320459 80.50970688 -8.2265625 72.1796875 C-7.89763856 69.70323098 -7.56953961 67.22666478 -7.2421875 64.75 C-6.72669765 60.91170367 -6.20482253 57.07462744 -5.66796875 53.23925781 C-2.90837274 33.62898711 -2.90837274 33.62898711 -4.27197266 13.98876953 C-4.89774261 9.71166761 -5.16561998 5.50442436 -4.828125 1.1875 C-3.828125 0.1875 -3.828125 0.1875 0 0 Z " fill="#454545" transform="translate(216.828125,51.8125)"/>
<path d="M0 0 C10.89610719 -0.54254476 22.02058225 -0.63709948 31.0625 6.375 C36.87614053 14.25154523 38.73419873 19.25387182 38 29 C36.75663075 37.0477416 32.11865615 42.82752779 26 48 C18.3320807 52.6529143 11.78155065 53.26420979 3 53 C2.56875981 46.89879232 2.14165484 40.7973139 1.71826172 34.69555664 C1.57387098 32.62288737 1.42838055 30.55029439 1.28173828 28.4777832 C1.07029758 25.48668835 0.8629057 22.49533506 0.65625 19.50390625 C0.59062866 18.58791153 0.52500732 17.67191681 0.45739746 16.72816467 C0.07589355 11.13709184 -0.05980479 5.60420691 0 0 Z " fill="#FAFAFA" transform="translate(242,74)"/>
<path d="M0 0 C9.55499479 0.09507458 19.08718042 1.43787211 28.57519531 2.47851562 C42.49502208 3.99479168 55.78569812 4.62172612 69.77734375 3.4140625 C75.89105655 3.00601262 82.05048604 2.90925505 88.171875 3.1875 C89.171875 4.1875 89.171875 4.1875 89.29234314 6.20626831 C89.2898909 7.10225739 89.28743866 7.99824646 89.28491211 8.92138672 C89.28399063 9.94958527 89.28306915 10.97778381 89.28211975 12.03713989 C89.27538742 13.1773056 89.26865509 14.31747131 89.26171875 15.4921875 C89.25603127 17.28376785 89.25603127 17.28376785 89.25022888 19.11154175 C89.18828387 33.62495159 89.00662639 48.13745072 88.79956055 62.64941406 C88.74336104 66.60450634 88.69362123 70.55965511 88.64515781 74.51484871 C88.60641194 77.59108366 88.56330401 80.66724589 88.51893425 83.74340439 C88.49858603 85.2050855 88.47986084 86.66679015 88.46280098 88.12851334 C88.43888149 90.14188802 88.40822415 92.15517933 88.37719727 94.16845703 C88.36165298 95.31057648 88.3461087 96.45269592 88.33009338 97.62942505 C88.171875 100.1875 88.171875 100.1875 87.171875 101.1875 C78.14601775 101.63741557 69.27749008 100.40848032 60.32284546 99.42028809 C44.64015326 97.71364995 29.66827868 96.85768054 13.90771484 98.02050781 C9.16410023 98.31005202 4.42293678 98.31760272 -0.328125 98.3125 C-1.17866455 98.31668945 -2.0292041 98.32087891 -2.90551758 98.32519531 C-8.70258414 98.31304086 -8.70258414 98.31304086 -9.828125 97.1875 C-10.40100162 88.75832179 -9.40320459 80.50970688 -8.2265625 72.1796875 C-7.89763856 69.70323098 -7.56953961 67.22666478 -7.2421875 64.75 C-6.72669765 60.91170367 -6.20482253 57.07462744 -5.66796875 53.23925781 C-2.90837274 33.62898711 -2.90837274 33.62898711 -4.27197266 13.98876953 C-4.89774261 9.71166761 -5.16561998 5.50442436 -4.828125 1.1875 C-3.828125 0.1875 -3.828125 0.1875 0 0 Z M-0.828125 4.1875 C-0.93341935 9.2416286 -0.74334513 14.04070229 -0.05371094 19.05957031 C0.8825982 27.89168122 -0.12727 36.77686438 -1.078125 45.5625 C-1.20872314 46.80386719 -1.33932129 48.04523438 -1.47387695 49.32421875 C-2.61676221 59.88413358 -4.02641172 70.39757567 -5.55761719 80.90771484 C-5.72293945 82.05191895 -5.88826172 83.19612305 -6.05859375 84.375 C-6.28131958 85.88126953 -6.28131958 85.88126953 -6.50854492 87.41796875 C-6.81088853 90.03812603 -6.88742444 92.5530397 -6.828125 95.1875 C-5.18457031 95.07921875 -5.18457031 95.07921875 -3.5078125 94.96875 C21.4543076 93.44985522 45.86323388 93.95837938 70.66699219 96.91210938 C75.17511212 97.26632777 79.65258622 97.24091916 84.171875 97.1875 C85.07717717 52.19098591 85.07717717 52.19098591 85.171875 7.1875 C78.89670341 7.12521386 72.64736818 7.10533975 66.3828125 7.51171875 C51.68457643 8.45362509 37.77037265 7.50106319 23.18579102 5.56713867 C16.64557062 4.7433199 10.08346626 4.029361 3.484375 4.125 C2.24107422 4.13853516 2.24107422 4.13853516 0.97265625 4.15234375 C0.08126953 4.16974609 0.08126953 4.16974609 -0.828125 4.1875 Z " fill="#282828" transform="translate(216.828125,51.8125)"/>
<path d="M0 0 C2.475 0.99 2.475 0.99 5 2 C5.3125 4.8125 5.3125 4.8125 5 8 C2.5 9.875 2.5 9.875 0 11 C0 7.37 0 3.74 0 0 Z " fill="#4D4D4D" transform="translate(259,95)"/>
</svg>
