<?xml version="1.0" encoding="UTF-8"?>
<svg version="1.1" xmlns="http://www.w3.org/2000/svg" width="500" height="500">
<path d="M0 0 C7.7439829 0.06861915 15.38547478 1.08077191 23.06954956 1.95861816 C38.89828923 3.74133888 54.00177712 4.49666836 69.92089844 3.35839844 C74.17784591 3.09588924 78.42750708 3.06095311 82.69140625 3.06640625 C83.39515381 3.0622168 84.09890137 3.05802734 84.82397461 3.05371094 C89.50321978 3.06571978 89.50321978 3.06571978 90.62890625 4.19140625 C91.07388561 13.87052526 90.38710835 23.48378082 89.62890625 33.12890625 C88.41417658 49.96867787 88.48388067 66.7820369 88.61523438 83.65795898 C88.62188614 84.68002441 88.6285379 85.70208984 88.63539124 86.75512695 C88.6490505 88.6958417 88.66745475 90.63653024 88.69114685 92.57714844 C88.6975972 93.43590576 88.70404755 94.29466309 88.71069336 95.17944336 C88.71894638 95.93341904 88.7271994 96.68739471 88.73570251 97.46421814 C88.62890625 99.19140625 88.62890625 99.19140625 87.62890625 100.19140625 C84.66120256 100.29852082 81.72215535 100.33039498 78.75390625 100.31640625 C77.3155542 100.3167688 77.3155542 100.3167688 75.84814453 100.31713867 C69.67859229 100.29268296 63.52608192 100.12496835 57.36328125 99.859375 C40.80390092 99.16999108 25.07979518 99.28607591 8.59765625 101.5 C2.95624883 102.23268604 -2.68636322 102.61157614 -8.37109375 102.19140625 C-9.37109375 101.19140625 -9.37109375 101.19140625 -9.49951172 98.84521484 C-9.45735755 86.15680971 -9.04629696 73.47914268 -8.62646484 60.79833984 C-8.49753797 56.86051703 -8.37750748 52.92248777 -8.2578125 48.984375 C-7.86238779 36.58266565 -7.33292916 24.2113411 -6.36328125 11.83984375 C-6.28071075 10.77391998 -6.19814026 9.70799622 -6.11306763 8.60977173 C-5.39257306 0.04514133 -5.39257306 0.04514133 0 0 Z " fill="#454545" transform="translate(210.37109375,307.80859375)"/>
<path d="M0 0 C12.21 0 24.42 0 37 0 C37 5.94 37 11.88 37 18 C30.07 18 23.14 18 16 18 C16 20.97 16 23.94 16 27 C19.96 27 23.92 27 28 27 C28 29.97 28 32.94 28 36 C24.04 36 20.08 36 16 36 C16 38.31 16 40.62 16 43 C22.27 43 28.54 43 35 43 C35 46.63 35 50.26 35 54 C23.78 54 12.56 54 1 54 C0.15573832 35.95390669 -0.08727154 18.06520776 0 0 Z " fill="#FAFAFA" transform="translate(233,329)"/>
<path d="M0 0 C7.7439829 0.06861915 15.38547478 1.08077191 23.06954956 1.95861816 C38.89828923 3.74133888 54.00177712 4.49666836 69.92089844 3.35839844 C74.17784591 3.09588924 78.42750708 3.06095311 82.69140625 3.06640625 C83.39515381 3.0622168 84.09890137 3.05802734 84.82397461 3.05371094 C89.50321978 3.06571978 89.50321978 3.06571978 90.62890625 4.19140625 C91.07388561 13.87052526 90.38710835 23.48378082 89.62890625 33.12890625 C88.41417658 49.96867787 88.48388067 66.7820369 88.61523438 83.65795898 C88.62188614 84.68002441 88.6285379 85.70208984 88.63539124 86.75512695 C88.6490505 88.6958417 88.66745475 90.63653024 88.69114685 92.57714844 C88.6975972 93.43590576 88.70404755 94.29466309 88.71069336 95.17944336 C88.71894638 95.93341904 88.7271994 96.68739471 88.73570251 97.46421814 C88.62890625 99.19140625 88.62890625 99.19140625 87.62890625 100.19140625 C84.66120256 100.29852082 81.72215535 100.33039498 78.75390625 100.31640625 C77.3155542 100.3167688 77.3155542 100.3167688 75.84814453 100.31713867 C69.67859229 100.29268296 63.52608192 100.12496835 57.36328125 99.859375 C40.80390092 99.16999108 25.07979518 99.28607591 8.59765625 101.5 C2.95624883 102.23268604 -2.68636322 102.61157614 -8.37109375 102.19140625 C-9.37109375 101.19140625 -9.37109375 101.19140625 -9.49951172 98.84521484 C-9.45735755 86.15680971 -9.04629696 73.47914268 -8.62646484 60.79833984 C-8.49753797 56.86051703 -8.37750748 52.92248777 -8.2578125 48.984375 C-7.86238779 36.58266565 -7.33292916 24.2113411 -6.36328125 11.83984375 C-6.28071075 10.77391998 -6.19814026 9.70799622 -6.11306763 8.60977173 C-5.39257306 0.04514133 -5.39257306 0.04514133 0 0 Z M-2.37109375 3.19140625 C-5.29184729 34.74574796 -5.66327948 66.5184732 -5.37109375 98.19140625 C0.96188089 98.30970283 7.0411962 98.00366218 13.31640625 97.19140625 C37.18233309 94.46609265 61.66688809 96.50724505 85.62890625 97.19140625 C85.62668564 96.57769669 85.62446503 95.96398712 85.62217712 95.3316803 C85.59979528 88.8572753 85.5848648 82.38288155 85.57397461 75.90844727 C85.56899206 73.50251823 85.5622036 71.09659216 85.5534668 68.69067383 C85.5105782 56.56329152 85.55179134 44.51833036 86.40844727 32.41967773 C86.92546443 24.02956773 86.70281799 15.59270695 86.62890625 7.19140625 C85.45835693 7.2071167 84.28780762 7.22282715 83.08178711 7.23901367 C60.18236499 7.51889533 37.73732924 7.28766019 14.98144531 4.55517578 C9.21038907 3.9289834 3.42138407 3.55870474 -2.37109375 3.19140625 Z " fill="#272727" transform="translate(210.37109375,307.80859375)"/>
</svg>
