<?xml version="1.0" encoding="UTF-8"?>
<svg version="1.1" xmlns="http://www.w3.org/2000/svg" width="500" height="500">
<path d="M0 0 C6.01296481 0.02461137 11.90004216 0.39948935 17.87635803 1.03981018 C19.7757681 1.22923397 21.67535365 1.4169043 23.5750885 1.6030426 C24.5618457 1.69991364 25.54860291 1.79678467 26.56526184 1.89659119 C48.12826988 3.98125781 69.26560133 4.42891002 90.89584351 3.2709198 C92.61579693 3.18671607 94.33809144 3.15261028 96.05995178 3.12965393 C96.55495178 3.62465393 96.55495178 3.62465393 97.05995178 4.12965393 C96.97228715 12.32555376 95.95057867 20.48916046 94.83338928 28.59840393 C94.72109985 29.41542786 94.60881042 30.23245178 94.49311829 31.07423401 C94.02686866 34.43739442 93.55605905 37.79968465 93.06581116 41.15943909 C91.48032321 52.10312126 90.75020135 62.08852105 92.05995178 73.12965393 C92.24460999 74.7161676 92.24460999 74.7161676 92.43299866 76.33473206 C92.80030429 79.27129352 93.20252234 82.20019402 93.62245178 85.12965393 C95.36643954 97.34567981 95.36643954 97.34567981 95.05995178 103.12965393 C93.46443688 104.72516883 91.86072701 104.31960283 89.64198303 104.34840393 C84.55886498 104.30269097 79.65457204 103.75561397 74.63417053 103.03590393 C73.85796356 102.92502441 73.08175659 102.8141449 72.2820282 102.6999054 C71.47784454 102.58487671 70.67366089 102.46984802 69.84510803 102.35133362 C49.95656566 99.51245752 30.50705547 98.67078713 10.42591858 98.96363831 C8.99417549 98.98451508 8.99417549 98.98451508 7.5335083 99.0058136 C5.7353813 99.03565307 3.93734549 99.071862 2.13949585 99.11531067 C0.11339166 99.15637695 -1.91361503 99.14844703 -3.94004822 99.12965393 C-5.78795096 97.28175119 -5.11414885 94.35585762 -5.12754822 91.87965393 C-5.11777681 86.70364416 -4.82442094 81.64919056 -4.21530151 76.51008606 C-2.51763735 61.85879866 -2.74075119 47.18992363 -2.86100769 32.46870422 C-2.89977306 27.57268089 -2.92738216 22.67659984 -2.94873047 17.7804718 C-2.96098312 15.18852089 -2.97858231 12.59658864 -3.00204468 10.00471497 C-3.01184105 8.27460175 -3.01184105 8.27460175 -3.02183533 6.50953674 C-3.03008835 5.49143921 -3.03834137 4.47334167 -3.04684448 3.4243927 C-2.91360743 0.56151885 -2.85512513 0.19080876 0 0 Z " fill="#454545" transform="translate(197.94004821777344,179.87034606933594)"/>
<path d="M0 0 C6.51613702 3.76581945 10.77207953 8.72012712 13.09375 15.90625 C14.53872637 22.16781426 13.50582112 26.9786278 11.31640625 32.859375 C11.06761719 33.54515625 10.81882812 34.2309375 10.5625 34.9375 C10.31371094 35.62328125 10.06492187 36.3090625 9.80859375 37.015625 C9.72738281 37.64984375 9.64617187 38.2840625 9.5625 38.9375 C10.3875 39.9275 11.2125 40.9175 12.0625 41.9375 C14.5625 44.9375 14.5625 44.9375 14.50390625 46.890625 C13.21832127 49.68583881 11.46840637 50.87965308 9 52.6875 C8.17371094 53.30109375 7.34742188 53.9146875 6.49609375 54.546875 C5.53896484 55.23523438 5.53896484 55.23523438 4.5625 55.9375 C3.840625 55.256875 3.11875 54.57625 2.375 53.875 C-0.23942819 51.64316072 -0.23942819 51.64316072 -3.125 52.125 C-5.42372081 52.87834453 -5.42372081 52.87834453 -7.4375 53.9375 C-16.68469228 54.74662932 -24.72685341 54.65550758 -32.4375 48.9375 C-37.73257803 44.29585713 -40.69996237 38.79978513 -41.75390625 31.8515625 C-42.25383727 22.91731132 -38.91603024 13.58958692 -33.28515625 6.69140625 C-24.26282579 -1.87313154 -11.62821024 -5.38997587 0 0 Z " fill="#FBFBFB" transform="translate(254.4375,201.0625)"/>
<path d="M0 0 C6.01296481 0.02461137 11.90004216 0.39948935 17.87635803 1.03981018 C19.7757681 1.22923397 21.67535365 1.4169043 23.5750885 1.6030426 C24.5618457 1.69991364 25.54860291 1.79678467 26.56526184 1.89659119 C48.12826988 3.98125781 69.26560133 4.42891002 90.89584351 3.2709198 C92.61579693 3.18671607 94.33809144 3.15261028 96.05995178 3.12965393 C96.55495178 3.62465393 96.55495178 3.62465393 97.05995178 4.12965393 C96.97228715 12.32555376 95.95057867 20.48916046 94.83338928 28.59840393 C94.72109985 29.41542786 94.60881042 30.23245178 94.49311829 31.07423401 C94.02686866 34.43739442 93.55605905 37.79968465 93.06581116 41.15943909 C91.48032321 52.10312126 90.75020135 62.08852105 92.05995178 73.12965393 C92.24460999 74.7161676 92.24460999 74.7161676 92.43299866 76.33473206 C92.80030429 79.27129352 93.20252234 82.20019402 93.62245178 85.12965393 C95.36643954 97.34567981 95.36643954 97.34567981 95.05995178 103.12965393 C93.46443688 104.72516883 91.86072701 104.31960283 89.64198303 104.34840393 C84.55886498 104.30269097 79.65457204 103.75561397 74.63417053 103.03590393 C73.85796356 102.92502441 73.08175659 102.8141449 72.2820282 102.6999054 C71.47784454 102.58487671 70.67366089 102.46984802 69.84510803 102.35133362 C49.95656566 99.51245752 30.50705547 98.67078713 10.42591858 98.96363831 C8.99417549 98.98451508 8.99417549 98.98451508 7.5335083 99.0058136 C5.7353813 99.03565307 3.93734549 99.071862 2.13949585 99.11531067 C0.11339166 99.15637695 -1.91361503 99.14844703 -3.94004822 99.12965393 C-5.78795096 97.28175119 -5.11414885 94.35585762 -5.12754822 91.87965393 C-5.11777681 86.70364416 -4.82442094 81.64919056 -4.21530151 76.51008606 C-2.51763735 61.85879866 -2.74075119 47.18992363 -2.86100769 32.46870422 C-2.89977306 27.57268089 -2.92738216 22.67659984 -2.94873047 17.7804718 C-2.96098312 15.18852089 -2.97858231 12.59658864 -3.00204468 10.00471497 C-3.01184105 8.27460175 -3.01184105 8.27460175 -3.02183533 6.50953674 C-3.03008835 5.49143921 -3.03834137 4.47334167 -3.04684448 3.4243927 C-2.91360743 0.56151885 -2.85512513 0.19080876 0 0 Z M0.05995178 4.12965393 C-0.00539644 13.08236029 -0.00209549 22.01577929 0.38417053 30.96168518 C1.15564469 49.44267774 0.73627897 66.98440359 -1.64268494 85.34693909 C-2.030286 88.97409588 -2.0509951 92.4861582 -1.94004822 96.12965393 C4.29802026 96.24860015 10.46040824 96.06896068 16.68495178 95.62965393 C31.7042881 94.6407191 45.63422284 95.40418287 60.51600647 97.74488831 C64.39616418 98.33175285 68.28678879 98.80522178 72.18495178 99.25465393 C72.87387512 99.33425354 73.56279846 99.41385315 74.27259827 99.49586487 C79.86064196 100.12844798 85.45517974 100.66965104 91.05995178 101.12965393 C90.64357375 93.50336148 90.08463829 86.00619623 88.99745178 78.44215393 C87.27104083 65.74092656 87.30516065 52.83462523 89.41542053 40.18824768 C90.36385786 34.48703512 90.9984906 28.74200283 91.68495178 23.00465393 C91.82006165 21.9003302 91.95517151 20.79600647 92.09437561 19.65821838 C92.21965637 18.61496399 92.34493713 17.57170959 92.47401428 16.49684143 C92.58696838 15.55953186 92.69992249 14.62222229 92.81629944 13.6565094 C93.12393842 10.88916098 93.12393842 10.88916098 93.05995178 7.12965393 C91.2149408 7.1532196 91.2149408 7.1532196 89.33265686 7.17726135 C66.33503075 7.4445136 43.53512644 7.39366226 20.62562561 5.1967926 C19.54670296 5.09348885 19.54670296 5.09348885 18.44598389 4.98809814 C16.54064241 4.80160186 14.63641265 4.60383938 12.73231506 4.40504456 C8.49658071 4.08740672 4.30469665 4.0724306 0.05995178 4.12965393 Z " fill="#282828" transform="translate(197.94004821777344,179.87034606933594)"/>
<path d="M0 0 C3.27632002 1.28203827 4.34274572 1.9753662 5.875 5.125 C6.28264153 9.03835865 6.07971165 11.81793253 3.875 15.125 C0.7917365 16.66663175 -1.73378099 16.42247535 -5.125 16.125 C-7.6889075 13.97462597 -8.05447365 12.53052654 -8.625 9.25 C-7.81571739 4.19198368 -5.58485434 0.22339417 0 0 Z " fill="#4A4A4A" transform="translate(241.125,218.875)"/>
</svg>
