<?xml version="1.0" encoding="UTF-8"?>
<svg version="1.1" xmlns="http://www.w3.org/2000/svg" width="500" height="500">
<path d="M0 0 C2.96865119 0.02859402 5.9037431 0.13215636 8.8671875 0.28515625 C10.31035843 0.35573997 10.31035843 0.35573997 11.78268433 0.42774963 C25.36446085 1.12876705 38.92946573 2.11205693 52.49267578 3.10180664 C56.39892877 3.38642013 60.30586714 3.66021585 64.21304512 3.93179226 C67.25204382 4.1448723 70.29045899 4.36551392 73.32876205 4.588274 C74.77103602 4.69273203 76.2135157 4.79439097 77.65619278 4.89312553 C79.65563957 5.03068733 81.65426802 5.179992 83.65283203 5.32983398 C84.78560577 5.41120102 85.91837952 5.49256805 87.08547974 5.57640076 C89.83624395 5.97619953 91.63354878 6.58583628 94 8 C94.27794008 16.77055351 93.7858137 25.33273815 93 34.0625 C91.81659736 47.48054409 92.0427519 60.51040396 92.6394043 73.95336914 C93.38070645 91.10593976 93.38070645 91.10593976 93 99 C91.30771229 100.69228771 89.2440432 100.15166623 86.91796875 100.15625 C75.31082985 100.06760964 63.72663546 99.08100233 52.15161133 98.28173828 C41.72226095 97.56694404 31.31317146 96.86718753 20.85546875 96.84375 C19.78344963 96.83970154 19.78344963 96.83970154 18.68977356 96.83557129 C14.69166784 96.86334157 10.92613045 97.26596243 7 98 C5.39751715 98.08447196 3.79219839 98.13046746 2.1875 98.125 C1.41792969 98.12757813 0.64835938 98.13015625 -0.14453125 98.1328125 C-2 98 -2 98 -3 97 C-3.36149376 89.31294151 -3.06081909 81.58248346 -2.65881348 73.90190125 C-1.80100293 57.49414749 -1.66007741 41.07333507 -1.44775391 24.6472168 C-1.39724199 20.7686406 -1.33912136 16.89019214 -1.28125 13.01171875 C-1.26767456 11.81721603 -1.25409912 10.62271332 -1.2401123 9.39201355 C-1.22339478 8.30189468 -1.20667725 7.21177582 -1.18945312 6.08862305 C-1.17692505 5.1268364 -1.16439697 4.16504974 -1.15148926 3.17411804 C-1 1 -1 1 0 0 Z " fill="#454545" transform="translate(211,161)"/>
<path d="M0 0 C0.495 0.495 0.495 0.495 1 1 C0.47494539 6.14553517 -0.6875664 11.01275232 -2 16 C-7.75 16.125 -7.75 16.125 -10 15 C-12.3329866 14.95977609 -14.66706666 14.95679753 -17 15 C-16.67 15.99 -16.34 16.98 -16 18 C-13.15076 19.29707466 -13.15076 19.29707466 -9.75 20.375 C-4.58425365 22.24418453 -1.36209803 23.67730254 2 28 C2.33 28.33 2.66 28.66 3 29 C3.56413803 33.91077532 3.53619485 37.88636453 1.375 42.375 C-1.64648835 45.71453976 -4.51292846 48.58739563 -9.12207031 49.35205078 C-11.53093986 49.4659079 -13.90218676 49.44740467 -16.3125 49.375 C-17.11623047 49.37371094 -17.91996094 49.37242187 -18.74804688 49.37109375 C-24.37263167 49.28964361 -29.56296876 48.41693812 -35 47 C-34.49383532 41.43291263 -33.70233051 36.33396892 -32 31 C-27.38 31.66 -22.76 32.32 -18 33 C-18.33 32.01 -18.66 31.02 -19 30 C-21.62057951 28.7431452 -21.62057951 28.7431452 -24.75 27.6875 C-30.18144375 25.50199049 -33.23603198 24.23179661 -36 19 C-36.89057506 13.99153659 -36.58718143 10.21953066 -34.375 5.625 C-25.32069429 -4.38239052 -12.18803754 -3.50054747 0 0 Z " fill="#FAFAFA" transform="translate(274,187)"/>
<path d="M0 0 C2.96865119 0.02859402 5.9037431 0.13215636 8.8671875 0.28515625 C10.31035843 0.35573997 10.31035843 0.35573997 11.78268433 0.42774963 C25.36446085 1.12876705 38.92946573 2.11205693 52.49267578 3.10180664 C56.39892877 3.38642013 60.30586714 3.66021585 64.21304512 3.93179226 C67.25204382 4.1448723 70.29045899 4.36551392 73.32876205 4.588274 C74.77103602 4.69273203 76.2135157 4.79439097 77.65619278 4.89312553 C79.65563957 5.03068733 81.65426802 5.179992 83.65283203 5.32983398 C84.78560577 5.41120102 85.91837952 5.49256805 87.08547974 5.57640076 C89.83624395 5.97619953 91.63354878 6.58583628 94 8 C94.27794008 16.77055351 93.7858137 25.33273815 93 34.0625 C91.81659736 47.48054409 92.0427519 60.51040396 92.6394043 73.95336914 C93.38070645 91.10593976 93.38070645 91.10593976 93 99 C91.30771229 100.69228771 89.2440432 100.15166623 86.91796875 100.15625 C75.31082985 100.06760964 63.72663546 99.08100233 52.15161133 98.28173828 C41.72226095 97.56694404 31.31317146 96.86718753 20.85546875 96.84375 C19.78344963 96.83970154 19.78344963 96.83970154 18.68977356 96.83557129 C14.69166784 96.86334157 10.92613045 97.26596243 7 98 C5.39751715 98.08447196 3.79219839 98.13046746 2.1875 98.125 C1.41792969 98.12757813 0.64835938 98.13015625 -0.14453125 98.1328125 C-2 98 -2 98 -3 97 C-3.36149376 89.31294151 -3.06081909 81.58248346 -2.65881348 73.90190125 C-1.80100293 57.49414749 -1.66007741 41.07333507 -1.44775391 24.6472168 C-1.39724199 20.7686406 -1.33912136 16.89019214 -1.28125 13.01171875 C-1.26767456 11.81721603 -1.25409912 10.62271332 -1.2401123 9.39201355 C-1.22339478 8.30189468 -1.20667725 7.21177582 -1.18945312 6.08862305 C-1.17692505 5.1268364 -1.16439697 4.16504974 -1.15148926 3.17411804 C-1 1 -1 1 0 0 Z M2 4 C1.98969254 4.54884857 1.97938507 5.09769714 1.96876526 5.66317749 C1.85900624 11.47279842 1.74458789 17.2823154 1.62768555 23.09179688 C1.5848688 25.24834987 1.5431672 27.40492535 1.50268555 29.56152344 C1.29319335 40.68271396 1.01713923 51.77763184 0.33377075 62.8805542 C-0.05964193 69.46464044 -0.11555686 76.02962442 -0.0625 82.625 C-0.05798828 83.73617187 -0.05347656 84.84734375 -0.04882812 85.9921875 C-0.03732237 88.66152252 -0.02108175 91.33072659 0 94 C1.12921875 93.89171875 1.12921875 93.89171875 2.28125 93.78125 C19.22587365 92.30065182 35.75068217 93.35933851 52.65209961 94.71826172 C64.46571936 95.6585751 76.14771837 96.20986088 88 96 C87.99555878 95.32222504 87.99111755 94.64445007 87.98654175 93.94613647 C87.94588172 87.4484736 87.9157271 80.95084797 87.89637566 74.45308495 C87.88609136 71.11529256 87.87107178 67.77768888 87.84912109 64.43994141 C87.75434426 49.63803015 87.94771166 35.05326782 89.56689453 20.33056641 C89.9456184 16.87033526 90.08975831 13.48502543 90 10 C75.31536931 8.28354347 60.63312151 7.27648303 45.875 6.4375 C42.59999941 6.24902294 39.32508997 6.05921771 36.05032349 5.86671448 C34.03474202 5.74843899 32.01902153 5.63249895 30.00314331 5.51939392 C25.81565643 5.27547757 21.66661952 4.98174779 17.50439453 4.45727539 C12.34012817 3.83722837 7.19348717 3.91263293 2 4 Z " fill="#282828" transform="translate(211,161)"/>
</svg>
