<?xml version="1.0" encoding="UTF-8"?>
<svg version="1.1" xmlns="http://www.w3.org/2000/svg" width="500" height="500">
<path d="M0 0 C1.03693497 0.00080566 2.07386993 0.00161133 3.14222717 0.00244141 C4.24518631 0.00324707 5.34814545 0.00405273 6.48452759 0.00488281 C16.33344809 0.07324115 26.14555954 0.52711051 35.97816467 1.06494141 C37.18353095 1.13063544 37.18353095 1.13063544 38.41324806 1.19765663 C41.77776642 1.38166807 45.14219983 1.56717746 48.50657749 1.75374317 C72.72862679 3.09604239 96.9184092 4.4200728 121.18519592 4.20947266 C122.38810178 4.19908525 122.38810178 4.19908525 123.61530876 4.18848801 C129.90656083 4.13017166 136.19755088 4.05131438 142.48859024 3.97390747 C167.64221078 3.6783204 191.58367973 5.58750728 216.39044189 10.11064148 C227.64084158 12.09943671 237.88123104 10.98996774 249.10707092 9.18994141 C265.84674888 6.52312511 265.84674888 6.52312511 272.98207092 7.18994141 C273.98207092 8.18994141 273.98207092 8.18994141 274.17347717 12.07666016 C274.10885696 18.70669354 273.26272912 25.24065 272.50843811 31.8190918 C270.4930748 49.41371627 269.73675007 66.19505954 270.81507874 83.90332031 C271.09511249 89.41474492 271.11224961 94.92248015 271.10707092 100.43994141 C271.11126038 101.41777588 271.11544983 102.39561035 271.11976624 103.40307617 C271.11815491 104.28664795 271.11654358 105.17021973 271.11488342 106.08056641 C271.11375549 106.85432617 271.11262756 107.62808594 271.11146545 108.42529297 C270.98207092 110.18994141 270.98207092 110.18994141 269.98207092 111.18994141 C267.6083428 111.30585019 265.27430488 111.35319345 262.90003967 111.34326172 C262.18019394 111.34119343 261.46034821 111.33912514 260.71868896 111.33699417 C253.8911172 111.26863191 247.14731518 110.68770241 240.35943794 109.95715714 C236.69419792 109.56604156 233.02532216 109.2115958 229.35682678 108.85253906 C228.5940766 108.7774581 227.83132643 108.70237713 227.04546261 108.62502098 C200.66396099 106.03888363 175.69579196 104.31429244 149.35923767 108.41969299 C133.37703071 110.72156432 116.72837525 109.10648502 100.66419983 108.39257812 C83.49008902 107.63625316 66.32697343 107.11285806 49.13832092 106.90478516 C48.34211838 106.89493151 47.54591583 106.88507786 46.72558594 106.87492561 C38.79076971 106.77786566 30.85599644 106.69399308 22.920784 106.63748264 C19.95439112 106.61473268 16.98810053 106.58460231 14.02178955 106.55305672 C12.63486575 106.54028059 11.24790365 106.53109203 9.8609314 106.52572441 C7.95203813 106.51825986 6.04320809 106.49795288 4.13441467 106.47705078 C3.06183411 106.46975952 1.98925354 106.46246826 0.88417053 106.45495605 C-2.10449598 106.18203627 -4.3084616 105.44774093 -7.01792908 104.18994141 C-6.8754925 100.96061566 -6.72893212 97.73149382 -6.58042908 94.50244141 C-6.51384094 93.05140015 -6.51384094 93.05140015 -6.44590759 91.57104492 C-6.20836345 86.57760815 -5.91281883 81.60645561 -5.45542908 76.62744141 C-4.174572 59.99729707 -5.39664313 43.67769737 -6.95054626 27.11938477 C-8.56593155 9.65818095 -8.56593155 9.65818095 -8.01792908 1.18994141 C-6.08090674 -0.74708093 -2.5984193 0.02037011 0 0 Z " fill="#454545" transform="translate(149.01792907714844,177.81005859375)"/>
<path d="M0 0 C1.03693497 0.00080566 2.07386993 0.00161133 3.14222717 0.00244141 C4.24518631 0.00324707 5.34814545 0.00405273 6.48452759 0.00488281 C16.33344809 0.07324115 26.14555954 0.52711051 35.97816467 1.06494141 C37.18353095 1.13063544 37.18353095 1.13063544 38.41324806 1.19765663 C41.77776642 1.38166807 45.14219983 1.56717746 48.50657749 1.75374317 C72.72862679 3.09604239 96.9184092 4.4200728 121.18519592 4.20947266 C122.38810178 4.19908525 122.38810178 4.19908525 123.61530876 4.18848801 C129.90656083 4.13017166 136.19755088 4.05131438 142.48859024 3.97390747 C167.64221078 3.6783204 191.58367973 5.58750728 216.39044189 10.11064148 C227.64084158 12.09943671 237.88123104 10.98996774 249.10707092 9.18994141 C265.84674888 6.52312511 265.84674888 6.52312511 272.98207092 7.18994141 C273.98207092 8.18994141 273.98207092 8.18994141 274.17347717 12.07666016 C274.10885696 18.70669354 273.26272912 25.24065 272.50843811 31.8190918 C270.4930748 49.41371627 269.73675007 66.19505954 270.81507874 83.90332031 C271.09511249 89.41474492 271.11224961 94.92248015 271.10707092 100.43994141 C271.11126038 101.41777588 271.11544983 102.39561035 271.11976624 103.40307617 C271.11815491 104.28664795 271.11654358 105.17021973 271.11488342 106.08056641 C271.11375549 106.85432617 271.11262756 107.62808594 271.11146545 108.42529297 C270.98207092 110.18994141 270.98207092 110.18994141 269.98207092 111.18994141 C267.6083428 111.30585019 265.27430488 111.35319345 262.90003967 111.34326172 C262.18019394 111.34119343 261.46034821 111.33912514 260.71868896 111.33699417 C253.8911172 111.26863191 247.14731518 110.68770241 240.35943794 109.95715714 C236.69419792 109.56604156 233.02532216 109.2115958 229.35682678 108.85253906 C228.5940766 108.7774581 227.83132643 108.70237713 227.04546261 108.62502098 C200.66396099 106.03888363 175.69579196 104.31429244 149.35923767 108.41969299 C133.37703071 110.72156432 116.72837525 109.10648502 100.66419983 108.39257812 C83.49008902 107.63625316 66.32697343 107.11285806 49.13832092 106.90478516 C48.34211838 106.89493151 47.54591583 106.88507786 46.72558594 106.87492561 C38.79076971 106.77786566 30.85599644 106.69399308 22.920784 106.63748264 C19.95439112 106.61473268 16.98810053 106.58460231 14.02178955 106.55305672 C12.63486575 106.54028059 11.24790365 106.53109203 9.8609314 106.52572441 C7.95203813 106.51825986 6.04320809 106.49795288 4.13441467 106.47705078 C3.06183411 106.46975952 1.98925354 106.46246826 0.88417053 106.45495605 C-2.10449598 106.18203627 -4.3084616 105.44774093 -7.01792908 104.18994141 C-6.8754925 100.96061566 -6.72893212 97.73149382 -6.58042908 94.50244141 C-6.51384094 93.05140015 -6.51384094 93.05140015 -6.44590759 91.57104492 C-6.20836345 86.57760815 -5.91281883 81.60645561 -5.45542908 76.62744141 C-4.174572 59.99729707 -5.39664313 43.67769737 -6.95054626 27.11938477 C-8.56593155 9.65818095 -8.56593155 9.65818095 -8.01792908 1.18994141 C-6.08090674 -0.74708093 -2.5984193 0.02037011 0 0 Z M-4.01792908 3.18994141 C-4.20338333 14.3987963 -3.80117288 25.35694223 -2.67796326 36.50790405 C-1.01150033 53.31628061 -0.46791585 69.86222011 -2.56480408 86.67822266 C-2.97541968 90.12685002 -3.06509525 93.49957483 -3.04624939 96.97192383 C-3.04216064 97.95215012 -3.0380719 98.9323764 -3.03385925 99.94230652 C-3.02860229 100.68402603 -3.02334534 101.42574554 -3.01792908 102.18994141 C-1.94300201 102.20207169 -1.94300201 102.20207169 -0.84635925 102.21444702 C8.34661027 102.3199811 17.53937395 102.43808464 26.73207092 102.56494141 C27.84310558 102.58018923 27.84310558 102.58018923 28.97658539 102.59574509 C47.78782063 102.85669739 66.56743839 103.26222698 85.35707092 104.25244141 C113.92728141 105.72311411 142.58755441 106.72229815 171.00160217 102.84619141 C183.12569973 101.329553 195.18794873 102.38482104 207.29457092 103.50244141 C208.81193585 103.63753066 210.32935242 103.77204083 211.84681702 103.90600586 C218.89630023 104.53176114 225.94324812 105.18461126 232.98974609 105.84303284 C235.25167171 106.05421774 237.51371272 106.26413021 239.77577209 106.47387695 C242.59550934 106.73538532 245.41455008 107.0031341 248.23329163 107.27514648 C254.85066339 107.89572019 261.33556378 108.34265109 267.98207092 108.18994141 C267.95177795 107.33577637 267.92148499 106.48161133 267.89027405 105.6015625 C267.57083207 96.44709247 267.28608366 87.29206967 267.036026 78.13543701 C266.98868515 76.428435 266.93781315 74.72153168 266.8863678 73.01464844 C266.52534451 59.94143974 267.48128179 47.12908634 268.91468811 34.14672852 C269.75210857 26.45330099 270.17621906 18.92890199 269.98207092 11.18994141 C260.79802568 10.81342823 252.09331761 12.2698131 243.0582428 13.76806641 C232.70780453 15.41006228 223.90238025 15.66630271 213.57972717 13.69384766 C184.63289762 8.20300857 156.38097324 7.55699412 127.03351498 7.48111534 C122.4746824 7.4685366 117.91587738 7.45201066 113.35707092 7.43212891 C112.44478289 7.42833347 111.53249485 7.42453804 110.59256172 7.42062759 C85.60809571 7.29578645 60.68941627 5.93151125 35.7481842 4.56030273 C34.92518703 4.51530514 34.10218987 4.47030754 33.25425339 4.42394638 C29.42675923 4.21425973 25.599652 4.00035353 21.77308655 3.77432251 C13.16121392 3.2779745 4.60771708 3.08787929 -4.01792908 3.18994141 Z " fill="#282828" transform="translate(149.01792907714844,177.81005859375)"/>
<path d="M0 0 C7.26 0 14.52 0 22 0 C23.49348527 3.73371318 24.61381113 7.07577823 25.5859375 10.9375 C25.87726563 12.08089844 26.16859375 13.22429687 26.46875 14.40234375 C26.7678125 15.58957031 27.066875 16.77679688 27.375 18 C29.42743769 26.14617966 31.61047983 34.18271492 34.25244141 42.16015625 C35 45 35 45 35 50 C30.38 50 25.76 50 21 50 C20.67 47.03 20.34 44.06 20 41 C16.37 41 12.74 41 9 41 C9 43.97 9 46.94 9 50 C2.73 50 -3.54 50 -10 50 C-9.45796065 39.30704195 -6.90846256 29.18791106 -4.4375 18.8125 C-4.00778097 16.98388423 -3.57873884 15.15510924 -3.15039062 13.32617188 C-2.10929767 8.88189307 -1.05439165 4.44122544 0 0 Z " fill="#FAFAFA" transform="translate(266,204)"/>
<path d="M0 0 C3.43936493 3.52534905 4.82002434 6.20024338 5.3125 11.125 C4.82439992 17.17744101 2.8855748 22.06480482 -1.375 26.4375 C-6.52227117 29.50135189 -9.91861513 30 -16 30 C-16 35.94 -16 41.88 -16 48 C-22.27 48 -28.54 48 -35 48 C-35 31.17 -35 14.34 -35 -3 C-8.5100069 -6.31124914 -8.5100069 -6.31124914 0 0 Z " fill="#F9F9F9" transform="translate(255,206)"/>
<path d="M0 0 C-0.11674901 1.35490296 -0.24393423 2.70890696 -0.375 4.0625 C-0.44460937 4.81660156 -0.51421875 5.57070312 -0.5859375 6.34765625 C-1.09749423 9.62451493 -2.08887409 12.81105932 -3 16 C-8.28 15.34 -13.56 14.68 -19 14 C-18.67 14.99 -18.34 15.98 -18 17 C-14.70558125 18.57089798 -11.39413368 19.91165267 -7.99023438 21.21875 C-3.46607208 23.05656158 -0.58900999 24.64272288 2 29 C2.954439 33.32127892 2.29045007 37.18979717 0.8125 41.3125 C-1.5582219 44.82770834 -4.21280762 47.10640381 -8 49 C-10.99358061 49.23992194 -13.99784197 49.18977846 -17 49.1875 C-17.85762939 49.18814453 -18.71525879 49.18878906 -19.59887695 49.18945312 C-25.63733241 49.13910883 -31.13874962 48.53737715 -37 47 C-36.01 42.05 -35.02 37.1 -34 32 C-30.44287899 31.11071975 -28.84280696 30.96778033 -25.375 31.4375 C-22.19673543 31.86023504 -22.19673543 31.86023504 -19 32 C-19 31.01 -19 30.02 -19 29 C-20.08667969 28.76216797 -20.08667969 28.76216797 -21.1953125 28.51953125 C-28.27729184 26.81041357 -32.95307725 25.15489466 -37.375 19.125 C-38.73877754 14.48815636 -38.56847791 10.56871743 -36.3125 6.3125 C-27.93430285 -6.7986436 -12.80819003 -3.75528085 0 0 Z " fill="#F9F9F9" transform="translate(216,205)"/>
<path d="M0 0 C11.22 0 22.44 0 34 0 C34 5.28 34 10.56 34 16 C27.4 16 20.8 16 14 16 C14 18.97 14 21.94 14 25 C17.96 25 21.92 25 26 25 C26 27.64 26 30.28 26 33 C22.37 33 18.74 33 15 33 C15 35.31 15 37.62 15 40 C20.61 40 26.22 40 32 40 C32 43.3 32 46.6 32 50 C21.44 50 10.88 50 0 50 C0 33.5 0 17 0 0 Z " fill="#FCFCFC" transform="translate(344,204)"/>
<path d="M0 0 C1.07314453 0.0009668 1.07314453 0.0009668 2.16796875 0.00195312 C5.32659104 0.02852098 7.85930662 0.18226887 10.875 1.1875 C9.8068153 6.30115014 8.64392524 11.25977969 6.875 16.1875 C5.87919922 16.11789063 5.87919922 16.11789063 4.86328125 16.046875 C-0.89135783 15.78356782 -0.89135783 15.78356782 -6.125 17.9375 C-9.2171765 21.41619857 -10.40658487 24.08333558 -10.375 28.75 C-10.38015625 29.51441406 -10.3853125 30.27882812 -10.390625 31.06640625 C-10.2479561 33.48732762 -10.2479561 33.48732762 -8.125 36.1875 C-1.91992459 36.91142546 0.81117021 36.04565603 5.875 32.1875 C6.535 32.1875 7.195 32.1875 7.875 32.1875 C9.41796875 34.26953125 9.41796875 34.26953125 11.0625 37 C11.61292969 37.89332031 12.16335938 38.78664062 12.73046875 39.70703125 C13.875 42.1875 13.875 42.1875 12.875 45.1875 C10.94921875 46.5390625 10.94921875 46.5390625 8.5625 47.8125 C7.39267578 48.45058594 7.39267578 48.45058594 6.19921875 49.1015625 C0.36250964 51.82862995 -5.78370749 51.79183794 -12.125 51.1875 C-17.67505007 48.56383997 -21.86636851 44.21704808 -24.23828125 38.5078125 C-26.40000053 30.41326896 -26.63110922 20.2124219 -23.0625 12.5 C-17.55160009 3.3359823 -10.56281905 -0.18278102 0 0 Z " fill="#FAFAFA" transform="translate(328.125,202.8125)"/>
<path d="M0 0 C1.98 0.66 3.96 1.32 6 2 C5.67 4.31 5.34 6.62 5 9 C3.35 9.66 1.7 10.32 0 11 C0 7.37 0 3.74 0 0 Z " fill="#4B4B4B" transform="translate(238,212)"/>
<path d="M0 0 C1.98 0 3.96 0 6 0 C6.33 2.31 6.66 4.62 7 7 C4.36 7 1.72 7 -1 7 C-0.67 4.69 -0.34 2.38 0 0 Z " fill="#484848" transform="translate(277,228)"/>
</svg>
