<?xml version="1.0" encoding="UTF-8"?>
<svg version="1.1" xmlns="http://www.w3.org/2000/svg" width="500" height="500">
<path d="M0 0 C9.3000485 0.02618006 18.56085701 0.59436282 27.84057617 1.15707397 C29.63370591 1.26441351 31.42683746 1.37172297 33.2199707 1.47900391 C36.95515442 1.70347945 40.69014489 1.93092311 44.42504883 2.16000366 C49.21399903 2.453117 54.00355584 2.73468779 58.79335022 3.01361656 C62.48595776 3.23060077 66.17804111 3.45565494 69.87002563 3.68297195 C71.63691449 3.79039384 73.40398812 3.89482001 75.17123413 3.99619675 C77.63193507 4.13815662 80.09167862 4.29144447 82.55151367 4.44760132 C83.28085617 4.48716446 84.01019867 4.5267276 84.76164246 4.56748962 C88.3590961 4.808225 90.08067865 5.08537146 93.15307617 7.13363647 C93.50059509 9.6018219 93.50059509 9.6018219 93.46142578 12.75546265 C93.4503756 14.52630974 93.4503756 14.52630974 93.43910217 16.33293152 C93.40386696 18.2664875 93.40386696 18.2664875 93.36791992 20.23910522 C93.35370179 21.5901819 93.34077995 22.94127277 93.3290863 24.29237366 C93.29455855 27.85792446 93.24179577 31.42298332 93.18520355 34.9882431 C93.13371206 38.42672777 93.09950998 41.8653694 93.0637207 45.30404663 C92.99060153 52.00439276 92.89079625 58.70406505 92.78076172 65.40390015 C92.72419906 68.85108018 92.67459133 72.29832781 92.62635899 75.74563313 C92.57842896 79.07946711 92.5235476 82.41317762 92.46948242 85.74691772 C92.45276993 86.98194534 92.43605743 88.21697296 92.4188385 89.48942566 C92.39889328 90.61378525 92.37894806 91.73814484 92.35839844 92.89657593 C92.34285416 93.88752762 92.32730988 94.87847931 92.31129456 95.89945984 C92.15307617 98.13363647 92.15307617 98.13363647 91.15307617 99.13363647 C82.42530071 99.64607729 73.86947763 98.76859938 65.21557617 97.75863647 C47.15143518 95.8003199 29.02410212 95.33547143 10.87207031 94.78060913 C9.70977402 94.74377014 8.54747772 94.70693115 7.34996033 94.66897583 C5.13596055 94.59970048 2.92181305 94.53496502 0.70753479 94.47525024 C-0.27449417 94.44485657 -1.25652313 94.41446289 -2.26831055 94.38314819 C-3.13189178 94.35888763 -3.99547302 94.33462708 -4.88522339 94.30963135 C-6.84692383 94.13363647 -6.84692383 94.13363647 -7.84692383 93.13363647 C-8.19741266 86.28791837 -7.35327443 79.70263503 -6.47509766 72.92391968 C-4.02902478 53.98393195 -3.29429855 35.19807026 -3.08740234 16.10971069 C-3.07594177 15.12007828 -3.0644812 14.13044586 -3.05267334 13.11082458 C-3.03307951 11.2383464 -3.01881863 9.36580284 -3.01055908 7.49324036 C-2.94718185 0.21324701 -2.94718185 0.21324701 0 0 Z " fill="#454545" transform="translate(224.846923828125,195.86636352539063)"/>
<path d="M0 0 C16.83 0 33.66 0 51 0 C51 6.27 51 12.54 51 19 C45.39 19 39.78 19 34 19 C34 30.55 34 42.1 34 54 C27.4 54 20.8 54 14 54 C14.96355353 29.80865604 14.96355353 29.80865604 16 19 C10.72 19 5.44 19 0 19 C0 12.73 0 6.46 0 0 Z " fill="#FDFDFD" transform="translate(244,217)"/>
<path d="M0 0 C9.3000485 0.02618006 18.56085701 0.59436282 27.84057617 1.15707397 C29.63370591 1.26441351 31.42683746 1.37172297 33.2199707 1.47900391 C36.95515442 1.70347945 40.69014489 1.93092311 44.42504883 2.16000366 C49.21399903 2.453117 54.00355584 2.73468779 58.79335022 3.01361656 C62.48595776 3.23060077 66.17804111 3.45565494 69.87002563 3.68297195 C71.63691449 3.79039384 73.40398812 3.89482001 75.17123413 3.99619675 C77.63193507 4.13815662 80.09167862 4.29144447 82.55151367 4.44760132 C83.28085617 4.48716446 84.01019867 4.5267276 84.76164246 4.56748962 C88.3590961 4.808225 90.08067865 5.08537146 93.15307617 7.13363647 C93.50059509 9.6018219 93.50059509 9.6018219 93.46142578 12.75546265 C93.4503756 14.52630974 93.4503756 14.52630974 93.43910217 16.33293152 C93.40386696 18.2664875 93.40386696 18.2664875 93.36791992 20.23910522 C93.35370179 21.5901819 93.34077995 22.94127277 93.3290863 24.29237366 C93.29455855 27.85792446 93.24179577 31.42298332 93.18520355 34.9882431 C93.13371206 38.42672777 93.09950998 41.8653694 93.0637207 45.30404663 C92.99060153 52.00439276 92.89079625 58.70406505 92.78076172 65.40390015 C92.72419906 68.85108018 92.67459133 72.29832781 92.62635899 75.74563313 C92.57842896 79.07946711 92.5235476 82.41317762 92.46948242 85.74691772 C92.45276993 86.98194534 92.43605743 88.21697296 92.4188385 89.48942566 C92.39889328 90.61378525 92.37894806 91.73814484 92.35839844 92.89657593 C92.34285416 93.88752762 92.32730988 94.87847931 92.31129456 95.89945984 C92.15307617 98.13363647 92.15307617 98.13363647 91.15307617 99.13363647 C82.42530071 99.64607729 73.86947763 98.76859938 65.21557617 97.75863647 C47.15143518 95.8003199 29.02410212 95.33547143 10.87207031 94.78060913 C9.70977402 94.74377014 8.54747772 94.70693115 7.34996033 94.66897583 C5.13596055 94.59970048 2.92181305 94.53496502 0.70753479 94.47525024 C-0.27449417 94.44485657 -1.25652313 94.41446289 -2.26831055 94.38314819 C-3.13189178 94.35888763 -3.99547302 94.33462708 -4.88522339 94.30963135 C-6.84692383 94.13363647 -6.84692383 94.13363647 -7.84692383 93.13363647 C-8.19741266 86.28791837 -7.35327443 79.70263503 -6.47509766 72.92391968 C-4.02902478 53.98393195 -3.29429855 35.19807026 -3.08740234 16.10971069 C-3.07594177 15.12007828 -3.0644812 14.13044586 -3.05267334 13.11082458 C-3.03307951 11.2383464 -3.01881863 9.36580284 -3.01055908 7.49324036 C-2.94718185 0.21324701 -2.94718185 0.21324701 0 0 Z M1.15307617 4.13363647 C1.13849365 5.35131714 1.12391113 6.5689978 1.10888672 7.82357788 C0.57772677 48.99550685 0.57772677 48.99550685 -1.75366211 63.01742554 C-3.3032027 72.3377106 -3.56726077 81.70224097 -3.84692383 91.13363647 C-2.23974487 91.1712207 -2.23974487 91.1712207 -0.60009766 91.20956421 C29.50698873 91.91995256 59.07064373 93.39886989 89.15307617 96.13363647 C89.15307617 67.42363647 89.15307617 38.71363647 89.15307617 9.13363647 C86.29802332 8.18195219 84.19661408 7.92264436 81.21704102 7.7605896 C80.21103851 7.70383057 79.20503601 7.64707153 78.16854858 7.58859253 C77.07805206 7.53126953 75.98755554 7.47394653 74.86401367 7.41488647 C73.73218658 7.35208496 72.6003595 7.28928345 71.43423462 7.22457886 C67.79904962 7.02371473 64.1635846 6.82855055 60.52807617 6.63363647 C56.9526956 6.43795686 53.37737925 6.24113154 49.80206299 6.04428101 C47.47184207 5.91654201 45.14156014 5.78991106 42.81121826 5.66439819 C37.9319311 5.40112257 33.05360539 5.13436774 28.17749023 4.81723022 C19.1478355 4.23169499 10.19858091 4.01513641 1.15307617 4.13363647 Z " fill="#282828" transform="translate(224.846923828125,195.86636352539063)"/>
</svg>
