<?xml version="1.0" encoding="UTF-8"?>
<svg version="1.1" xmlns="http://www.w3.org/2000/svg" width="500" height="500">
<path d="M0 0 C3.05436758 0.01291487 6.0751171 0.10816294 9.125 0.25 C10.14400391 0.29374756 11.16300781 0.33749512 12.21289062 0.38256836 C19.885882 0.73918659 27.5472693 1.22258913 35.2109375 1.73828125 C69.78494031 4.30230092 69.78494031 4.30230092 104.38671875 3.234375 C122.19701531 2.07911252 140.43944609 2.60510165 158 6 C159.79181584 7.79181584 159.16806135 10.39411601 159.1796875 12.81640625 C159.11729219 21.33766867 158.27669206 29.7405501 157.40444946 38.21124268 C155.59464448 55.86736568 154.34204865 73.49424027 153.59619141 91.22631836 C153.56177444 92.01516922 153.52735748 92.80402008 153.49189758 93.61677551 C153.42857385 95.09052844 153.36972666 96.56448287 153.31608582 98.03862 C153.11103586 102.88896414 153.11103586 102.88896414 152 104 C145.40989339 104.44860517 138.86134384 103.79481227 132.32421875 103.01171875 C130.44674913 102.79860339 128.56922378 102.5859785 126.69165039 102.3737793 C125.71342316 102.26158051 124.73519592 102.14938171 123.72732544 102.03378296 C106.03047987 100.01783955 88.33519009 98.36180425 70.5625 97.1875 C69.17410416 97.09316177 69.17410416 97.09316177 67.75765991 96.99691772 C51.36329691 95.89524787 35.4935791 95.55469777 19.125 97.5 C1.54220241 99.5500951 1.54220241 99.5500951 -5 99 C-6 98 -6 98 -6.00415039 95.91333008 C-5.04648508 82.9853822 -2.88859774 70.20401785 -0.93579102 57.3972168 C-0.45101263 54.20693151 0.0267147 51.01564628 0.50390625 47.82421875 C0.65388565 46.85634933 0.80386505 45.88847992 0.95838928 44.89128113 C1.97332348 38.08318572 2.66705536 31.46140745 1.34375 24.6328125 C1.20807617 23.89667725 1.07240234 23.16054199 0.93261719 22.40209961 C0.78985352 21.65065674 0.64708984 20.89921387 0.5 20.125 C-0.65648739 13.65465246 -1.4188372 7.59668587 -1 1 C-0.67 0.67 -0.34 0.34 0 0 Z " fill="#454545" transform="translate(149,180)"/>
<path d="M0 0 C3.05436758 0.01291487 6.0751171 0.10816294 9.125 0.25 C10.14400391 0.29374756 11.16300781 0.33749512 12.21289062 0.38256836 C19.885882 0.73918659 27.5472693 1.22258913 35.2109375 1.73828125 C69.78494031 4.30230092 69.78494031 4.30230092 104.38671875 3.234375 C122.19701531 2.07911252 140.43944609 2.60510165 158 6 C159.79181584 7.79181584 159.16806135 10.39411601 159.1796875 12.81640625 C159.11729219 21.33766867 158.27669206 29.7405501 157.40444946 38.21124268 C155.59464448 55.86736568 154.34204865 73.49424027 153.59619141 91.22631836 C153.56177444 92.01516922 153.52735748 92.80402008 153.49189758 93.61677551 C153.42857385 95.09052844 153.36972666 96.56448287 153.31608582 98.03862 C153.11103586 102.88896414 153.11103586 102.88896414 152 104 C145.40989339 104.44860517 138.86134384 103.79481227 132.32421875 103.01171875 C130.44674913 102.79860339 128.56922378 102.5859785 126.69165039 102.3737793 C125.71342316 102.26158051 124.73519592 102.14938171 123.72732544 102.03378296 C106.03047987 100.01783955 88.33519009 98.36180425 70.5625 97.1875 C69.17410416 97.09316177 69.17410416 97.09316177 67.75765991 96.99691772 C51.36329691 95.89524787 35.4935791 95.55469777 19.125 97.5 C1.54220241 99.5500951 1.54220241 99.5500951 -5 99 C-6 98 -6 98 -6.00415039 95.91333008 C-5.04648508 82.9853822 -2.88859774 70.20401785 -0.93579102 57.3972168 C-0.45101263 54.20693151 0.0267147 51.01564628 0.50390625 47.82421875 C0.65388565 46.85634933 0.80386505 45.88847992 0.95838928 44.89128113 C1.97332348 38.08318572 2.66705536 31.46140745 1.34375 24.6328125 C1.20807617 23.89667725 1.07240234 23.16054199 0.93261719 22.40209961 C0.78985352 21.65065674 0.64708984 20.89921387 0.5 20.125 C-0.65648739 13.65465246 -1.4188372 7.59668587 -1 1 C-0.67 0.67 -0.34 0.34 0 0 Z M3 4 C2.98019014 5.412784 2.96620391 6.82565025 2.95458984 8.23852539 C2.94616058 9.02530167 2.93773132 9.81207794 2.92904663 10.62269592 C3.01795762 13.60167291 3.55412654 16.36849383 4.16918945 19.27587891 C6.18852965 28.85233209 5.83301967 37.20208913 4.33056641 46.81396484 C3.89930709 49.66588208 3.57002528 52.52565088 3.23901367 55.390625 C2.54014663 61.37561097 1.63740326 67.286221 0.5078125 73.203125 C-1.49412604 84.03291453 -1.49412604 84.03291453 -2 95 C4.61914872 95.23361701 10.9395111 94.91872724 17.5 94 C53.07076431 89.4842034 90.14531926 94.24710989 125.51708984 98.32299805 C126.48227036 98.43293594 127.44745087 98.54287384 128.44187927 98.65614319 C130.25229015 98.86300704 132.06227802 99.07362351 133.87171936 99.2888031 C138.95286789 99.86838723 143.88552722 100.09649254 149 100 C149.90909737 95.24906743 150.22772811 90.56888146 150.39453125 85.74609375 C150.46100431 84.08696535 150.52825868 82.42786811 150.59619141 80.76879883 C150.6310968 79.89945709 150.6660022 79.03011536 150.70196533 78.13442993 C151.3959481 61.20197859 152.68923207 44.43414478 154.67895508 27.60522461 C154.76590134 26.86619904 154.8528476 26.12717346 154.94242859 25.36575317 C155.17780975 23.38552906 155.42087252 21.40622219 155.66455078 19.42700195 C155.97491605 16.25626161 156.06283586 13.18297177 156 10 C149.17072385 8.76309835 142.3244866 7.72669557 135.4375 6.875 C134.76662354 6.78750488 134.09574707 6.70000977 133.40454102 6.60986328 C124.43599261 5.53953826 115.62287925 5.96025428 106.64868164 6.76245117 C94.71715505 7.81581273 83.01937479 8.11655497 71.0625 7.6875 C70.39101929 7.66430695 69.71953857 7.64111389 69.02770996 7.61721802 C58.043867 7.21866799 58.043867 7.21866799 54.63104248 6.50375366 C52.02749317 6.00526399 49.58109079 5.80546864 46.93432617 5.70288086 C45.95368698 5.66291489 44.97304779 5.62294891 43.96269226 5.58177185 C42.9166835 5.54318558 41.87067474 5.5045993 40.79296875 5.46484375 C39.17217155 5.40037804 39.17217155 5.40037804 37.51863098 5.33460999 C34.07505521 5.19850304 30.631295 5.0679304 27.1875 4.9375 C24.84959507 4.84606813 22.51170422 4.75427549 20.17382812 4.66210938 C14.44937539 4.43722321 8.72476143 4.21687782 3 4 Z " fill="#282828" transform="translate(149,180)"/>
<path d="M0 0 C2.788041 2.64506453 3.85461332 4.14585326 4.5 7.9375 C3.87923287 11.73969864 2.31353637 13.96348352 0 17 C0.49371094 17.40992188 0.98742187 17.81984375 1.49609375 18.2421875 C2.13675781 18.78101563 2.77742188 19.31984375 3.4375 19.875 C4.07558594 20.40867188 4.71367187 20.94234375 5.37109375 21.4921875 C7.47849649 23.44292481 7.95310642 24.52952668 8.23828125 27.390625 C8.35741989 31.98059778 8.33133676 35.25780565 6.4375 39.5 C2.19320487 43.85312321 -2.09014166 45.15852256 -8.0234375 45.328125 C-9.80745079 45.31761535 -11.59143382 45.2912982 -13.375 45.25 C-14.74591797 45.24226563 -14.74591797 45.24226563 -16.14453125 45.234375 C-22.84527726 45.15472274 -22.84527726 45.15472274 -24 44 C-24.15907955 42.22534557 -24.25145783 40.44464846 -24.31640625 38.6640625 C-24.35838135 37.54491455 -24.40035645 36.4257666 -24.44360352 35.27270508 C-24.48283936 34.0689624 -24.5220752 32.86521973 -24.5625 31.625 C-24.6049585 30.41030029 -24.64741699 29.19560059 -24.69116211 27.9440918 C-25.01808653 17.95941217 -25.1094985 7.98869614 -25 -2 C-16.72862498 -3.90641357 -7.4133771 -4.5742114 0 0 Z " fill="#F9F9F9" transform="translate(279,209)"/>
<path d="M0 0 C6.6 0 13.2 0 20 0 C21.7524813 5.2574439 23.40520914 10.2479525 24.75390625 15.57421875 C25.05103516 16.73630859 25.34816406 17.89839844 25.65429688 19.09570312 C25.95400391 20.28099609 26.25371094 21.46628906 26.5625 22.6875 C27.16600048 25.06690634 27.77140481 27.44583078 28.37890625 29.82421875 C28.77444702 31.38789185 28.77444702 31.38789185 29.17797852 32.9831543 C29.9729533 36.04277407 29.9729533 36.04277407 31.10131836 39.13598633 C32 42 32 42 32 46 C27.71 46 23.42 46 19 46 C18.67 43.36 18.34 40.72 18 38 C14.7 38 11.4 38 8 38 C8 40.64 8 43.28 8 46 C2.39 46 -3.22 46 -9 46 C-8.43462867 35.97587661 -6.24170074 26.5462901 -3.9375 16.8125 C-3.55596591 15.1765895 -3.17510136 13.54052271 -2.79492188 11.90429688 C-1.87220692 7.9340092 -0.93586475 3.96729911 0 0 Z " fill="#F9F9F9" transform="translate(221,207)"/>
<path d="M0 0 C14.52 0 29.04 0 44 0 C44 5.61 44 11.22 44 17 C39.05 17 34.1 17 29 17 C29 26.57 29 36.14 29 46 C23.72 46 18.44 46 13 46 C12.97310156 41.72912492 12.95321016 37.45841818 12.9375 33.1875 C12.92912109 31.97255859 12.92074219 30.75761719 12.91210938 29.50585938 C12.90888672 28.34248047 12.90566406 27.17910156 12.90234375 25.98046875 C12.89710693 24.90692139 12.89187012 23.83337402 12.88647461 22.72729492 C13 20 13 20 14 17 C9.38 17 4.76 17 0 17 C0 11.39 0 5.78 0 0 Z " fill="#F8F8F8" transform="translate(166,207)"/>
<path d="M0 0 C1.65 0 3.3 0 5 0 C5.33 2.31 5.66 4.62 6 7 C3.69 7 1.38 7 -1 7 C-0.67 4.69 -0.34 2.38 0 0 Z " fill="#464646" transform="translate(231,229)"/>
<path d="M0 0 C2.475 0.99 2.475 0.99 5 2 C4.67 3.98 4.34 5.96 4 8 C2.68 8.33 1.36 8.66 0 9 C0 6.03 0 3.06 0 0 Z " fill="#535353" transform="translate(269,235)"/>
<path d="M0 0 C0.99 0.33 1.98 0.66 3 1 C3 2.65 3 4.3 3 6 C2.01 6 1.02 6 0 6 C0 4.02 0 2.04 0 0 Z " fill="#656565" transform="translate(269,214)"/>
</svg>
