<?xml version="1.0" encoding="UTF-8"?>
<svg version="1.1" xmlns="http://www.w3.org/2000/svg" width="500" height="500">
<path d="M0 0 C1.61205826 0.00367836 1.61205826 0.00367836 3.25668335 0.00743103 C4.47487762 0.00835251 5.6930719 0.00927399 6.94818115 0.01022339 C8.29890062 0.0167634 9.64961881 0.02357173 11.00033569 0.03062439 C12.39947452 0.03466025 13.79861396 0.03848649 15.19775391 0.04211426 C29.67983684 0.09013704 44.1606449 0.26968528 58.64096069 0.49278259 C62.32240622 0.54929303 66.00391469 0.59891976 69.6854763 0.64718533 C72.55925787 0.68590176 75.43296084 0.72900823 78.3066597 0.77340889 C80.32368006 0.80352394 82.34076577 0.82915567 84.35784912 0.85470581 C85.55906403 0.87465103 86.76027893 0.89459625 87.99789429 0.91514587 C89.05688934 0.93069016 90.1158844 0.94623444 91.20697021 0.96224976 C93.58627319 1.12046814 93.58627319 1.12046814 94.58627319 2.12046814 C94.52062864 11.85227381 92.954856 21.62149445 91.60287476 31.23985291 C89.94646512 43.59850926 90.72071383 55.73541742 91.58627319 68.12046814 C93.03408931 88.83687063 93.03408931 88.83687063 92.58627319 96.12046814 C90.67785875 98.02888258 87.85682731 97.24722175 85.31721497 97.2559967 C84.41535965 97.25397247 83.51350433 97.25194824 82.58432007 97.24986267 C81.63968399 97.25161499 80.69504791 97.25336731 79.7217865 97.25517273 C76.582847 97.25959294 73.44396332 97.25665266 70.30502319 97.25328064 C68.13408395 97.25395363 65.96314479 97.25492361 63.79220581 97.25617981 C59.23576136 97.25765701 54.67933647 97.25550151 50.12289429 97.25083923 C44.26800733 97.24514194 38.41316621 97.24842082 32.55828094 97.2544117 C28.07347261 97.25801671 23.58867523 97.256879 19.10386658 97.25428391 C16.94439183 97.25361447 14.78491611 97.25444363 12.6254425 97.25676346 C9.61301012 97.259289 6.60065306 97.25545078 3.58822632 97.24986267 C2.23544334 97.25289902 2.23544334 97.25289902 0.85533142 97.2559967 C-5.2994645 97.23473045 -5.2994645 97.23473045 -6.41372681 96.12046814 C-6.53516981 93.43314734 -6.5788198 90.78151099 -6.56997681 88.09312439 C-6.56824463 87.21938675 -6.56651245 86.34564911 -6.56472778 85.44543457 C-6.46261087 72.19273291 -5.69307754 58.95407804 -5.02304077 45.72038269 C-4.73330173 39.98885591 -4.4498996 34.25702408 -4.17027283 28.5249958 C-4.07304267 26.55372026 -3.97214314 24.58262677 -3.87112427 22.61154175 C-3.54955262 16.10141427 -3.35847073 9.63712361 -3.48831177 3.11914062 C-3.37738759 0.14667676 -2.97287043 0.14837477 0 0 Z " fill="#454545" transform="translate(193.41372680664063,171.87953186035156)"/>
<path d="M0 0 C5.61 0 11.22 0 17 0 C19 6 21 12 23 18 C23.29245605 17.49025635 23.58491211 16.9805127 23.88623047 16.45532227 C25.21035478 14.1545184 26.54255309 11.85849322 27.875 9.5625 C28.33519531 8.76005859 28.79539063 7.95761719 29.26953125 7.13085938 C29.71425781 6.36708984 30.15898437 5.60332031 30.6171875 4.81640625 C31.02565918 4.10943604 31.43413086 3.40246582 31.85498047 2.67407227 C33 1 33 1 35 0 C37.97 5.94 40.94 11.88 44 18 C46.52728785 12.01431826 48.94439583 6.1668125 51 0 C55.95 0 60.9 0 66 0 C63.12712784 14.3643608 58.43715466 28.40711336 53 42 C48.71 42 44.42 42 40 42 C35.125 30.375 35.125 30.375 34 27 C33.51273438 28.0828125 33.02546875 29.165625 32.5234375 30.28125 C28.28193178 38.87558436 28.28193178 38.87558436 25 42 C20.10646719 43.31214602 15.94187732 42.94900916 11 42 C7.94548715 31.46343341 4.93078161 20.91841633 2.125 10.3125 C1.91012939 9.50578857 1.69525879 8.69907715 1.47387695 7.86791992 C0 2.24575814 0 2.24575814 0 0 Z " fill="#FBFBFB" transform="translate(204,202)"/>
<path d="M0 0 C1.61205826 0.00367836 1.61205826 0.00367836 3.25668335 0.00743103 C4.47487762 0.00835251 5.6930719 0.00927399 6.94818115 0.01022339 C8.29890062 0.0167634 9.64961881 0.02357173 11.00033569 0.03062439 C12.39947452 0.03466025 13.79861396 0.03848649 15.19775391 0.04211426 C29.67983684 0.09013704 44.1606449 0.26968528 58.64096069 0.49278259 C62.32240622 0.54929303 66.00391469 0.59891976 69.6854763 0.64718533 C72.55925787 0.68590176 75.43296084 0.72900823 78.3066597 0.77340889 C80.32368006 0.80352394 82.34076577 0.82915567 84.35784912 0.85470581 C85.55906403 0.87465103 86.76027893 0.89459625 87.99789429 0.91514587 C89.05688934 0.93069016 90.1158844 0.94623444 91.20697021 0.96224976 C93.58627319 1.12046814 93.58627319 1.12046814 94.58627319 2.12046814 C94.52062864 11.85227381 92.954856 21.62149445 91.60287476 31.23985291 C89.94646512 43.59850926 90.72071383 55.73541742 91.58627319 68.12046814 C93.03408931 88.83687063 93.03408931 88.83687063 92.58627319 96.12046814 C90.67785875 98.02888258 87.85682731 97.24722175 85.31721497 97.2559967 C84.41535965 97.25397247 83.51350433 97.25194824 82.58432007 97.24986267 C81.63968399 97.25161499 80.69504791 97.25336731 79.7217865 97.25517273 C76.582847 97.25959294 73.44396332 97.25665266 70.30502319 97.25328064 C68.13408395 97.25395363 65.96314479 97.25492361 63.79220581 97.25617981 C59.23576136 97.25765701 54.67933647 97.25550151 50.12289429 97.25083923 C44.26800733 97.24514194 38.41316621 97.24842082 32.55828094 97.2544117 C28.07347261 97.25801671 23.58867523 97.256879 19.10386658 97.25428391 C16.94439183 97.25361447 14.78491611 97.25444363 12.6254425 97.25676346 C9.61301012 97.259289 6.60065306 97.25545078 3.58822632 97.24986267 C2.23544334 97.25289902 2.23544334 97.25289902 0.85533142 97.2559967 C-5.2994645 97.23473045 -5.2994645 97.23473045 -6.41372681 96.12046814 C-6.53516981 93.43314734 -6.5788198 90.78151099 -6.56997681 88.09312439 C-6.56824463 87.21938675 -6.56651245 86.34564911 -6.56472778 85.44543457 C-6.46261087 72.19273291 -5.69307754 58.95407804 -5.02304077 45.72038269 C-4.73330173 39.98885591 -4.4498996 34.25702408 -4.17027283 28.5249958 C-4.07304267 26.55372026 -3.97214314 24.58262677 -3.87112427 22.61154175 C-3.54955262 16.10141427 -3.35847073 9.63712361 -3.48831177 3.11914062 C-3.37738759 0.14667676 -2.97287043 0.14837477 0 0 Z M0.58627319 4.12046814 C-0.07372681 17.85671814 -0.73372681 31.59296814 -1.41372681 45.74546814 C-1.62255493 50.07623474 -1.83138306 54.40700134 -2.04653931 58.8690033 C-2.23300884 62.76479193 -2.23300884 62.76479193 -2.4190979 66.66059875 C-2.50190507 68.39036035 -2.58527585 70.12009503 -2.6690979 71.84980774 C-2.79624914 74.47593576 -2.9215891 77.10214475 -3.04653931 79.7283783 C-3.08401276 80.49373209 -3.12148621 81.25908588 -3.16009521 82.04763222 C-3.35006575 86.08376196 -3.41372681 90.07520093 -3.41372681 94.12046814 C26.94627319 94.12046814 57.30627319 94.12046814 88.58627319 94.12046814 C88.58627319 84.05797618 88.49078955 74.66743071 87.82064819 64.75328064 C86.8233165 47.12583872 87.4311588 29.90496462 90.31088257 12.48448181 C90.63365834 9.7137036 90.58627319 6.90998352 90.58627319 4.12046814 C60.88627319 4.12046814 31.18627319 4.12046814 0.58627319 4.12046814 Z " fill="#272727" transform="translate(193.41372680664063,171.87953186035156)"/>
</svg>
