<?xml version="1.0" encoding="UTF-8"?>
<svg version="1.1" xmlns="http://www.w3.org/2000/svg" width="500" height="500">
<path d="M0 0 C2.81114705 0.03256838 5.26297959 0.43904572 7.98046875 1.140625 C13.72352912 2.45264234 19.44293179 2.78388445 25.3125 3.125 C26.54766357 3.20290771 27.78282715 3.28081543 29.05541992 3.36108398 C37.01564943 3.85885825 44.97917286 4.30053018 52.94245911 4.74613953 C56.50816196 4.94576946 60.07378396 5.1468026 63.6394043 5.34790039 C68.40616485 5.61655709 73.17326279 5.8776889 77.94067383 6.13452148 C80.15446924 6.25747691 82.36825548 6.38059772 84.58203125 6.50390625 C85.61920288 6.55801666 86.65637451 6.61212708 87.72497559 6.6678772 C89.14272278 6.74828751 89.14272278 6.74828751 90.58911133 6.83032227 C91.42017899 6.87536392 92.25124664 6.92040558 93.10749817 6.96681213 C95 7.1875 95 7.1875 96 8.1875 C96.29831551 12.82495015 95.95118889 16.84594038 94.94140625 21.37890625 C90.50224045 41.51392543 90.34101478 61.44972093 90.18969727 82.01000977 C90.18065872 83.20028275 90.17162018 84.39055573 90.16230774 85.61689758 C90.14808193 87.88777189 90.13981326 90.15869298 90.1381073 92.42961121 C90.13410416 93.43800552 90.13010101 94.44639984 90.12597656 95.48535156 C90.12551331 96.3727301 90.12505005 97.26010864 90.12457275 98.17437744 C90 100.1875 90 100.1875 89 101.1875 C83.54917069 101.76663386 80.13034306 100.56511197 75.2093811 98.29052734 C61.73286344 92.15714361 50.08177065 92.75723249 35.625 94.1875 C33.43918324 94.3730361 31.2529772 94.55404297 29.06640625 94.73046875 C25.90102087 94.98615358 22.73613457 95.24374536 19.57232666 95.51831055 C11.7342823 96.18725771 3.86421437 96.71310516 -4 96.1875 C-5.70050795 94.48699205 -5.13225932 92.36332407 -5.13671875 90.09570312 C-5.13285156 89.40412109 -5.12898437 88.71253906 -5.125 88 C-5.12757813 86.68644531 -5.13015625 85.37289062 -5.1328125 84.01953125 C-5.07605078 80.27597772 -4.80188517 76.57473803 -4.49560547 72.84375 C-3.98707451 65.84726034 -3.88071339 58.89817308 -3.92483521 51.8853054 C-3.93786985 49.79619209 -3.94417918 47.70714383 -3.94897461 45.61799622 C-3.9602419 41.20363403 -3.97956608 36.78932796 -4 32.375 C-4.02364572 27.20896642 -4.04394239 22.04296116 -4.05593872 16.87688637 C-4.06242207 14.81771962 -4.07491255 12.75864489 -4.08764648 10.69950867 C-4.09094971 9.46344376 -4.09425293 8.22737885 -4.09765625 6.95385742 C-4.10289307 5.86135178 -4.10812988 4.76884613 -4.11352539 3.64323425 C-3.94624542 0.02470322 -3.67599654 0.22974978 0 0 Z " fill="#454545" transform="translate(210,179.8125)"/>
<path d="M0 0 C17.62778911 -2.23385157 17.62778911 -2.23385157 23.07421875 1.37402344 C26.8306336 5.07446522 29.48994472 9.39137391 32 14 C34.33364352 11.07096942 36.04960836 8.11431797 37.6875 4.75 C38.450625 3.1825 39.21375 1.615 40 0 C46.93 0 53.86 0 61 0 C59.05945339 5.82163982 57.31248402 10.76505502 54.671875 16.16796875 C54.35978088 16.81010818 54.04768677 17.45224762 53.72613525 18.11384583 C52.73926845 20.14097301 51.74474776 22.16423068 50.75 24.1875 C50.09976566 25.52124328 49.45002326 26.85522651 48.80078125 28.18945312 C44.59263488 36.82249315 40.30619062 45.41550861 36 54 C28.74 54 21.48 54 14 54 C18.4375 44.6875 18.4375 44.6875 19.83374023 41.7644043 C20.19669189 41.00039307 20.55964355 40.23638184 20.93359375 39.44921875 C21.30540771 38.66893311 21.67722168 37.88864746 22.06030273 37.0847168 C23.09606238 34.8810728 23.09606238 34.8810728 24 32 C22.47281978 29.73818817 20.92912545 27.71193793 19.1875 25.625 C18.16992549 24.36901384 17.15301369 23.11249051 16.13671875 21.85546875 C15.61513184 21.21657715 15.09354492 20.57768555 14.55615234 19.91943359 C12.15768429 16.96104705 9.82479816 13.95390478 7.5 10.9375 C6.7059375 9.91527344 5.911875 8.89304688 5.09375 7.83984375 C3.21958264 5.29782944 1.56781644 2.73865371 0 0 Z " fill="#FBFBFB" transform="translate(223,202)"/>
<path d="M0 0 C2.81114705 0.03256838 5.26297959 0.43904572 7.98046875 1.140625 C13.72352912 2.45264234 19.44293179 2.78388445 25.3125 3.125 C26.54766357 3.20290771 27.78282715 3.28081543 29.05541992 3.36108398 C37.01564943 3.85885825 44.97917286 4.30053018 52.94245911 4.74613953 C56.50816196 4.94576946 60.07378396 5.1468026 63.6394043 5.34790039 C68.40616485 5.61655709 73.17326279 5.8776889 77.94067383 6.13452148 C80.15446924 6.25747691 82.36825548 6.38059772 84.58203125 6.50390625 C85.61920288 6.55801666 86.65637451 6.61212708 87.72497559 6.6678772 C89.14272278 6.74828751 89.14272278 6.74828751 90.58911133 6.83032227 C91.42017899 6.87536392 92.25124664 6.92040558 93.10749817 6.96681213 C95 7.1875 95 7.1875 96 8.1875 C96.29831551 12.82495015 95.95118889 16.84594038 94.94140625 21.37890625 C90.50224045 41.51392543 90.34101478 61.44972093 90.18969727 82.01000977 C90.18065872 83.20028275 90.17162018 84.39055573 90.16230774 85.61689758 C90.14808193 87.88777189 90.13981326 90.15869298 90.1381073 92.42961121 C90.13410416 93.43800552 90.13010101 94.44639984 90.12597656 95.48535156 C90.12551331 96.3727301 90.12505005 97.26010864 90.12457275 98.17437744 C90 100.1875 90 100.1875 89 101.1875 C83.54917069 101.76663386 80.13034306 100.56511197 75.2093811 98.29052734 C61.73286344 92.15714361 50.08177065 92.75723249 35.625 94.1875 C33.43918324 94.3730361 31.2529772 94.55404297 29.06640625 94.73046875 C25.90102087 94.98615358 22.73613457 95.24374536 19.57232666 95.51831055 C11.7342823 96.18725771 3.86421437 96.71310516 -4 96.1875 C-5.70050795 94.48699205 -5.13225932 92.36332407 -5.13671875 90.09570312 C-5.13285156 89.40412109 -5.12898437 88.71253906 -5.125 88 C-5.12757813 86.68644531 -5.13015625 85.37289062 -5.1328125 84.01953125 C-5.07605078 80.27597772 -4.80188517 76.57473803 -4.49560547 72.84375 C-3.98707451 65.84726034 -3.88071339 58.89817308 -3.92483521 51.8853054 C-3.93786985 49.79619209 -3.94417918 47.70714383 -3.94897461 45.61799622 C-3.9602419 41.20363403 -3.97956608 36.78932796 -4 32.375 C-4.02364572 27.20896642 -4.04394239 22.04296116 -4.05593872 16.87688637 C-4.06242207 14.81771962 -4.07491255 12.75864489 -4.08764648 10.69950867 C-4.09094971 9.46344376 -4.09425293 8.22737885 -4.09765625 6.95385742 C-4.10289307 5.86135178 -4.10812988 4.76884613 -4.11352539 3.64323425 C-3.94624542 0.02470322 -3.67599654 0.22974978 0 0 Z M0 4.1875 C-0.01030746 5.00752502 -0.02061493 5.82755005 -0.03123474 6.67242432 C-0.13023159 14.49523719 -0.23286676 22.3179907 -0.33933926 30.14070511 C-0.39392331 34.16002484 -0.447221 38.17935207 -0.49731445 42.19873047 C-0.9244811 76.3328652 -0.9244811 76.3328652 -2 93.1875 C-1.13834229 93.12763916 -0.27668457 93.06777832 0.61108398 93.00610352 C10.2695327 92.34732652 19.9308031 91.77374925 29.59790039 91.25756836 C31.24284889 91.16908822 32.88770718 91.07891499 34.5324707 90.98706055 C40.02029292 90.68063945 45.5083925 90.41574149 51 90.1875 C52.96005981 90.09782959 52.96005981 90.09782959 54.9597168 90.00634766 C62.34912275 89.80990842 67.97280757 90.60671109 74.6875 93.6875 C76.21053577 94.34769459 77.73521091 95.00412372 79.26171875 95.65625 C79.91100342 95.94951172 80.56028809 96.24277344 81.22924805 96.54492188 C83.15605378 97.35805931 83.15605378 97.35805931 86 97.1875 C86.00142502 96.59821716 86.00285004 96.00893433 86.00431824 95.40179443 C86.17809536 41.0568299 86.17809536 41.0568299 91.55688477 19.72729492 C92.11540855 16.52601504 92.02688971 13.43164383 92 10.1875 C91.01329819 10.14182892 90.02659637 10.09615784 89.00999451 10.04910278 C79.69643079 9.61692049 70.3833175 9.1759748 61.07057095 8.72651863 C56.28316231 8.49574682 51.49564959 8.26802957 46.70776367 8.04736328 C42.08437494 7.83416459 37.46143868 7.61285052 32.83870125 7.38598251 C31.07786749 7.30098178 29.31689169 7.21887118 27.55578423 7.1397438 C25.0828903 7.02813337 22.61070803 6.90611471 20.13842773 6.78173828 C19.41553558 6.75152588 18.69264343 6.72131348 17.94784546 6.69018555 C13.3693505 6.44605047 9.38479743 5.46538754 5 4.1875 C2.20755955 4.01821457 2.20755955 4.01821457 0 4.1875 Z " fill="#282828" transform="translate(210,179.8125)"/>
</svg>
