<?xml version="1.0" encoding="UTF-8"?>
<svg version="1.1" xmlns="http://www.w3.org/2000/svg" width="500" height="500">
<path d="M0 0 C2.87070131 0.03037882 5.7121617 0.12741765 8.578125 0.26953125 C9.47672745 0.30991516 10.3753299 0.35029907 11.30116272 0.39190674 C14.28435996 0.5271259 17.2671565 0.6697054 20.25 0.8125 C22.31142101 0.90792649 24.37286341 1.00289191 26.43432617 1.09741211 C29.64821988 1.24498435 32.86208053 1.39312519 36.07585144 1.54335022 C43.72808716 1.90040335 51.38114691 2.23032627 59.03515625 2.546875 C62.1284729 2.67669649 65.22177138 2.80694222 68.31506348 2.93734741 C70.31475964 3.02084114 72.31451662 3.10289075 74.31433105 3.1835022 C77.10168518 3.29635301 79.88873121 3.41506203 82.67578125 3.53515625 C83.92561546 3.58352631 83.92561546 3.58352631 85.20069885 3.63287354 C90.88603964 3.88603964 90.88603964 3.88603964 92 5 C92.10056691 7.88606016 92.13615375 10.74822575 92.12939453 13.63476562 C92.13202301 14.99319832 92.13202301 14.99319832 92.13470459 16.3790741 C92.13912454 19.38815193 92.13618461 22.39717152 92.1328125 25.40625 C92.1334855 27.48750825 92.13445549 29.56876643 92.13571167 31.65002441 C92.13718884 36.01815538 92.13503348 40.38626593 92.13037109 44.75439453 C92.1246738 50.36714553 92.1279527 55.97984872 92.13394356 61.59259796 C92.13754866 65.89211389 92.13641082 70.19161838 92.13381577 74.49113464 C92.13314636 76.56129461 92.1339754 78.6314556 92.13629532 80.70161438 C92.13882102 83.58951586 92.13498242 86.47733878 92.12939453 89.36523438 C92.13141876 90.22968674 92.13344299 91.0941391 92.13552856 91.98478699 C92.11426237 97.88573763 92.11426237 97.88573763 91 99 C76.1339105 99.83841418 61.0886062 98.22714468 46.26855469 97.20629883 C34.02606094 96.37109506 22.02246441 95.73999711 9.77514648 96.71850586 C4.20248015 97.13403223 -1.41723316 97.3211744 -7 97 C-8 96 -8 96 -8.14256287 94.04580688 C-8.14202343 88.10673272 -7.65411679 82.44588544 -6.72265625 76.5859375 C-6.45258078 74.77267474 -6.18400813 72.95918767 -5.91674805 71.14550781 C-5.77667328 70.20404907 -5.63659851 69.26259033 -5.49227905 68.29260254 C-2.43176839 47.51598807 -1.04480774 27.05882239 -1.11257935 6.06271362 C-1.10642719 1.10642719 -1.10642719 1.10642719 0 0 Z " fill="#313131" transform="translate(207,310)"/>
<path d="M0 0 C7.92 0 15.84 0 24 0 C25.85609015 6.76147125 27.70908519 13.52363336 29.55419922 20.28808594 C30.18291264 22.58936531 30.81343632 24.8901509 31.44580078 27.19042969 C32.35404372 30.49546444 33.25577749 33.80221593 34.15625 37.109375 C34.44060913 38.13867126 34.72496826 39.16796753 35.01794434 40.22845459 C35.27821411 41.18914856 35.53848389 42.14984253 35.80664062 43.13964844 C36.03758423 43.98348083 36.26852783 44.82731323 36.50646973 45.69671631 C37 48 37 48 37 52 C32.38 52 27.76 52 23 52 C21 47 21 47 21 42 C17.37 42 13.74 42 10 42 C10.020625 43.27875 10.04125 44.5575 10.0625 45.875 C10.125 49.75 10.125 49.75 9 52 C2.4 52 -4.2 52 -11 52 C-7.60183008 34.60317437 -3.90917672 17.28903931 0 0 Z " fill="#FAFAFA" transform="translate(239,331)"/>
<path d="M0 0 C2.87070131 0.03037882 5.7121617 0.12741765 8.578125 0.26953125 C9.47672745 0.30991516 10.3753299 0.35029907 11.30116272 0.39190674 C14.28435996 0.5271259 17.2671565 0.6697054 20.25 0.8125 C22.31142101 0.90792649 24.37286341 1.00289191 26.43432617 1.09741211 C29.64821988 1.24498435 32.86208053 1.39312519 36.07585144 1.54335022 C43.72808716 1.90040335 51.38114691 2.23032627 59.03515625 2.546875 C62.1284729 2.67669649 65.22177138 2.80694222 68.31506348 2.93734741 C70.31475964 3.02084114 72.31451662 3.10289075 74.31433105 3.1835022 C77.10168518 3.29635301 79.88873121 3.41506203 82.67578125 3.53515625 C83.92561546 3.58352631 83.92561546 3.58352631 85.20069885 3.63287354 C90.88603964 3.88603964 90.88603964 3.88603964 92 5 C92.10056691 7.88606016 92.13615375 10.74822575 92.12939453 13.63476562 C92.13202301 14.99319832 92.13202301 14.99319832 92.13470459 16.3790741 C92.13912454 19.38815193 92.13618461 22.39717152 92.1328125 25.40625 C92.1334855 27.48750825 92.13445549 29.56876643 92.13571167 31.65002441 C92.13718884 36.01815538 92.13503348 40.38626593 92.13037109 44.75439453 C92.1246738 50.36714553 92.1279527 55.97984872 92.13394356 61.59259796 C92.13754866 65.89211389 92.13641082 70.19161838 92.13381577 74.49113464 C92.13314636 76.56129461 92.1339754 78.6314556 92.13629532 80.70161438 C92.13882102 83.58951586 92.13498242 86.47733878 92.12939453 89.36523438 C92.13141876 90.22968674 92.13344299 91.0941391 92.13552856 91.98478699 C92.11426237 97.88573763 92.11426237 97.88573763 91 99 C76.1339105 99.83841418 61.0886062 98.22714468 46.26855469 97.20629883 C34.02606094 96.37109506 22.02246441 95.73999711 9.77514648 96.71850586 C4.20248015 97.13403223 -1.41723316 97.3211744 -7 97 C-8 96 -8 96 -8.14256287 94.04580688 C-8.14202343 88.10673272 -7.65411679 82.44588544 -6.72265625 76.5859375 C-6.45258078 74.77267474 -6.18400813 72.95918767 -5.91674805 71.14550781 C-5.77667328 70.20404907 -5.63659851 69.26259033 -5.49227905 68.29260254 C-2.43176839 47.51598807 -1.04480774 27.05882239 -1.11257935 6.06271362 C-1.10642719 1.10642719 -1.10642719 1.10642719 0 0 Z M3 4 C2.98018066 4.89493164 2.96036133 5.78986328 2.93994141 6.71191406 C2.48713021 26.20030735 1.56657485 45.33133327 -1.01953125 64.66796875 C-1.15495079 65.68074135 -1.15495079 65.68074135 -1.29310608 66.713974 C-1.74554331 70.08575325 -2.20646632 73.45589183 -2.67895508 76.82495117 C-2.84935303 78.05576416 -3.01975098 79.28657715 -3.1953125 80.5546875 C-3.35016113 81.65280762 -3.50500977 82.75092773 -3.66455078 83.88232422 C-3.9944957 86.94884288 -4.05967143 89.91852104 -4 93 C1.14966382 93.10854092 6.27524426 93.06987359 11.4152832 92.72460938 C25.06969116 91.82973753 38.36974695 92.40404527 52 93.4375 C55.07736928 93.66224077 58.15493763 93.88330071 61.23291016 94.09962463 C63.122303 94.23325562 65.01135357 94.37187976 66.89990234 94.51695251 C73.99160313 95.03154463 80.83092358 95 88 95 C88 66.29 88 37.58 88 8 C54.93817513 6.42276087 54.93817513 6.42276087 21.875 4.875 C19.99479058 4.78778389 18.11458225 4.70054415 16.234375 4.61328125 C11.82292897 4.40858793 7.41146926 4.20419213 3 4 Z " fill="#444444" transform="translate(207,310)"/>
<path d="M0 0 C2.31 0 4.62 0 7 0 C7.33 2.97 7.66 5.94 8 9 C5.36 9 2.72 9 0 9 C0 6.03 0 3.06 0 0 Z " fill="#5C5C5C" transform="translate(250,355)"/>
</svg>
