<?xml version="1.0" encoding="UTF-8"?>
<svg version="1.1" xmlns="http://www.w3.org/2000/svg" width="500" height="500">
<path d="M0 0 C9.55499479 0.09507458 19.08718042 1.43787211 28.57519531 2.47851562 C42.49502208 3.99479168 55.78569812 4.62172612 69.77734375 3.4140625 C75.89105655 3.00601262 82.05048604 2.90925505 88.171875 3.1875 C89.171875 4.1875 89.171875 4.1875 89.29234314 6.20626831 C89.2898909 7.10225739 89.28743866 7.99824646 89.28491211 8.92138672 C89.28399063 9.94958527 89.28306915 10.97778381 89.28211975 12.03713989 C89.27538742 13.1773056 89.26865509 14.31747131 89.26171875 15.4921875 C89.25603127 17.28376785 89.25603127 17.28376785 89.25022888 19.11154175 C89.18828387 33.62495159 89.00662639 48.13745072 88.79956055 62.64941406 C88.74336104 66.60450634 88.69362123 70.55965511 88.64515781 74.51484871 C88.60641194 77.59108366 88.56330401 80.66724589 88.51893425 83.74340439 C88.49858603 85.2050855 88.47986084 86.66679015 88.46280098 88.12851334 C88.43888149 90.14188802 88.40822415 92.15517933 88.37719727 94.16845703 C88.36165298 95.31057648 88.3461087 96.45269592 88.33009338 97.62942505 C88.171875 100.1875 88.171875 100.1875 87.171875 101.1875 C78.14601775 101.63741557 69.27749008 100.40848032 60.32284546 99.42028809 C44.64015326 97.71364995 29.66827868 96.85768054 13.90771484 98.02050781 C9.16410023 98.31005202 4.42293678 98.31760272 -0.328125 98.3125 C-1.17866455 98.31668945 -2.0292041 98.32087891 -2.90551758 98.32519531 C-8.70258414 98.31304086 -8.70258414 98.31304086 -9.828125 97.1875 C-10.40100162 88.75832179 -9.40320459 80.50970688 -8.2265625 72.1796875 C-7.89763856 69.70323098 -7.56953961 67.22666478 -7.2421875 64.75 C-6.72669765 60.91170367 -6.20482253 57.07462744 -5.66796875 53.23925781 C-2.90837274 33.62898711 -2.90837274 33.62898711 -4.27197266 13.98876953 C-4.89774261 9.71166761 -5.16561998 5.50442436 -4.828125 1.1875 C-3.828125 0.1875 -3.828125 0.1875 0 0 Z " fill="#313131" transform="translate(216.828125,51.8125)"/>
<path d="M0 0 C22.19741566 -0.74358588 22.19741566 -0.74358588 31.53125 6.54296875 C36.30447926 11.27811373 38.12284632 17.10729687 38.25 23.6875 C38.06869295 33.21309356 34.98070597 38.94063576 28.4140625 45.828125 C22.47298624 51.17317096 16.12497516 53.1562497 8.25 53.0625 C7.26515625 53.05347656 6.2803125 53.04445312 5.265625 53.03515625 C4.51796875 53.02355469 3.7703125 53.01195312 3 53 C1.56630953 35.3407733 0.54313343 17.7092407 0 0 Z " fill="#FAFAFA" transform="translate(242,74)"/>
<path d="M0 0 C9.55499479 0.09507458 19.08718042 1.43787211 28.57519531 2.47851562 C42.49502208 3.99479168 55.78569812 4.62172612 69.77734375 3.4140625 C75.89105655 3.00601262 82.05048604 2.90925505 88.171875 3.1875 C89.171875 4.1875 89.171875 4.1875 89.29234314 6.20626831 C89.2898909 7.10225739 89.28743866 7.99824646 89.28491211 8.92138672 C89.28399063 9.94958527 89.28306915 10.97778381 89.28211975 12.03713989 C89.27538742 13.1773056 89.26865509 14.31747131 89.26171875 15.4921875 C89.25603127 17.28376785 89.25603127 17.28376785 89.25022888 19.11154175 C89.18828387 33.62495159 89.00662639 48.13745072 88.79956055 62.64941406 C88.74336104 66.60450634 88.69362123 70.55965511 88.64515781 74.51484871 C88.60641194 77.59108366 88.56330401 80.66724589 88.51893425 83.74340439 C88.49858603 85.2050855 88.47986084 86.66679015 88.46280098 88.12851334 C88.43888149 90.14188802 88.40822415 92.15517933 88.37719727 94.16845703 C88.36165298 95.31057648 88.3461087 96.45269592 88.33009338 97.62942505 C88.171875 100.1875 88.171875 100.1875 87.171875 101.1875 C78.14601775 101.63741557 69.27749008 100.40848032 60.32284546 99.42028809 C44.64015326 97.71364995 29.66827868 96.85768054 13.90771484 98.02050781 C9.16410023 98.31005202 4.42293678 98.31760272 -0.328125 98.3125 C-1.17866455 98.31668945 -2.0292041 98.32087891 -2.90551758 98.32519531 C-8.70258414 98.31304086 -8.70258414 98.31304086 -9.828125 97.1875 C-10.40100162 88.75832179 -9.40320459 80.50970688 -8.2265625 72.1796875 C-7.89763856 69.70323098 -7.56953961 67.22666478 -7.2421875 64.75 C-6.72669765 60.91170367 -6.20482253 57.07462744 -5.66796875 53.23925781 C-2.90837274 33.62898711 -2.90837274 33.62898711 -4.27197266 13.98876953 C-4.89774261 9.71166761 -5.16561998 5.50442436 -4.828125 1.1875 C-3.828125 0.1875 -3.828125 0.1875 0 0 Z M-0.828125 4.1875 C-0.76753906 4.89132813 -0.70695313 5.59515625 -0.64453125 6.3203125 C-0.46906995 8.38805639 -0.29873705 10.45623957 -0.1325531 12.52474976 C0.05950661 14.83553103 0.26692778 17.14513473 0.49595642 19.45254517 C1.24180243 27.71570898 0.88940688 35.32277059 -0.26171875 43.5234375 C-0.41850601 44.72763336 -0.57529327 45.93182922 -0.73683167 47.17251587 C-1.23341039 50.97103564 -1.74841693 54.76673923 -2.265625 58.5625 C-2.77615372 62.38001046 -3.28265368 66.19798836 -3.78370667 70.01675415 C-4.09468112 72.37937384 -4.41153814 74.74122922 -4.73521423 77.10214233 C-5.50247044 82.85695458 -6.00484552 88.38172413 -5.828125 94.1875 C-3.53633676 94.21622715 -1.24503204 94.23651819 1.046875 94.25 C2.18866211 94.25821777 2.18866211 94.25821777 3.35351562 94.26660156 C7.80408937 94.27188728 12.20890019 94.14467007 16.6484375 93.82421875 C35.30026354 92.57002822 53.38202574 94.40770347 71.90509033 96.5521698 C72.64249451 96.63542007 73.37989868 96.71867035 74.13964844 96.80444336 C74.77626404 96.87851913 75.41287964 96.95259491 76.06878662 97.02891541 C78.77341317 97.23285933 81.46074393 97.21111995 84.171875 97.1875 C84.30496663 89.43967365 84.435472 81.69180791 84.56302643 73.94388866 C84.62238416 70.34286105 84.68250342 66.74185016 84.74462891 63.14086914 C85.06577788 44.48732473 85.24771801 25.84444266 85.171875 7.1875 C83.40845134 7.18157351 81.64502192 7.17734174 79.8815918 7.17382812 C78.89958298 7.17129028 77.91757416 7.16875244 76.9058075 7.1661377 C73.90848616 7.18955806 70.96663981 7.39133025 67.984375 7.6875 C53.31008236 8.89341852 39.13198427 7.78454669 24.546875 6.1875 C21.86320264 5.89946313 19.17930641 5.61385403 16.49502563 5.33154297 C14.84291464 5.15721401 13.19116873 4.97937493 11.53988647 4.79736328 C7.39359953 4.35388508 3.34988944 4.0943039 -0.828125 4.1875 Z " fill="#444444" transform="translate(216.828125,51.8125)"/>
<path d="M0 0 C2.475 0.99 2.475 0.99 5 2 C5.3125 4.8125 5.3125 4.8125 5 8 C2.5 9.875 2.5 9.875 0 11 C0 7.37 0 3.74 0 0 Z " fill="#4D4D4D" transform="translate(259,95)"/>
</svg>
