<?xml version="1.0" encoding="UTF-8"?>
<svg version="1.1" xmlns="http://www.w3.org/2000/svg" width="500" height="500">
<path d="M0 0 C7.7439829 0.06861915 15.38547478 1.08077191 23.06954956 1.95861816 C38.89828923 3.74133888 54.00177712 4.49666836 69.92089844 3.35839844 C74.17784591 3.09588924 78.42750708 3.06095311 82.69140625 3.06640625 C83.39515381 3.0622168 84.09890137 3.05802734 84.82397461 3.05371094 C89.50321978 3.06571978 89.50321978 3.06571978 90.62890625 4.19140625 C91.07388561 13.87052526 90.38710835 23.48378082 89.62890625 33.12890625 C88.41417658 49.96867787 88.48388067 66.7820369 88.61523438 83.65795898 C88.62188614 84.68002441 88.6285379 85.70208984 88.63539124 86.75512695 C88.6490505 88.6958417 88.66745475 90.63653024 88.69114685 92.57714844 C88.6975972 93.43590576 88.70404755 94.29466309 88.71069336 95.17944336 C88.71894638 95.93341904 88.7271994 96.68739471 88.73570251 97.46421814 C88.62890625 99.19140625 88.62890625 99.19140625 87.62890625 100.19140625 C84.66120256 100.29852082 81.72215535 100.33039498 78.75390625 100.31640625 C77.3155542 100.3167688 77.3155542 100.3167688 75.84814453 100.31713867 C69.67859229 100.29268296 63.52608192 100.12496835 57.36328125 99.859375 C40.80390092 99.16999108 25.07979518 99.28607591 8.59765625 101.5 C2.95624883 102.23268604 -2.68636322 102.61157614 -8.37109375 102.19140625 C-9.37109375 101.19140625 -9.37109375 101.19140625 -9.49951172 98.84521484 C-9.45735755 86.15680971 -9.04629696 73.47914268 -8.62646484 60.79833984 C-8.49753797 56.86051703 -8.37750748 52.92248777 -8.2578125 48.984375 C-7.86238779 36.58266565 -7.33292916 24.2113411 -6.36328125 11.83984375 C-6.28071075 10.77391998 -6.19814026 9.70799622 -6.11306763 8.60977173 C-5.39257306 0.04514133 -5.39257306 0.04514133 0 0 Z " fill="#313131" transform="translate(210.37109375,307.80859375)"/>
<path d="M0 0 C12.21 0 24.42 0 37 0 C37 5.94 37 11.88 37 18 C30.07 18 23.14 18 16 18 C16 20.97 16 23.94 16 27 C19.96 27 23.92 27 28 27 C28 29.97 28 32.94 28 36 C24.04 36 20.08 36 16 36 C16 38.31 16 40.62 16 43 C22.27 43 28.54 43 35 43 C35 46.63 35 50.26 35 54 C23.78 54 12.56 54 1 54 C0.00706191 51.02118573 -0.12119785 49.08512761 -0.11352539 45.9777832 C-0.11344986 44.95695145 -0.11337433 43.93611969 -0.11329651 42.88435364 C-0.10813522 41.78427475 -0.10297394 40.68419586 -0.09765625 39.55078125 C-0.0962413 38.4230278 -0.09482635 37.29527435 -0.09336853 36.13334656 C-0.0877647 32.52637088 -0.07521153 28.91945696 -0.0625 25.3125 C-0.05748549 22.86914152 -0.0529225 20.42578207 -0.04882812 17.98242188 C-0.03864433 11.98823824 -0.01906953 5.99418836 0 0 Z " fill="#F9F9F9" transform="translate(233,329)"/>
<path d="M0 0 C7.7439829 0.06861915 15.38547478 1.08077191 23.06954956 1.95861816 C38.89828923 3.74133888 54.00177712 4.49666836 69.92089844 3.35839844 C74.17784591 3.09588924 78.42750708 3.06095311 82.69140625 3.06640625 C83.39515381 3.0622168 84.09890137 3.05802734 84.82397461 3.05371094 C89.50321978 3.06571978 89.50321978 3.06571978 90.62890625 4.19140625 C91.07388561 13.87052526 90.38710835 23.48378082 89.62890625 33.12890625 C88.41417658 49.96867787 88.48388067 66.7820369 88.61523438 83.65795898 C88.62188614 84.68002441 88.6285379 85.70208984 88.63539124 86.75512695 C88.6490505 88.6958417 88.66745475 90.63653024 88.69114685 92.57714844 C88.6975972 93.43590576 88.70404755 94.29466309 88.71069336 95.17944336 C88.71894638 95.93341904 88.7271994 96.68739471 88.73570251 97.46421814 C88.62890625 99.19140625 88.62890625 99.19140625 87.62890625 100.19140625 C84.66120256 100.29852082 81.72215535 100.33039498 78.75390625 100.31640625 C77.3155542 100.3167688 77.3155542 100.3167688 75.84814453 100.31713867 C69.67859229 100.29268296 63.52608192 100.12496835 57.36328125 99.859375 C40.80390092 99.16999108 25.07979518 99.28607591 8.59765625 101.5 C2.95624883 102.23268604 -2.68636322 102.61157614 -8.37109375 102.19140625 C-9.37109375 101.19140625 -9.37109375 101.19140625 -9.49951172 98.84521484 C-9.45735755 86.15680971 -9.04629696 73.47914268 -8.62646484 60.79833984 C-8.49753797 56.86051703 -8.37750748 52.92248777 -8.2578125 48.984375 C-7.86238779 36.58266565 -7.33292916 24.2113411 -6.36328125 11.83984375 C-6.28071075 10.77391998 -6.19814026 9.70799622 -6.11306763 8.60977173 C-5.39257306 0.04514133 -5.39257306 0.04514133 0 0 Z M-1.37109375 4.19140625 C-2.98758055 20.28528694 -3.86081454 36.34602825 -4.37646484 52.51049805 C-4.49697042 56.28133881 -4.62667792 60.05178088 -4.7578125 63.82226562 C-5.34388308 81.00278731 -5.34388308 81.00278731 -5.37109375 98.19140625 C4.68632561 97.71103196 4.68632561 97.71103196 14.69140625 96.64453125 C26.960959 94.9341078 39.04891968 95.24711532 51.38989258 95.73388672 C52.82242169 95.79020951 54.25495752 95.84636193 55.6875 95.90234375 C56.39286392 95.93012909 57.09822784 95.95791443 57.82496643 95.98654175 C66.7573334 96.31000822 75.69223475 96.24366409 84.62890625 96.19140625 C84.61843262 94.960271 84.60795898 93.72913574 84.59716797 92.46069336 C84.42360112 70.08085227 84.39847566 47.84629341 86.19140625 25.52734375 C86.6724743 19.40688029 86.72902217 13.32767798 86.62890625 7.19140625 C79.80074826 7.1147344 73.02969873 7.06278279 66.21484375 7.5546875 C50.48792793 8.6040122 35.49985951 7.47359445 19.88085938 5.66503906 C19.06352325 5.57079147 18.24618713 5.47654388 17.40408325 5.37944031 C15.87453118 5.20061188 14.34555175 5.01677747 12.81735229 4.82673645 C8.05369089 4.25793336 3.42717582 4.11286214 -1.37109375 4.19140625 Z " fill="#444444" transform="translate(210.37109375,307.80859375)"/>
</svg>
