<?xml version="1.0" encoding="UTF-8"?>
<svg version="1.1" xmlns="http://www.w3.org/2000/svg" width="500" height="500">
<path d="M0 0 C6.01296481 0.02461137 11.90004216 0.39948935 17.87635803 1.03981018 C19.7757681 1.22923397 21.67535365 1.4169043 23.5750885 1.6030426 C24.5618457 1.69991364 25.54860291 1.79678467 26.56526184 1.89659119 C48.12826988 3.98125781 69.26560133 4.42891002 90.89584351 3.2709198 C92.61579693 3.18671607 94.33809144 3.15261028 96.05995178 3.12965393 C96.55495178 3.62465393 96.55495178 3.62465393 97.05995178 4.12965393 C96.97228715 12.32555376 95.95057867 20.48916046 94.83338928 28.59840393 C94.72109985 29.41542786 94.60881042 30.23245178 94.49311829 31.07423401 C94.02686866 34.43739442 93.55605905 37.79968465 93.06581116 41.15943909 C91.48032321 52.10312126 90.75020135 62.08852105 92.05995178 73.12965393 C92.24460999 74.7161676 92.24460999 74.7161676 92.43299866 76.33473206 C92.80030429 79.27129352 93.20252234 82.20019402 93.62245178 85.12965393 C95.36643954 97.34567981 95.36643954 97.34567981 95.05995178 103.12965393 C93.46443688 104.72516883 91.86072701 104.31960283 89.64198303 104.34840393 C84.55886498 104.30269097 79.65457204 103.75561397 74.63417053 103.03590393 C73.85796356 102.92502441 73.08175659 102.8141449 72.2820282 102.6999054 C71.47784454 102.58487671 70.67366089 102.46984802 69.84510803 102.35133362 C49.95656566 99.51245752 30.50705547 98.67078713 10.42591858 98.96363831 C8.99417549 98.98451508 8.99417549 98.98451508 7.5335083 99.0058136 C5.7353813 99.03565307 3.93734549 99.071862 2.13949585 99.11531067 C0.11339166 99.15637695 -1.91361503 99.14844703 -3.94004822 99.12965393 C-5.78795096 97.28175119 -5.11414885 94.35585762 -5.12754822 91.87965393 C-5.11777681 86.70364416 -4.82442094 81.64919056 -4.21530151 76.51008606 C-2.51763735 61.85879866 -2.74075119 47.18992363 -2.86100769 32.46870422 C-2.89977306 27.57268089 -2.92738216 22.67659984 -2.94873047 17.7804718 C-2.96098312 15.18852089 -2.97858231 12.59658864 -3.00204468 10.00471497 C-3.01184105 8.27460175 -3.01184105 8.27460175 -3.02183533 6.50953674 C-3.03008835 5.49143921 -3.03834137 4.47334167 -3.04684448 3.4243927 C-2.91360743 0.56151885 -2.85512513 0.19080876 0 0 Z " fill="#313131" transform="translate(197.94004821777344,179.87034606933594)"/>
<path d="M0 0 C6.46811898 3.73806876 10.79409791 8.69531983 13.08984375 15.84375 C14.69659522 22.96126064 13.47813216 28.10623568 10.2421875 34.578125 C9.34208134 37.70263146 10.06334173 39.11640025 11.5625 41.9375 C12.119375 42.453125 12.67625 42.96875 13.25 43.5 C13.683125 43.974375 14.11625 44.44875 14.5625 44.9375 C14.35229114 47.8742414 13.67226869 48.83540889 11.49609375 50.859375 C10.26052734 51.76429688 10.26052734 51.76429688 9 52.6875 C8.17371094 53.30109375 7.34742188 53.9146875 6.49609375 54.546875 C5.53896484 55.23523438 5.53896484 55.23523438 4.5625 55.9375 C3.840625 55.256875 3.11875 54.57625 2.375 53.875 C-0.23942819 51.64316072 -0.23942819 51.64316072 -3.125 52.125 C-5.42372081 52.87834453 -5.42372081 52.87834453 -7.4375 53.9375 C-16.62362145 54.68088555 -25.02926221 55.2060089 -32.4375 48.9375 C-37.65386935 44.18275626 -40.80061037 38.82032049 -41.71875 31.78125 C-42.15941413 21.35219881 -38.16020497 12.74138226 -31.4375 4.9375 C-22.96169163 -2.91319452 -10.51214078 -4.83463056 0 0 Z " fill="#FBFBFB" transform="translate(254.4375,201.0625)"/>
<path d="M0 0 C6.01296481 0.02461137 11.90004216 0.39948935 17.87635803 1.03981018 C19.7757681 1.22923397 21.67535365 1.4169043 23.5750885 1.6030426 C24.5618457 1.69991364 25.54860291 1.79678467 26.56526184 1.89659119 C48.12826988 3.98125781 69.26560133 4.42891002 90.89584351 3.2709198 C92.61579693 3.18671607 94.33809144 3.15261028 96.05995178 3.12965393 C96.55495178 3.62465393 96.55495178 3.62465393 97.05995178 4.12965393 C96.97228715 12.32555376 95.95057867 20.48916046 94.83338928 28.59840393 C94.72109985 29.41542786 94.60881042 30.23245178 94.49311829 31.07423401 C94.02686866 34.43739442 93.55605905 37.79968465 93.06581116 41.15943909 C91.48032321 52.10312126 90.75020135 62.08852105 92.05995178 73.12965393 C92.24460999 74.7161676 92.24460999 74.7161676 92.43299866 76.33473206 C92.80030429 79.27129352 93.20252234 82.20019402 93.62245178 85.12965393 C95.36643954 97.34567981 95.36643954 97.34567981 95.05995178 103.12965393 C93.46443688 104.72516883 91.86072701 104.31960283 89.64198303 104.34840393 C84.55886498 104.30269097 79.65457204 103.75561397 74.63417053 103.03590393 C73.85796356 102.92502441 73.08175659 102.8141449 72.2820282 102.6999054 C71.47784454 102.58487671 70.67366089 102.46984802 69.84510803 102.35133362 C49.95656566 99.51245752 30.50705547 98.67078713 10.42591858 98.96363831 C8.99417549 98.98451508 8.99417549 98.98451508 7.5335083 99.0058136 C5.7353813 99.03565307 3.93734549 99.071862 2.13949585 99.11531067 C0.11339166 99.15637695 -1.91361503 99.14844703 -3.94004822 99.12965393 C-5.78795096 97.28175119 -5.11414885 94.35585762 -5.12754822 91.87965393 C-5.11777681 86.70364416 -4.82442094 81.64919056 -4.21530151 76.51008606 C-2.51763735 61.85879866 -2.74075119 47.18992363 -2.86100769 32.46870422 C-2.89977306 27.57268089 -2.92738216 22.67659984 -2.94873047 17.7804718 C-2.96098312 15.18852089 -2.97858231 12.59658864 -3.00204468 10.00471497 C-3.01184105 8.27460175 -3.01184105 8.27460175 -3.02183533 6.50953674 C-3.03008835 5.49143921 -3.03834137 4.47334167 -3.04684448 3.4243927 C-2.91360743 0.56151885 -2.85512513 0.19080876 0 0 Z M0.05995178 4.12965393 C0.09024475 4.77998596 0.12053772 5.43031799 0.15174866 6.10035706 C2.39224236 55.70144074 2.39224236 55.70144074 -0.50254822 79.58668518 C-1.09569494 84.76397559 -1.02786803 89.92572 -0.94004822 95.12965393 C0.73722351 95.09037781 0.73722351 95.09037781 2.44837952 95.05030823 C28.03595867 94.50661898 52.81677721 95.52580897 78.13963318 99.36740112 C82.51370748 100.01127621 86.65528525 100.2302417 91.05995178 100.12965393 C90.93877991 99.14682434 90.81760803 98.16399475 90.69276428 97.15138245 C90.24004218 93.46746451 89.79448424 89.78270805 89.35096741 86.09767151 C89.15887809 84.50987281 88.96490619 82.9223006 88.76893616 81.3349762 C88.48585281 79.03925688 88.20979179 76.74277925 87.93495178 74.44606018 C87.84745667 73.74880325 87.75996155 73.05154633 87.66981506 72.3331604 C86.61774856 63.39952555 87.17144812 54.97162775 88.37245178 46.07496643 C88.50562805 45.05160187 88.63880432 44.0282373 88.77601624 42.97386169 C89.19859357 39.73339037 89.62887418 36.49400442 90.05995178 33.25465393 C90.48967975 29.99372048 90.91777407 26.73258389 91.34388733 23.47117615 C91.60857312 21.44866362 91.87558289 19.42645359 92.14515686 17.40458679 C92.26528137 16.49288727 92.38540588 15.58118774 92.50917053 14.64186096 C92.61575989 13.84071869 92.72234924 13.03957642 92.83216858 12.2141571 C93.11426575 9.98209798 93.11426575 9.98209798 93.05995178 7.12965393 C91.59585876 7.20651428 91.59585876 7.20651428 90.10218811 7.28492737 C64.72449456 8.5500887 40.05901453 7.57117467 14.80548096 4.76498413 C9.85729726 4.23180512 5.03746867 4.0469556 0.05995178 4.12965393 Z " fill="#444444" transform="translate(197.94004821777344,179.87034606933594)"/>
<path d="M0 0 C3.27632002 1.28203827 4.34274572 1.9753662 5.875 5.125 C6.28264153 9.03835865 6.07971165 11.81793253 3.875 15.125 C0.7917365 16.66663175 -1.73378099 16.42247535 -5.125 16.125 C-7.6889075 13.97462597 -8.05447365 12.53052654 -8.625 9.25 C-7.81571739 4.19198368 -5.58485434 0.22339417 0 0 Z " fill="#4A4A4A" transform="translate(241.125,218.875)"/>
</svg>
