<?xml version="1.0" encoding="UTF-8"?>
<svg version="1.1" xmlns="http://www.w3.org/2000/svg" width="500" height="500">
<path d="M0 0 C2.96865119 0.02859402 5.9037431 0.13215636 8.8671875 0.28515625 C10.31035843 0.35573997 10.31035843 0.35573997 11.78268433 0.42774963 C25.36446085 1.12876705 38.92946573 2.11205693 52.49267578 3.10180664 C56.39892877 3.38642013 60.30586714 3.66021585 64.21304512 3.93179226 C67.25204382 4.1448723 70.29045899 4.36551392 73.32876205 4.588274 C74.77103602 4.69273203 76.2135157 4.79439097 77.65619278 4.89312553 C79.65563957 5.03068733 81.65426802 5.179992 83.65283203 5.32983398 C84.78560577 5.41120102 85.91837952 5.49256805 87.08547974 5.57640076 C89.83624395 5.97619953 91.63354878 6.58583628 94 8 C94.27794008 16.77055351 93.7858137 25.33273815 93 34.0625 C91.81659736 47.48054409 92.0427519 60.51040396 92.6394043 73.95336914 C93.38070645 91.10593976 93.38070645 91.10593976 93 99 C91.30771229 100.69228771 89.2440432 100.15166623 86.91796875 100.15625 C75.31082985 100.06760964 63.72663546 99.08100233 52.15161133 98.28173828 C41.72226095 97.56694404 31.31317146 96.86718753 20.85546875 96.84375 C19.78344963 96.83970154 19.78344963 96.83970154 18.68977356 96.83557129 C14.69166784 96.86334157 10.92613045 97.26596243 7 98 C5.39751715 98.08447196 3.79219839 98.13046746 2.1875 98.125 C1.41792969 98.12757813 0.64835938 98.13015625 -0.14453125 98.1328125 C-2 98 -2 98 -3 97 C-3.36149376 89.31294151 -3.06081909 81.58248346 -2.65881348 73.90190125 C-1.80100293 57.49414749 -1.66007741 41.07333507 -1.44775391 24.6472168 C-1.39724199 20.7686406 -1.33912136 16.89019214 -1.28125 13.01171875 C-1.26767456 11.81721603 -1.25409912 10.62271332 -1.2401123 9.39201355 C-1.22339478 8.30189468 -1.20667725 7.21177582 -1.18945312 6.08862305 C-1.17692505 5.1268364 -1.16439697 4.16504974 -1.15148926 3.17411804 C-1 1 -1 1 0 0 Z " fill="#313131" transform="translate(211,161)"/>
<path d="M0 0 C0.495 0.495 0.495 0.495 1 1 C0.85665573 6.23757909 -0.11791216 11.10657161 -2 16 C-7.75 16.125 -7.75 16.125 -10 15 C-12.3329866 14.95977609 -14.66706666 14.95679753 -17 15 C-16.67 15.99 -16.34 16.98 -16 18 C-13.15318433 19.33464427 -13.15318433 19.33464427 -9.75 20.4375 C0.47030717 23.94061433 0.47030717 23.94061433 3 29 C3.59106487 34.68331608 3.27243416 39.14777003 0 44 C-5.53259962 48.9928338 -8.90687991 49.18206673 -16.0625 49.1875 C-16.88427734 49.19974609 -17.70605469 49.21199219 -18.55273438 49.22460938 C-24.28137049 49.23813094 -29.46679691 48.47235089 -35 47 C-34.49383532 41.43291263 -33.70233051 36.33396892 -32 31 C-27.71 31.33 -23.42 31.66 -19 32 C-19 31.34 -19 30.68 -19 30 C-20.21236328 29.56300781 -20.21236328 29.56300781 -21.44921875 29.1171875 C-32.99483344 24.68835098 -32.99483344 24.68835098 -36 19 C-36.89057506 13.99153659 -36.58718143 10.21953066 -34.375 5.625 C-25.28312864 -4.42391045 -12.18569836 -3.51113343 0 0 Z " fill="#F9F9F9" transform="translate(274,187)"/>
<path d="M0 0 C2.96865119 0.02859402 5.9037431 0.13215636 8.8671875 0.28515625 C10.31035843 0.35573997 10.31035843 0.35573997 11.78268433 0.42774963 C25.36446085 1.12876705 38.92946573 2.11205693 52.49267578 3.10180664 C56.39892877 3.38642013 60.30586714 3.66021585 64.21304512 3.93179226 C67.25204382 4.1448723 70.29045899 4.36551392 73.32876205 4.588274 C74.77103602 4.69273203 76.2135157 4.79439097 77.65619278 4.89312553 C79.65563957 5.03068733 81.65426802 5.179992 83.65283203 5.32983398 C84.78560577 5.41120102 85.91837952 5.49256805 87.08547974 5.57640076 C89.83624395 5.97619953 91.63354878 6.58583628 94 8 C94.27794008 16.77055351 93.7858137 25.33273815 93 34.0625 C91.81659736 47.48054409 92.0427519 60.51040396 92.6394043 73.95336914 C93.38070645 91.10593976 93.38070645 91.10593976 93 99 C91.30771229 100.69228771 89.2440432 100.15166623 86.91796875 100.15625 C75.31082985 100.06760964 63.72663546 99.08100233 52.15161133 98.28173828 C41.72226095 97.56694404 31.31317146 96.86718753 20.85546875 96.84375 C19.78344963 96.83970154 19.78344963 96.83970154 18.68977356 96.83557129 C14.69166784 96.86334157 10.92613045 97.26596243 7 98 C5.39751715 98.08447196 3.79219839 98.13046746 2.1875 98.125 C1.41792969 98.12757813 0.64835938 98.13015625 -0.14453125 98.1328125 C-2 98 -2 98 -3 97 C-3.36149376 89.31294151 -3.06081909 81.58248346 -2.65881348 73.90190125 C-1.80100293 57.49414749 -1.66007741 41.07333507 -1.44775391 24.6472168 C-1.39724199 20.7686406 -1.33912136 16.89019214 -1.28125 13.01171875 C-1.26767456 11.81721603 -1.25409912 10.62271332 -1.2401123 9.39201355 C-1.22339478 8.30189468 -1.20667725 7.21177582 -1.18945312 6.08862305 C-1.17692505 5.1268364 -1.16439697 4.16504974 -1.15148926 3.17411804 C-1 1 -1 1 0 0 Z M2 4 C1.98969254 4.62544205 1.97938507 5.25088409 1.96876526 5.89527893 C1.85876151 12.53287276 1.74437609 19.17038177 1.62768555 25.80786133 C1.58494375 28.26975696 1.54324048 30.73167089 1.50268555 33.19360352 C1.28008705 46.66218652 0.98944642 60.11598504 0.33253479 73.57130432 C0.00118169 80.38794323 -0.1179073 87.17447742 0 94 C0.86044922 93.89171875 0.86044922 93.89171875 1.73828125 93.78125 C19.48965041 91.84179844 37.37349917 93.30821255 55.125 94.5 C58.39974963 94.71628444 61.67459634 94.93074612 64.94967651 95.14196777 C66.96561226 95.27231941 68.98135837 95.40565366 70.99685669 95.54260254 C76.6792188 95.91397515 82.30537432 96.06119337 88 96 C88.12649032 87.10351407 87.9188581 78.26201349 87.5 69.375 C86.89484661 55.99939342 87.03221321 43.09103486 88.28833008 29.75024414 C89.15226119 20.38877511 89.15226119 20.38877511 89 11 C87.02266077 9.02266077 83.24535752 9.52681205 80.53027344 9.33569336 C79.74811966 9.27702591 78.96596588 9.21835846 78.16011047 9.15791321 C75.56017533 8.96407688 72.9598076 8.77687876 70.359375 8.58984375 C68.55671664 8.45710019 66.75408426 8.32400341 64.95147705 8.19056702 C61.16528012 7.91125234 57.3788769 7.63499341 53.59228516 7.36108398 C48.74189694 7.01015648 43.89193993 6.65365446 39.04211044 6.2950964 C35.31558485 6.01987871 31.5889146 5.74666553 27.86219025 5.47415352 C26.07441603 5.34336906 24.28667059 5.21219054 22.49895477 5.08061028 C19.99520412 4.89682587 17.49128756 4.71550155 14.98730469 4.53491211 C14.24944229 4.48037872 13.5115799 4.42584534 12.75135803 4.36965942 C9.1597956 4.11327532 5.60094358 3.93983049 2 4 Z " fill="#444444" transform="translate(211,161)"/>
</svg>
