<?xml version="1.0" encoding="UTF-8"?>
<svg version="1.1" xmlns="http://www.w3.org/2000/svg" width="500" height="500">
<path d="M0 0 C1.03693497 0.00080566 2.07386993 0.00161133 3.14222717 0.00244141 C4.24518631 0.00324707 5.34814545 0.00405273 6.48452759 0.00488281 C16.33344809 0.07324115 26.14555954 0.52711051 35.97816467 1.06494141 C37.18353095 1.13063544 37.18353095 1.13063544 38.41324806 1.19765663 C41.77776642 1.38166807 45.14219983 1.56717746 48.50657749 1.75374317 C72.72862679 3.09604239 96.9184092 4.4200728 121.18519592 4.20947266 C122.38810178 4.19908525 122.38810178 4.19908525 123.61530876 4.18848801 C129.90656083 4.13017166 136.19755088 4.05131438 142.48859024 3.97390747 C167.64221078 3.6783204 191.58367973 5.58750728 216.39044189 10.11064148 C227.64084158 12.09943671 237.88123104 10.98996774 249.10707092 9.18994141 C265.84674888 6.52312511 265.84674888 6.52312511 272.98207092 7.18994141 C273.98207092 8.18994141 273.98207092 8.18994141 274.17347717 12.07666016 C274.10885696 18.70669354 273.26272912 25.24065 272.50843811 31.8190918 C270.4930748 49.41371627 269.73675007 66.19505954 270.81507874 83.90332031 C271.09511249 89.41474492 271.11224961 94.92248015 271.10707092 100.43994141 C271.11126038 101.41777588 271.11544983 102.39561035 271.11976624 103.40307617 C271.11815491 104.28664795 271.11654358 105.17021973 271.11488342 106.08056641 C271.11375549 106.85432617 271.11262756 107.62808594 271.11146545 108.42529297 C270.98207092 110.18994141 270.98207092 110.18994141 269.98207092 111.18994141 C267.6083428 111.30585019 265.27430488 111.35319345 262.90003967 111.34326172 C262.18019394 111.34119343 261.46034821 111.33912514 260.71868896 111.33699417 C253.8911172 111.26863191 247.14731518 110.68770241 240.35943794 109.95715714 C236.69419792 109.56604156 233.02532216 109.2115958 229.35682678 108.85253906 C228.5940766 108.7774581 227.83132643 108.70237713 227.04546261 108.62502098 C200.66396099 106.03888363 175.69579196 104.31429244 149.35923767 108.41969299 C133.37703071 110.72156432 116.72837525 109.10648502 100.66419983 108.39257812 C83.49008902 107.63625316 66.32697343 107.11285806 49.13832092 106.90478516 C48.34211838 106.89493151 47.54591583 106.88507786 46.72558594 106.87492561 C38.79076971 106.77786566 30.85599644 106.69399308 22.920784 106.63748264 C19.95439112 106.61473268 16.98810053 106.58460231 14.02178955 106.55305672 C12.63486575 106.54028059 11.24790365 106.53109203 9.8609314 106.52572441 C7.95203813 106.51825986 6.04320809 106.49795288 4.13441467 106.47705078 C3.06183411 106.46975952 1.98925354 106.46246826 0.88417053 106.45495605 C-2.10449598 106.18203627 -4.3084616 105.44774093 -7.01792908 104.18994141 C-6.8754925 100.96061566 -6.72893212 97.73149382 -6.58042908 94.50244141 C-6.51384094 93.05140015 -6.51384094 93.05140015 -6.44590759 91.57104492 C-6.20836345 86.57760815 -5.91281883 81.60645561 -5.45542908 76.62744141 C-4.174572 59.99729707 -5.39664313 43.67769737 -6.95054626 27.11938477 C-8.56593155 9.65818095 -8.56593155 9.65818095 -8.01792908 1.18994141 C-6.08090674 -0.74708093 -2.5984193 0.02037011 0 0 Z " fill="#313131" transform="translate(149.01792907714844,177.81005859375)"/>
<path d="M0 0 C1.03693497 0.00080566 2.07386993 0.00161133 3.14222717 0.00244141 C4.24518631 0.00324707 5.34814545 0.00405273 6.48452759 0.00488281 C16.33344809 0.07324115 26.14555954 0.52711051 35.97816467 1.06494141 C37.18353095 1.13063544 37.18353095 1.13063544 38.41324806 1.19765663 C41.77776642 1.38166807 45.14219983 1.56717746 48.50657749 1.75374317 C72.72862679 3.09604239 96.9184092 4.4200728 121.18519592 4.20947266 C122.38810178 4.19908525 122.38810178 4.19908525 123.61530876 4.18848801 C129.90656083 4.13017166 136.19755088 4.05131438 142.48859024 3.97390747 C167.64221078 3.6783204 191.58367973 5.58750728 216.39044189 10.11064148 C227.64084158 12.09943671 237.88123104 10.98996774 249.10707092 9.18994141 C265.84674888 6.52312511 265.84674888 6.52312511 272.98207092 7.18994141 C273.98207092 8.18994141 273.98207092 8.18994141 274.17347717 12.07666016 C274.10885696 18.70669354 273.26272912 25.24065 272.50843811 31.8190918 C270.4930748 49.41371627 269.73675007 66.19505954 270.81507874 83.90332031 C271.09511249 89.41474492 271.11224961 94.92248015 271.10707092 100.43994141 C271.11126038 101.41777588 271.11544983 102.39561035 271.11976624 103.40307617 C271.11815491 104.28664795 271.11654358 105.17021973 271.11488342 106.08056641 C271.11375549 106.85432617 271.11262756 107.62808594 271.11146545 108.42529297 C270.98207092 110.18994141 270.98207092 110.18994141 269.98207092 111.18994141 C267.6083428 111.30585019 265.27430488 111.35319345 262.90003967 111.34326172 C262.18019394 111.34119343 261.46034821 111.33912514 260.71868896 111.33699417 C253.8911172 111.26863191 247.14731518 110.68770241 240.35943794 109.95715714 C236.69419792 109.56604156 233.02532216 109.2115958 229.35682678 108.85253906 C228.5940766 108.7774581 227.83132643 108.70237713 227.04546261 108.62502098 C200.66396099 106.03888363 175.69579196 104.31429244 149.35923767 108.41969299 C133.37703071 110.72156432 116.72837525 109.10648502 100.66419983 108.39257812 C83.49008902 107.63625316 66.32697343 107.11285806 49.13832092 106.90478516 C48.34211838 106.89493151 47.54591583 106.88507786 46.72558594 106.87492561 C38.79076971 106.77786566 30.85599644 106.69399308 22.920784 106.63748264 C19.95439112 106.61473268 16.98810053 106.58460231 14.02178955 106.55305672 C12.63486575 106.54028059 11.24790365 106.53109203 9.8609314 106.52572441 C7.95203813 106.51825986 6.04320809 106.49795288 4.13441467 106.47705078 C3.06183411 106.46975952 1.98925354 106.46246826 0.88417053 106.45495605 C-2.10449598 106.18203627 -4.3084616 105.44774093 -7.01792908 104.18994141 C-6.8754925 100.96061566 -6.72893212 97.73149382 -6.58042908 94.50244141 C-6.51384094 93.05140015 -6.51384094 93.05140015 -6.44590759 91.57104492 C-6.20836345 86.57760815 -5.91281883 81.60645561 -5.45542908 76.62744141 C-4.174572 59.99729707 -5.39664313 43.67769737 -6.95054626 27.11938477 C-8.56593155 9.65818095 -8.56593155 9.65818095 -8.01792908 1.18994141 C-6.08090674 -0.74708093 -2.5984193 0.02037011 0 0 Z M-4.01792908 3.18994141 C-4.08704776 9.56070041 -3.9898203 15.80637022 -3.36167908 22.14697266 C-3.22402113 23.59190902 -3.08691579 25.03689812 -2.95030212 26.48193359 C-2.8791922 27.21972046 -2.80808228 27.95750732 -2.7348175 28.71765137 C-0.86081672 48.45913029 -0.71475935 67.57451797 -2.03746033 87.36181641 C-2.1325692 88.80630334 -2.22750042 90.25080198 -2.32225037 91.6953125 C-2.55209933 95.19365924 -2.78433804 98.6918423 -3.01792908 102.18994141 C-1.90114273 102.20207169 -1.90114273 102.20207169 -0.76179504 102.21444702 C8.86130059 102.32066824 18.48421946 102.43859313 28.10707092 102.56494141 C28.88361652 102.57510662 29.66016212 102.58527184 30.46023941 102.59574509 C54.43861643 102.91307747 78.38421776 103.49038395 102.34388733 104.52929688 C126.4288975 105.90004946 126.4288975 105.90004946 150.40003967 104.06884766 C189.00912931 98.04202587 228.39046513 104.25239952 266.98207092 108.18994141 C267.05277445 97.44780906 267.10991987 86.74867979 266.42323303 76.02392578 C265.32401655 57.93107523 267.2561827 40.22301748 269.34674072 22.266922 C269.77125346 18.55497114 270.08984894 14.92747956 269.98207092 11.18994141 C263.63408007 11.52687274 257.46216998 11.96360175 251.26722717 13.44384766 C234.5799433 17.15273988 220.41919104 15.37168729 203.73207092 12.43994141 C182.54684778 8.77471413 162.08689241 7.65882452 140.66957092 8.00244141 C108.33990923 8.50848771 76.20975713 7.32978753 43.91957092 5.68994141 C41.50855023 5.56840592 39.09752931 5.44687473 36.68650818 5.3253479 C23.11700132 4.63865732 9.54894386 3.92678537 -4.01792908 3.18994141 Z " fill="#444444" transform="translate(149.01792907714844,177.81005859375)"/>
<path d="M0 0 C7.26 0 14.52 0 22 0 C25.37526195 9.00069854 25.37526195 9.00069854 26.3503418 12.65600586 C26.57034348 13.47302475 26.79034515 14.29004364 27.01701355 15.13182068 C27.24214127 15.98421829 27.46726898 16.83661591 27.69921875 17.71484375 C27.9391304 18.61119034 28.17904205 19.50753693 28.42622375 20.43104553 C28.92802876 22.30875592 29.42793792 24.1869739 29.92602539 26.06567383 C30.69198336 28.95440857 31.46365511 31.84157051 32.23632812 34.72851562 C32.72428702 36.55720399 33.2119288 38.38597702 33.69921875 40.21484375 C33.93041916 41.08141098 34.16161957 41.94797821 34.39982605 42.84080505 C36 48.88256867 36 48.88256867 36 50 C31.05 50 26.1 50 21 50 C20.67 47.03 20.34 44.06 20 41 C16.37 41 12.74 41 9 41 C9 43.97 9 46.94 9 50 C2.73 50 -3.54 50 -10 50 C-9.41847004 39.89591694 -7.24988306 30.33296717 -5 20.5 C-4.62699922 18.84128175 -4.25459895 17.18242835 -3.8828125 15.5234375 C-3.52657167 13.94258881 -3.16981965 12.3618552 -2.8125 10.78125 C-2.64580811 10.0437854 -2.47911621 9.3063208 -2.30737305 8.54650879 C-1.64311362 5.6457046 -0.94177147 2.82531441 0 0 Z " fill="#F9F9F9" transform="translate(266,204)"/>
<path d="M0 0 C0.80308594 -0.02900391 1.60617188 -0.05800781 2.43359375 -0.08789062 C8.27404835 -0.14941891 12.62585535 1.02901717 17.5 4.3125 C21.6041463 8.62711534 22.86951743 12.1299418 22.78125 18.12109375 C22.12825205 23.20903615 19.70020242 27.11229758 16.125 30.6875 C11.01441401 33.85119609 7.58918529 34.3125 1.5 34.3125 C1.5 40.2525 1.5 46.1925 1.5 52.3125 C-4.77 52.3125 -11.04 52.3125 -17.5 52.3125 C-17.5 35.4825 -17.5 18.6525 -17.5 1.3125 C-11.52853848 0.56606731 -5.96775297 0.07184293 0 0 Z " fill="#F8F8F8" transform="translate(237.5,201.6875)"/>
<path d="M0 0 C-0.11674901 1.35490296 -0.24393423 2.70890696 -0.375 4.0625 C-0.44460937 4.81660156 -0.51421875 5.57070312 -0.5859375 6.34765625 C-1.09749423 9.62451493 -2.08887409 12.81105932 -3 16 C-8.28 15.34 -13.56 14.68 -19 14 C-18.67 14.99 -18.34 15.98 -18 17 C-14.94139046 18.33161416 -11.88481849 19.43532044 -8.72265625 20.48632812 C-3.58949358 22.34697353 -1.04215507 24.41935048 2 29 C3.09227655 33.31161794 2.29348036 37.18134426 0.8125 41.3125 C-1.5582219 44.82770834 -4.21280762 47.10640381 -8 49 C-11.0147397 49.23952065 -14.03929673 49.18520448 -17.0625 49.1875 C-17.88427734 49.19974609 -18.70605469 49.21199219 -19.55273438 49.22460938 C-25.28137049 49.23813094 -30.46679691 48.47235089 -36 47 C-36.38388527 40.98579743 -35.08764885 36.65404897 -33 31 C-26.07 31.495 -26.07 31.495 -19 32 C-19 31.01 -19 30.02 -19 29 C-20.06927734 28.77957031 -20.06927734 28.77957031 -21.16015625 28.5546875 C-27.64780946 27.03537168 -32.65710928 25.24424539 -37 20 C-38.24266632 16.27200105 -38.52902513 12.87217006 -38 9 C-35.24548071 3.69499988 -31.76194815 0.31521341 -26.375 -2.25 C-17.1842596 -4.29238676 -8.90607744 -2.61120595 0 0 Z " fill="#F9F9F9" transform="translate(216,205)"/>
<path d="M0 0 C11.55 0 23.1 0 35 0 C35 9 35 9 34 16 C27.4 16 20.8 16 14 16 C14 18.97 14 21.94 14 25 C17.96 25 21.92 25 26 25 C26 27.64 26 30.28 26 33 C22.37 33 18.74 33 15 33 C15 35.31 15 37.62 15 40 C20.61 40 26.22 40 32 40 C32 43.3 32 46.6 32 50 C21.44 50 10.88 50 0 50 C0 33.5 0 17 0 0 Z " fill="#FCFCFC" transform="translate(344,204)"/>
<path d="M0 0 C0.78052734 -0.00386719 1.56105469 -0.00773438 2.36523438 -0.01171875 C8.18414502 -0.00167749 8.18414502 -0.00167749 10.4375 1.125 C9.3693153 6.23865014 8.20642524 11.19727969 6.4375 16.125 C5.77363281 16.07859375 5.10976563 16.0321875 4.42578125 15.984375 C-1.32885783 15.72106782 -1.32885783 15.72106782 -6.5625 17.875 C-9.6546765 21.35369857 -10.84408487 24.02083558 -10.8125 28.6875 C-10.81765625 29.45191406 -10.8228125 30.21632812 -10.828125 31.00390625 C-10.6854561 33.42482762 -10.6854561 33.42482762 -8.5625 36.125 C-2.35742459 36.84892546 0.37367021 35.98315603 5.4375 32.125 C6.0975 32.125 6.7575 32.125 7.4375 32.125 C8.98046875 33.953125 8.98046875 33.953125 10.625 36.375 C11.17542969 37.16390625 11.72585938 37.9528125 12.29296875 38.765625 C13.4375 41.125 13.4375 41.125 13.38671875 43.25390625 C12.08606475 45.81774684 10.60103769 46.51036982 8.0625 47.8125 C7.27101563 48.22886719 6.47953125 48.64523438 5.6640625 49.07421875 C-0.22812201 51.85491635 -6.16052016 51.68546926 -12.5625 51.125 C-18.85923729 48.20151483 -22.9786411 43.24011686 -25.375 36.8125 C-27.77815965 28.60056017 -26.9330851 20.96445074 -23.5625 13.125 C-17.85754366 3.34747896 -11.24922553 -0.05601274 0 0 Z " fill="#F9F9F9" transform="translate(328.5625,202.875)"/>
<path d="M0 0 C2.475 0.495 2.475 0.495 5 1 C5.6875 3.8125 5.6875 3.8125 6 7 C4.75 8.875 4.75 8.875 3 10 C2.01 10 1.02 10 0 10 C0 6.7 0 3.4 0 0 Z " fill="#2A2A2A" transform="translate(238,212)"/>
<path d="M0 0 C1.98 0 3.96 0 6 0 C6.33 2.31 6.66 4.62 7 7 C4.36 7 1.72 7 -1 7 C-0.67 4.69 -0.34 2.38 0 0 Z " fill="#2A2A2A" transform="translate(277,228)"/>
</svg>
