<?xml version="1.0" encoding="UTF-8"?>
<svg version="1.1" xmlns="http://www.w3.org/2000/svg" width="500" height="500">
<path d="M0 0 C9.3000485 0.02618006 18.56085701 0.59436282 27.84057617 1.15707397 C29.63370591 1.26441351 31.42683746 1.37172297 33.2199707 1.47900391 C36.95515442 1.70347945 40.69014489 1.93092311 44.42504883 2.16000366 C49.21399903 2.453117 54.00355584 2.73468779 58.79335022 3.01361656 C62.48595776 3.23060077 66.17804111 3.45565494 69.87002563 3.68297195 C71.63691449 3.79039384 73.40398812 3.89482001 75.17123413 3.99619675 C77.63193507 4.13815662 80.09167862 4.29144447 82.55151367 4.44760132 C83.28085617 4.48716446 84.01019867 4.5267276 84.76164246 4.56748962 C88.3590961 4.808225 90.08067865 5.08537146 93.15307617 7.13363647 C93.50059509 9.6018219 93.50059509 9.6018219 93.46142578 12.75546265 C93.4503756 14.52630974 93.4503756 14.52630974 93.43910217 16.33293152 C93.40386696 18.2664875 93.40386696 18.2664875 93.36791992 20.23910522 C93.35370179 21.5901819 93.34077995 22.94127277 93.3290863 24.29237366 C93.29455855 27.85792446 93.24179577 31.42298332 93.18520355 34.9882431 C93.13371206 38.42672777 93.09950998 41.8653694 93.0637207 45.30404663 C92.99060153 52.00439276 92.89079625 58.70406505 92.78076172 65.40390015 C92.72419906 68.85108018 92.67459133 72.29832781 92.62635899 75.74563313 C92.57842896 79.07946711 92.5235476 82.41317762 92.46948242 85.74691772 C92.45276993 86.98194534 92.43605743 88.21697296 92.4188385 89.48942566 C92.39889328 90.61378525 92.37894806 91.73814484 92.35839844 92.89657593 C92.34285416 93.88752762 92.32730988 94.87847931 92.31129456 95.89945984 C92.15307617 98.13363647 92.15307617 98.13363647 91.15307617 99.13363647 C82.42530071 99.64607729 73.86947763 98.76859938 65.21557617 97.75863647 C47.15143518 95.8003199 29.02410212 95.33547143 10.87207031 94.78060913 C9.70977402 94.74377014 8.54747772 94.70693115 7.34996033 94.66897583 C5.13596055 94.59970048 2.92181305 94.53496502 0.70753479 94.47525024 C-0.27449417 94.44485657 -1.25652313 94.41446289 -2.26831055 94.38314819 C-3.13189178 94.35888763 -3.99547302 94.33462708 -4.88522339 94.30963135 C-6.84692383 94.13363647 -6.84692383 94.13363647 -7.84692383 93.13363647 C-8.19741266 86.28791837 -7.35327443 79.70263503 -6.47509766 72.92391968 C-4.02902478 53.98393195 -3.29429855 35.19807026 -3.08740234 16.10971069 C-3.07594177 15.12007828 -3.0644812 14.13044586 -3.05267334 13.11082458 C-3.03307951 11.2383464 -3.01881863 9.36580284 -3.01055908 7.49324036 C-2.94718185 0.21324701 -2.94718185 0.21324701 0 0 Z " fill="#313131" transform="translate(224.846923828125,195.86636352539063)"/>
<path d="M0 0 C16.83 0 33.66 0 51 0 C51 6.27 51 12.54 51 19 C45.39 19 39.78 19 34 19 C34 30.55 34 42.1 34 54 C27.4 54 20.8 54 14 54 C14.11976708 49.33672864 14.242358 44.67371485 14.37231445 40.01074219 C14.41567241 38.42387343 14.45734687 36.83695776 14.49731445 35.25 C14.55499632 32.97121021 14.61869638 30.69265678 14.68359375 28.4140625 C14.70866249 27.34679428 14.70866249 27.34679428 14.73423767 26.25796509 C14.88612829 21.22774341 14.88612829 21.22774341 16 19 C15.34 19.33 14.68 19.66 14 20 C9.33091139 20.13996069 4.67201378 20.04247285 0 20 C0 13.4 0 6.8 0 0 Z " fill="#FBFBFB" transform="translate(244,217)"/>
<path d="M0 0 C9.3000485 0.02618006 18.56085701 0.59436282 27.84057617 1.15707397 C29.63370591 1.26441351 31.42683746 1.37172297 33.2199707 1.47900391 C36.95515442 1.70347945 40.69014489 1.93092311 44.42504883 2.16000366 C49.21399903 2.453117 54.00355584 2.73468779 58.79335022 3.01361656 C62.48595776 3.23060077 66.17804111 3.45565494 69.87002563 3.68297195 C71.63691449 3.79039384 73.40398812 3.89482001 75.17123413 3.99619675 C77.63193507 4.13815662 80.09167862 4.29144447 82.55151367 4.44760132 C83.28085617 4.48716446 84.01019867 4.5267276 84.76164246 4.56748962 C88.3590961 4.808225 90.08067865 5.08537146 93.15307617 7.13363647 C93.50059509 9.6018219 93.50059509 9.6018219 93.46142578 12.75546265 C93.4503756 14.52630974 93.4503756 14.52630974 93.43910217 16.33293152 C93.40386696 18.2664875 93.40386696 18.2664875 93.36791992 20.23910522 C93.35370179 21.5901819 93.34077995 22.94127277 93.3290863 24.29237366 C93.29455855 27.85792446 93.24179577 31.42298332 93.18520355 34.9882431 C93.13371206 38.42672777 93.09950998 41.8653694 93.0637207 45.30404663 C92.99060153 52.00439276 92.89079625 58.70406505 92.78076172 65.40390015 C92.72419906 68.85108018 92.67459133 72.29832781 92.62635899 75.74563313 C92.57842896 79.07946711 92.5235476 82.41317762 92.46948242 85.74691772 C92.45276993 86.98194534 92.43605743 88.21697296 92.4188385 89.48942566 C92.39889328 90.61378525 92.37894806 91.73814484 92.35839844 92.89657593 C92.34285416 93.88752762 92.32730988 94.87847931 92.31129456 95.89945984 C92.15307617 98.13363647 92.15307617 98.13363647 91.15307617 99.13363647 C82.42530071 99.64607729 73.86947763 98.76859938 65.21557617 97.75863647 C47.15143518 95.8003199 29.02410212 95.33547143 10.87207031 94.78060913 C9.70977402 94.74377014 8.54747772 94.70693115 7.34996033 94.66897583 C5.13596055 94.59970048 2.92181305 94.53496502 0.70753479 94.47525024 C-0.27449417 94.44485657 -1.25652313 94.41446289 -2.26831055 94.38314819 C-3.13189178 94.35888763 -3.99547302 94.33462708 -4.88522339 94.30963135 C-6.84692383 94.13363647 -6.84692383 94.13363647 -7.84692383 93.13363647 C-8.19741266 86.28791837 -7.35327443 79.70263503 -6.47509766 72.92391968 C-4.02902478 53.98393195 -3.29429855 35.19807026 -3.08740234 16.10971069 C-3.07594177 15.12007828 -3.0644812 14.13044586 -3.05267334 13.11082458 C-3.03307951 11.2383464 -3.01881863 9.36580284 -3.01055908 7.49324036 C-2.94718185 0.21324701 -2.94718185 0.21324701 0 0 Z M1.15307617 4.13363647 C1.14373047 5.30829468 1.13438477 6.48295288 1.12475586 7.69320679 C0.89383697 32.67213305 -0.15613241 57.20892648 -3.49560547 81.97543335 C-3.802866 84.73757529 -3.87336826 87.36048119 -3.84692383 90.13363647 C-2.99511536 90.16122795 -2.99511536 90.16122795 -2.12609863 90.18937683 C50.4644814 91.90979149 50.4644814 91.90979149 75.88964844 94.88998413 C80.29926368 95.21921253 84.73118766 95.13363647 89.15307617 95.13363647 C89.15307617 66.75363647 89.15307617 38.37363647 89.15307617 9.13363647 C69.60057617 7.89613647 69.60057617 7.89613647 49.65307617 6.63363647 C45.5493457 6.37260132 41.44561523 6.11156616 37.2175293 5.84262085 C33.5133876 5.60943896 33.5133876 5.60943896 29.8092041 5.37692261 C28.1694974 5.27367713 26.52985237 5.16944911 24.89025879 5.06442261 C22.39532444 4.90480282 19.90020726 4.74838006 17.4050293 4.59262085 C16.68434517 4.54577904 15.96366104 4.49893723 15.221138 4.45067596 C10.52307179 4.16178622 5.86015989 4.09488215 1.15307617 4.13363647 Z " fill="#444444" transform="translate(224.846923828125,195.86636352539063)"/>
</svg>
