<?xml version="1.0" encoding="UTF-8"?>
<svg version="1.1" xmlns="http://www.w3.org/2000/svg" width="500" height="500">
<path d="M0 0 C3.05436758 0.01291487 6.0751171 0.10816294 9.125 0.25 C10.14400391 0.29374756 11.16300781 0.33749512 12.21289062 0.38256836 C19.885882 0.73918659 27.5472693 1.22258913 35.2109375 1.73828125 C69.78494031 4.30230092 69.78494031 4.30230092 104.38671875 3.234375 C122.19701531 2.07911252 140.43944609 2.60510165 158 6 C159.79181584 7.79181584 159.16806135 10.39411601 159.1796875 12.81640625 C159.11729219 21.33766867 158.27669206 29.7405501 157.40444946 38.21124268 C155.59464448 55.86736568 154.34204865 73.49424027 153.59619141 91.22631836 C153.56177444 92.01516922 153.52735748 92.80402008 153.49189758 93.61677551 C153.42857385 95.09052844 153.36972666 96.56448287 153.31608582 98.03862 C153.11103586 102.88896414 153.11103586 102.88896414 152 104 C145.40989339 104.44860517 138.86134384 103.79481227 132.32421875 103.01171875 C130.44674913 102.79860339 128.56922378 102.5859785 126.69165039 102.3737793 C125.71342316 102.26158051 124.73519592 102.14938171 123.72732544 102.03378296 C106.03047987 100.01783955 88.33519009 98.36180425 70.5625 97.1875 C69.17410416 97.09316177 69.17410416 97.09316177 67.75765991 96.99691772 C51.36329691 95.89524787 35.4935791 95.55469777 19.125 97.5 C1.54220241 99.5500951 1.54220241 99.5500951 -5 99 C-6 98 -6 98 -6.00415039 95.91333008 C-5.04648508 82.9853822 -2.88859774 70.20401785 -0.93579102 57.3972168 C-0.45101263 54.20693151 0.0267147 51.01564628 0.50390625 47.82421875 C0.65388565 46.85634933 0.80386505 45.88847992 0.95838928 44.89128113 C1.97332348 38.08318572 2.66705536 31.46140745 1.34375 24.6328125 C1.20807617 23.89667725 1.07240234 23.16054199 0.93261719 22.40209961 C0.78985352 21.65065674 0.64708984 20.89921387 0.5 20.125 C-0.65648739 13.65465246 -1.4188372 7.59668587 -1 1 C-0.67 0.67 -0.34 0.34 0 0 Z " fill="#313131" transform="translate(149,180)"/>
<path d="M0 0 C3.05436758 0.01291487 6.0751171 0.10816294 9.125 0.25 C10.14400391 0.29374756 11.16300781 0.33749512 12.21289062 0.38256836 C19.885882 0.73918659 27.5472693 1.22258913 35.2109375 1.73828125 C69.78494031 4.30230092 69.78494031 4.30230092 104.38671875 3.234375 C122.19701531 2.07911252 140.43944609 2.60510165 158 6 C159.79181584 7.79181584 159.16806135 10.39411601 159.1796875 12.81640625 C159.11729219 21.33766867 158.27669206 29.7405501 157.40444946 38.21124268 C155.59464448 55.86736568 154.34204865 73.49424027 153.59619141 91.22631836 C153.56177444 92.01516922 153.52735748 92.80402008 153.49189758 93.61677551 C153.42857385 95.09052844 153.36972666 96.56448287 153.31608582 98.03862 C153.11103586 102.88896414 153.11103586 102.88896414 152 104 C145.40989339 104.44860517 138.86134384 103.79481227 132.32421875 103.01171875 C130.44674913 102.79860339 128.56922378 102.5859785 126.69165039 102.3737793 C125.71342316 102.26158051 124.73519592 102.14938171 123.72732544 102.03378296 C106.03047987 100.01783955 88.33519009 98.36180425 70.5625 97.1875 C69.17410416 97.09316177 69.17410416 97.09316177 67.75765991 96.99691772 C51.36329691 95.89524787 35.4935791 95.55469777 19.125 97.5 C1.54220241 99.5500951 1.54220241 99.5500951 -5 99 C-6 98 -6 98 -6.00415039 95.91333008 C-5.04648508 82.9853822 -2.88859774 70.20401785 -0.93579102 57.3972168 C-0.45101263 54.20693151 0.0267147 51.01564628 0.50390625 47.82421875 C0.65388565 46.85634933 0.80386505 45.88847992 0.95838928 44.89128113 C1.97332348 38.08318572 2.66705536 31.46140745 1.34375 24.6328125 C1.20807617 23.89667725 1.07240234 23.16054199 0.93261719 22.40209961 C0.78985352 21.65065674 0.64708984 20.89921387 0.5 20.125 C-0.65648739 13.65465246 -1.4188372 7.59668587 -1 1 C-0.67 0.67 -0.34 0.34 0 0 Z M3 4 C3.52543926 10.89984713 4.36979602 17.65726261 5.59765625 24.46875 C6.65535934 33.75189173 5.68799383 42.62805105 4.25 51.81640625 C4.07243164 52.99468491 3.89486328 54.17296356 3.71191406 55.38694763 C3.14886458 59.11333145 2.57483042 62.83791713 2 66.5625 C1.42749881 70.31953903 0.85724681 74.07691098 0.28808594 77.8344574 C-0.06558609 80.1641455 -0.42163535 82.49347417 -0.78027344 84.82240295 C-1.02052246 86.39060036 -1.02052246 86.39060036 -1.265625 87.99047852 C-1.40774414 88.91216324 -1.54986328 89.83384796 -1.69628906 90.78346252 C-2.04525067 92.95737295 -2.04525067 92.95737295 -2 95 C7.26021375 94.51463707 16.44853336 93.84648751 25.64770508 92.66064453 C40.52342404 90.91094907 55.67234069 92.22510963 70.5625 93.1875 C71.56159393 93.25047272 72.56068787 93.31344543 73.59005737 93.37832642 C91.8314857 94.54218984 109.98405589 96.31657016 128.14477539 98.3737793 C129.57533264 98.5350531 129.57533264 98.5350531 131.03479004 98.69958496 C132.80847966 98.9008776 134.58179159 99.10554074 136.35461426 99.31433105 C140.59773432 99.80015479 144.71957379 100.10906917 149 100 C149.02870178 99.44767197 149.05740356 98.89534393 149.0869751 98.32627869 C150.63185448 68.78583768 152.61014964 39.38992495 156 10 C139.27309633 7.43436022 123.05555139 5.10960863 106.12573242 7.08544922 C84.46948105 9.56507651 62.55729627 7.67195457 40.89227295 6.14575195 C36.00686424 5.80337907 31.12054926 5.4741427 26.23429871 5.14404297 C23.65313671 4.96888932 21.07216027 4.79097227 18.4914093 4.60986328 C17.33126816 4.52978027 16.17112701 4.44969727 14.97583008 4.3671875 C13.96313553 4.29612793 12.95044098 4.22506836 11.90705872 4.15185547 C8.93252059 3.99647509 5.97802636 3.9739794 3 4 Z " fill="#444444" transform="translate(149,180)"/>
<path d="M0 0 C4.96382637 3.43649518 4.96382637 3.43649518 6.25 6.25 C6.80187219 11.30882842 6.19565801 14.12607879 3.25 18.25 C2.92 18.91 2.59 19.57 2.25 20.25 C3.178125 20.806875 4.10625 21.36375 5.0625 21.9375 C8.32461046 24.30412916 9.73981224 25.55842992 11.25 29.25 C11.8765946 34.71032441 11.12834904 38.41147715 8.90625 43.390625 C5.58465402 47.11958652 1.49016864 48.9745927 -3.44677734 49.58154297 C-6.37095358 49.67783473 -9.26319678 49.64924598 -12.1875 49.5625 C-13.19232422 49.55283203 -14.19714844 49.54316406 -15.23242188 49.53320312 C-22.58107615 49.41892385 -22.58107615 49.41892385 -23.75 48.25 C-23.84319449 46.7151703 -23.867458 45.17607918 -23.86352539 43.63842773 C-23.86344986 42.65748642 -23.86337433 41.6765451 -23.86329651 40.6658783 C-23.85813522 39.5992244 -23.85297394 38.5325705 -23.84765625 37.43359375 C-23.8462413 36.3474025 -23.84482635 35.26121124 -23.84336853 34.1421051 C-23.83775048 30.65720925 -23.82519492 27.17237658 -23.8125 23.6875 C-23.80748733 21.33138113 -23.80292402 18.97526126 -23.79882812 16.61914062 C-23.78777519 10.82940536 -23.77101951 5.03970719 -23.75 -0.75 C-16.5042078 -2.71578224 -6.91627796 -3.29039343 0 0 Z " fill="#F7F7F7" transform="translate(281.75,207.75)"/>
<path d="M0 0 C6.93 0 13.86 0 21 0 C22.80348595 4.80929587 24.42475693 9.18881744 25.71875 14.08203125 C26.15767578 15.72848633 26.15767578 15.72848633 26.60546875 17.40820312 C27.04826172 19.09333008 27.04826172 19.09333008 27.5 20.8125 C28.0935991 23.04821715 28.6873477 25.28389462 29.28125 27.51953125 C29.56613281 28.60186035 29.85101563 29.68418945 30.14453125 30.79931641 C31.20539578 34.76847565 32.3278129 38.7193359 33.46679688 42.66674805 C34 45 34 45 34 49 C29.71 49 25.42 49 21 49 C19 43 19 43 19 40 C15.7 40 12.4 40 9 40 C8.67 42.97 8.34 45.94 8 49 C2.06 49 -3.88 49 -10 49 C-9.43816765 42.3253281 -8.49042246 36.00092639 -6.93359375 29.4921875 C-6.73524429 28.64069122 -6.53689484 27.78919495 -6.33253479 26.91189575 C-5.70674957 24.23150892 -5.07229622 21.55326539 -4.4375 18.875 C-4.00788478 17.0418022 -3.57884324 15.20846987 -3.15039062 13.375 C-2.10792964 8.91479941 -1.05373312 4.45761043 0 0 Z " fill="#F9F9F9" transform="translate(222,207)"/>
<path d="M0 0 C15.18 0 30.36 0 46 0 C46 5.94 46 11.88 46 18 C41.05 18 36.1 18 31 18 C31 28.23 31 38.46 31 49 C25.06 49 19.12 49 13 49 C12.97297518 44.95828833 12.9531484 40.91675829 12.9375 36.875 C12.92912109 35.73289063 12.92074219 34.59078125 12.91210938 33.4140625 C12.90888672 32.30546875 12.90566406 31.196875 12.90234375 30.0546875 C12.89710693 29.03874512 12.89187012 28.02280273 12.88647461 26.97607422 C13 24 13 24 14 18 C9.38 18 4.76 18 0 18 C0 12.06 0 6.12 0 0 Z " fill="#F8F8F8" transform="translate(164,207)"/>
<path d="M0 0 C2.475 0.495 2.475 0.495 5 1 C5.75 3.25 5.75 3.25 6 6 C4.1875 8.3125 4.1875 8.3125 2 10 C1.34 10 0.68 10 0 10 C0 6.7 0 3.4 0 0 Z " fill="#575757" transform="translate(273,237)"/>
<path d="M0 0 C1.98 0 3.96 0 6 0 C6.33 2.31 6.66 4.62 7 7 C4.69 7 2.38 7 0 7 C0 4.69 0 2.38 0 0 Z " fill="#333333" transform="translate(232,231)"/>
</svg>
