<?xml version="1.0" encoding="UTF-8"?>
<svg version="1.1" xmlns="http://www.w3.org/2000/svg" width="500" height="500">
<path d="M0 0 C1.61205826 0.00367836 1.61205826 0.00367836 3.25668335 0.00743103 C4.47487762 0.00835251 5.6930719 0.00927399 6.94818115 0.01022339 C8.29890062 0.0167634 9.64961881 0.02357173 11.00033569 0.03062439 C12.39947452 0.03466025 13.79861396 0.03848649 15.19775391 0.04211426 C29.67983684 0.09013704 44.1606449 0.26968528 58.64096069 0.49278259 C62.32240622 0.54929303 66.00391469 0.59891976 69.6854763 0.64718533 C72.55925787 0.68590176 75.43296084 0.72900823 78.3066597 0.77340889 C80.32368006 0.80352394 82.34076577 0.82915567 84.35784912 0.85470581 C85.55906403 0.87465103 86.76027893 0.89459625 87.99789429 0.91514587 C89.05688934 0.93069016 90.1158844 0.94623444 91.20697021 0.96224976 C93.58627319 1.12046814 93.58627319 1.12046814 94.58627319 2.12046814 C94.52062864 11.85227381 92.954856 21.62149445 91.60287476 31.23985291 C89.94646512 43.59850926 90.72071383 55.73541742 91.58627319 68.12046814 C93.03408931 88.83687063 93.03408931 88.83687063 92.58627319 96.12046814 C90.67785875 98.02888258 87.85682731 97.24722175 85.31721497 97.2559967 C84.41535965 97.25397247 83.51350433 97.25194824 82.58432007 97.24986267 C81.63968399 97.25161499 80.69504791 97.25336731 79.7217865 97.25517273 C76.582847 97.25959294 73.44396332 97.25665266 70.30502319 97.25328064 C68.13408395 97.25395363 65.96314479 97.25492361 63.79220581 97.25617981 C59.23576136 97.25765701 54.67933647 97.25550151 50.12289429 97.25083923 C44.26800733 97.24514194 38.41316621 97.24842082 32.55828094 97.2544117 C28.07347261 97.25801671 23.58867523 97.256879 19.10386658 97.25428391 C16.94439183 97.25361447 14.78491611 97.25444363 12.6254425 97.25676346 C9.61301012 97.259289 6.60065306 97.25545078 3.58822632 97.24986267 C2.23544334 97.25289902 2.23544334 97.25289902 0.85533142 97.2559967 C-5.2994645 97.23473045 -5.2994645 97.23473045 -6.41372681 96.12046814 C-6.53516981 93.43314734 -6.5788198 90.78151099 -6.56997681 88.09312439 C-6.56824463 87.21938675 -6.56651245 86.34564911 -6.56472778 85.44543457 C-6.46261087 72.19273291 -5.69307754 58.95407804 -5.02304077 45.72038269 C-4.73330173 39.98885591 -4.4498996 34.25702408 -4.17027283 28.5249958 C-4.07304267 26.55372026 -3.97214314 24.58262677 -3.87112427 22.61154175 C-3.54955262 16.10141427 -3.35847073 9.63712361 -3.48831177 3.11914062 C-3.37738759 0.14667676 -2.97287043 0.14837477 0 0 Z " fill="#313131" transform="translate(193.41372680664063,171.87953186035156)"/>
<path d="M0 0 C5.61 0 11.22 0 17 0 C18.57430916 3.9357729 19.89865551 7.76556319 21.125 11.8125 C21.47820312 12.97394531 21.83140625 14.13539063 22.1953125 15.33203125 C22.46085937 16.21246094 22.72640625 17.09289062 23 18 C23.29245605 17.49025635 23.58491211 16.9805127 23.88623047 16.45532227 C25.21035478 14.1545184 26.54255309 11.85849322 27.875 9.5625 C28.33519531 8.76005859 28.79539063 7.95761719 29.26953125 7.13085938 C29.71425781 6.36708984 30.15898437 5.60332031 30.6171875 4.81640625 C31.02565918 4.10943604 31.43413086 3.40246582 31.85498047 2.67407227 C33 1 33 1 35 0 C37.97 5.94 40.94 11.88 44 18 C46.40681178 12.02446731 48.76262045 6.04092479 51 0 C55.95 0 60.9 0 66 0 C64.91555767 6.23554337 63.40714341 11.82070483 61.14453125 17.71875 C59.4067404 22.70081251 58.08138424 27.79049017 56.75073242 32.89453125 C56.5519751 33.64089844 56.35321777 34.38726562 56.1484375 35.15625 C55.88812744 36.15881836 55.88812744 36.15881836 55.62255859 37.18164062 C55 39 55 39 53 42 C49.7421875 42.29296875 49.7421875 42.29296875 45.875 42.1875 C43.60625 42.125625 41.3375 42.06375 39 42 C37.35 37.38 35.7 32.76 34 28 C31.04954092 31.60937794 31.04954092 31.60937794 29.88671875 34.578125 C28.5226861 37.61720751 27.36345182 39.63031216 25 42 C21.57739258 42.46386719 21.57739258 42.46386719 17.76953125 42.296875 C16.50343018 42.25401367 15.2373291 42.21115234 13.93286133 42.16699219 C12.96501709 42.11188477 11.99717285 42.05677734 11 42 C9.914715 38.21404135 8.8303706 34.4278146 7.74682617 30.64135742 C7.20083324 28.73407615 6.65413636 26.82699644 6.10742188 24.91992188 C5.0664759 21.28138594 4.03161227 17.64119241 3 14 C2.69271973 12.92186035 2.38543945 11.8437207 2.06884766 10.73291016 C1.79476074 9.75499512 1.52067383 8.77708008 1.23828125 7.76953125 C0.99762939 6.91593018 0.75697754 6.0623291 0.5090332 5.18286133 C0 3 0 3 0 0 Z " fill="#FAFAFA" transform="translate(204,202)"/>
<path d="M0 0 C1.61205826 0.00367836 1.61205826 0.00367836 3.25668335 0.00743103 C4.47487762 0.00835251 5.6930719 0.00927399 6.94818115 0.01022339 C8.29890062 0.0167634 9.64961881 0.02357173 11.00033569 0.03062439 C12.39947452 0.03466025 13.79861396 0.03848649 15.19775391 0.04211426 C29.67983684 0.09013704 44.1606449 0.26968528 58.64096069 0.49278259 C62.32240622 0.54929303 66.00391469 0.59891976 69.6854763 0.64718533 C72.55925787 0.68590176 75.43296084 0.72900823 78.3066597 0.77340889 C80.32368006 0.80352394 82.34076577 0.82915567 84.35784912 0.85470581 C85.55906403 0.87465103 86.76027893 0.89459625 87.99789429 0.91514587 C89.05688934 0.93069016 90.1158844 0.94623444 91.20697021 0.96224976 C93.58627319 1.12046814 93.58627319 1.12046814 94.58627319 2.12046814 C94.52062864 11.85227381 92.954856 21.62149445 91.60287476 31.23985291 C89.94646512 43.59850926 90.72071383 55.73541742 91.58627319 68.12046814 C93.03408931 88.83687063 93.03408931 88.83687063 92.58627319 96.12046814 C90.67785875 98.02888258 87.85682731 97.24722175 85.31721497 97.2559967 C84.41535965 97.25397247 83.51350433 97.25194824 82.58432007 97.24986267 C81.63968399 97.25161499 80.69504791 97.25336731 79.7217865 97.25517273 C76.582847 97.25959294 73.44396332 97.25665266 70.30502319 97.25328064 C68.13408395 97.25395363 65.96314479 97.25492361 63.79220581 97.25617981 C59.23576136 97.25765701 54.67933647 97.25550151 50.12289429 97.25083923 C44.26800733 97.24514194 38.41316621 97.24842082 32.55828094 97.2544117 C28.07347261 97.25801671 23.58867523 97.256879 19.10386658 97.25428391 C16.94439183 97.25361447 14.78491611 97.25444363 12.6254425 97.25676346 C9.61301012 97.259289 6.60065306 97.25545078 3.58822632 97.24986267 C2.23544334 97.25289902 2.23544334 97.25289902 0.85533142 97.2559967 C-5.2994645 97.23473045 -5.2994645 97.23473045 -6.41372681 96.12046814 C-6.53516981 93.43314734 -6.5788198 90.78151099 -6.56997681 88.09312439 C-6.56824463 87.21938675 -6.56651245 86.34564911 -6.56472778 85.44543457 C-6.46261087 72.19273291 -5.69307754 58.95407804 -5.02304077 45.72038269 C-4.73330173 39.98885591 -4.4498996 34.25702408 -4.17027283 28.5249958 C-4.07304267 26.55372026 -3.97214314 24.58262677 -3.87112427 22.61154175 C-3.54955262 16.10141427 -3.35847073 9.63712361 -3.48831177 3.11914062 C-3.37738759 0.14667676 -2.97287043 0.14837477 0 0 Z M0.58627319 4.12046814 C0.56645386 4.8448407 0.54663452 5.56921326 0.5262146 6.3155365 C0.1573361 19.44129316 -0.26259469 32.56063485 -0.92544556 45.67515564 C-0.97046204 46.56797745 -1.01547852 47.46079926 -1.06185913 48.38067627 C-1.28468561 52.76369685 -1.51468246 57.14622716 -1.75308228 61.52842712 C-1.83925976 63.18019719 -1.9253631 64.83197112 -2.01138306 66.48374939 C-2.05196335 67.18938019 -2.09254364 67.89501099 -2.13435364 68.62202454 C-2.56989372 77.1388957 -2.41372681 85.55522496 -2.41372681 94.12046814 C42.63127319 93.62546814 42.63127319 93.62546814 88.58627319 93.12046814 C87.90145083 74.58444583 87.90145083 74.58444583 86.76986694 56.10874939 C86.24248703 44.65226232 86.92117063 33.77929204 88.58627319 22.43296814 C88.96460552 19.78368967 89.33784898 17.13372767 89.71127319 14.48374939 C89.87885132 13.33173035 90.04642944 12.1797113 90.21908569 10.99278259 C90.64967563 8.1071192 90.64967563 8.1071192 90.58627319 5.12046814 C60.58085362 4.38394655 30.60081134 3.96651099 0.58627319 4.12046814 Z " fill="#444444" transform="translate(193.41372680664063,171.87953186035156)"/>
</svg>
