<?xml version="1.0" encoding="UTF-8"?>
<svg version="1.1" xmlns="http://www.w3.org/2000/svg" width="500" height="500">
<path d="M0 0 C2.81114705 0.03256838 5.26297959 0.43904572 7.98046875 1.140625 C13.72352912 2.45264234 19.44293179 2.78388445 25.3125 3.125 C26.54766357 3.20290771 27.78282715 3.28081543 29.05541992 3.36108398 C37.01564943 3.85885825 44.97917286 4.30053018 52.94245911 4.74613953 C56.50816196 4.94576946 60.07378396 5.1468026 63.6394043 5.34790039 C68.40616485 5.61655709 73.17326279 5.8776889 77.94067383 6.13452148 C80.15446924 6.25747691 82.36825548 6.38059772 84.58203125 6.50390625 C85.61920288 6.55801666 86.65637451 6.61212708 87.72497559 6.6678772 C89.14272278 6.74828751 89.14272278 6.74828751 90.58911133 6.83032227 C91.42017899 6.87536392 92.25124664 6.92040558 93.10749817 6.96681213 C95 7.1875 95 7.1875 96 8.1875 C96.29831551 12.82495015 95.95118889 16.84594038 94.94140625 21.37890625 C90.50224045 41.51392543 90.34101478 61.44972093 90.18969727 82.01000977 C90.18065872 83.20028275 90.17162018 84.39055573 90.16230774 85.61689758 C90.14808193 87.88777189 90.13981326 90.15869298 90.1381073 92.42961121 C90.13410416 93.43800552 90.13010101 94.44639984 90.12597656 95.48535156 C90.12551331 96.3727301 90.12505005 97.26010864 90.12457275 98.17437744 C90 100.1875 90 100.1875 89 101.1875 C83.54917069 101.76663386 80.13034306 100.56511197 75.2093811 98.29052734 C61.73286344 92.15714361 50.08177065 92.75723249 35.625 94.1875 C33.43918324 94.3730361 31.2529772 94.55404297 29.06640625 94.73046875 C25.90102087 94.98615358 22.73613457 95.24374536 19.57232666 95.51831055 C11.7342823 96.18725771 3.86421437 96.71310516 -4 96.1875 C-5.70050795 94.48699205 -5.13225932 92.36332407 -5.13671875 90.09570312 C-5.13285156 89.40412109 -5.12898437 88.71253906 -5.125 88 C-5.12757813 86.68644531 -5.13015625 85.37289062 -5.1328125 84.01953125 C-5.07605078 80.27597772 -4.80188517 76.57473803 -4.49560547 72.84375 C-3.98707451 65.84726034 -3.88071339 58.89817308 -3.92483521 51.8853054 C-3.93786985 49.79619209 -3.94417918 47.70714383 -3.94897461 45.61799622 C-3.9602419 41.20363403 -3.97956608 36.78932796 -4 32.375 C-4.02364572 27.20896642 -4.04394239 22.04296116 -4.05593872 16.87688637 C-4.06242207 14.81771962 -4.07491255 12.75864489 -4.08764648 10.69950867 C-4.09094971 9.46344376 -4.09425293 8.22737885 -4.09765625 6.95385742 C-4.10289307 5.86135178 -4.10812988 4.76884613 -4.11352539 3.64323425 C-3.94624542 0.02470322 -3.67599654 0.22974978 0 0 Z " fill="#313131" transform="translate(210,179.8125)"/>
<path d="M0 0 C17.62778911 -2.23385157 17.62778911 -2.23385157 23.07421875 1.37402344 C26.8306336 5.07446522 29.48994472 9.39137391 32 14 C34.33364352 11.07096942 36.04960836 8.11431797 37.6875 4.75 C38.450625 3.1825 39.21375 1.615 40 0 C46.93 0 53.86 0 61 0 C59.11971363 5.64085912 57.47387352 10.43563915 54.92578125 15.66015625 C54.49789055 16.54293243 54.49789055 16.54293243 54.06135559 17.44354248 C53.15044912 19.3192047 52.23171734 21.19089892 51.3125 23.0625 C50.68238113 24.35551861 50.05266311 25.64873265 49.42333984 26.94213867 C45.01254847 35.9933788 40.53915808 45.01246701 36 54 C28.74 54 21.48 54 14 54 C18.5 44.75 18.5 44.75 19.92382812 41.85449219 C20.28927734 41.09297852 20.65472656 40.33146484 21.03125 39.546875 C21.40830078 38.77182617 21.78535156 37.99677734 22.17382812 37.19824219 C23.23453796 34.76734615 23.23453796 34.76734615 23 31 C21.24102329 28.2268502 21.24102329 28.2268502 18.8125 25.3125 C17.90431933 24.16846746 16.99680329 23.02390711 16.08984375 21.87890625 C15.59726074 21.26289551 15.10467773 20.64688477 14.59716797 20.01220703 C11.64491242 16.29278021 8.76287396 12.51947317 5.875 8.75 C5.29468018 7.99887939 4.71436035 7.24775879 4.11645508 6.47387695 C3.31244263 5.42719849 3.31244263 5.42719849 2.4921875 4.359375 C2.01120605 3.73514648 1.53022461 3.11091797 1.03466797 2.46777344 C0 1 0 1 0 0 Z " fill="#FBFBFB" transform="translate(223,202)"/>
<path d="M0 0 C2.81114705 0.03256838 5.26297959 0.43904572 7.98046875 1.140625 C13.72352912 2.45264234 19.44293179 2.78388445 25.3125 3.125 C26.54766357 3.20290771 27.78282715 3.28081543 29.05541992 3.36108398 C37.01564943 3.85885825 44.97917286 4.30053018 52.94245911 4.74613953 C56.50816196 4.94576946 60.07378396 5.1468026 63.6394043 5.34790039 C68.40616485 5.61655709 73.17326279 5.8776889 77.94067383 6.13452148 C80.15446924 6.25747691 82.36825548 6.38059772 84.58203125 6.50390625 C85.61920288 6.55801666 86.65637451 6.61212708 87.72497559 6.6678772 C89.14272278 6.74828751 89.14272278 6.74828751 90.58911133 6.83032227 C91.42017899 6.87536392 92.25124664 6.92040558 93.10749817 6.96681213 C95 7.1875 95 7.1875 96 8.1875 C96.29831551 12.82495015 95.95118889 16.84594038 94.94140625 21.37890625 C90.50224045 41.51392543 90.34101478 61.44972093 90.18969727 82.01000977 C90.18065872 83.20028275 90.17162018 84.39055573 90.16230774 85.61689758 C90.14808193 87.88777189 90.13981326 90.15869298 90.1381073 92.42961121 C90.13410416 93.43800552 90.13010101 94.44639984 90.12597656 95.48535156 C90.12551331 96.3727301 90.12505005 97.26010864 90.12457275 98.17437744 C90 100.1875 90 100.1875 89 101.1875 C83.54917069 101.76663386 80.13034306 100.56511197 75.2093811 98.29052734 C61.73286344 92.15714361 50.08177065 92.75723249 35.625 94.1875 C33.43918324 94.3730361 31.2529772 94.55404297 29.06640625 94.73046875 C25.90102087 94.98615358 22.73613457 95.24374536 19.57232666 95.51831055 C11.7342823 96.18725771 3.86421437 96.71310516 -4 96.1875 C-5.70050795 94.48699205 -5.13225932 92.36332407 -5.13671875 90.09570312 C-5.13285156 89.40412109 -5.12898437 88.71253906 -5.125 88 C-5.12757813 86.68644531 -5.13015625 85.37289062 -5.1328125 84.01953125 C-5.07605078 80.27597772 -4.80188517 76.57473803 -4.49560547 72.84375 C-3.98707451 65.84726034 -3.88071339 58.89817308 -3.92483521 51.8853054 C-3.93786985 49.79619209 -3.94417918 47.70714383 -3.94897461 45.61799622 C-3.9602419 41.20363403 -3.97956608 36.78932796 -4 32.375 C-4.02364572 27.20896642 -4.04394239 22.04296116 -4.05593872 16.87688637 C-4.06242207 14.81771962 -4.07491255 12.75864489 -4.08764648 10.69950867 C-4.09094971 9.46344376 -4.09425293 8.22737885 -4.09765625 6.95385742 C-4.10289307 5.86135178 -4.10812988 4.76884613 -4.11352539 3.64323425 C-3.94624542 0.02470322 -3.67599654 0.22974978 0 0 Z M0 4.1875 C0.00222061 4.93315216 0.00444122 5.67880432 0.00672913 6.447052 C0.02691549 13.53587053 0.04206652 20.6246788 0.05181217 27.71351814 C0.05699121 31.35638803 0.06399625 34.99923382 0.07543945 38.64208984 C0.08644801 42.16937363 0.09231413 45.69663451 0.09487724 49.22393417 C0.0975756 51.19878649 0.10535775 53.17362982 0.11329651 55.14846802 C0.11374201 62.46371829 -0.16568637 69.68812341 -0.77857971 76.97848511 C-1.12836059 82.04781299 -1.0837078 87.10922658 -1 92.1875 C6.97524365 92.40183705 14.84481314 92.06341022 22.796875 91.49609375 C23.76250366 91.42725983 24.72813232 91.3584259 25.72302246 91.2875061 C29.75220771 90.99611277 33.78086203 90.6982461 37.80908203 90.39379883 C40.78370947 90.17080932 43.75893403 89.95791049 46.734375 89.74609375 C47.63146179 89.67531113 48.52854858 89.6045285 49.45281982 89.53160095 C56.714103 89.02282719 63.91950357 88.98420712 70.74609375 91.81640625 C71.52017578 92.12900391 72.29425781 92.44160156 73.09179688 92.76367188 C74.25291992 93.2519043 74.25291992 93.2519043 75.4375 93.75 C77.0183939 94.39990892 78.60037497 95.04718159 80.18359375 95.69140625 C80.86993896 95.97830322 81.55628418 96.2652002 82.26342773 96.56079102 C84.00584057 97.30065308 84.00584057 97.30065308 86 97.1875 C86.00142502 96.5879097 86.00285004 95.9883194 86.00431824 95.37055969 C86.17784533 40.15020155 86.17784533 40.15020155 91.55688477 17.46264648 C92.12744754 14.9194449 92.12744754 14.9194449 92 11.1875 C77.96724835 10.1486586 63.93298142 9.22460012 49.8828125 8.45703125 C48.73482178 8.39364059 47.58683105 8.33024994 46.40405273 8.26493835 C39.404501 7.87862304 39.404501 7.87862304 32.4041748 7.50668335 C29.0789893 7.33343094 25.75435113 7.15170852 22.4296875 6.96875 C20.94651535 6.8953112 20.94651535 6.8953112 19.43338013 6.82038879 C12.83296499 6.44757256 6.47576322 5.51221117 0 4.1875 Z " fill="#444444" transform="translate(210,179.8125)"/>
</svg>
